<?xml version="1.0" encoding="utf-8" standalone="no"?>
<!DOCTYPE svg PUBLIC "-//W3C//DTD SVG 1.1//EN"
  "http://www.w3.org/Graphics/SVG/1.1/DTD/svg11.dtd">
<!-- Created with matplotlib (http://matplotlib.org/) -->
<svg height="505pt" version="1.1" viewBox="0 0 868 505" width="868pt" xmlns="http://www.w3.org/2000/svg" xmlns:xlink="http://www.w3.org/1999/xlink">
 <defs>
  <style type="text/css">
*{stroke-linecap:butt;stroke-linejoin:round;}
  </style>
 </defs>
 <g id="figure_1">
  <g id="patch_1">
   <path d="M 0 505.672187 
L 868.721406 505.672187 
L 868.721406 0 
L 0 0 
z
" style="fill:#ffffff;"/>
  </g>
  <g id="axes_1">
   <g id="patch_2">
    <path d="M 76.821406 463.276875 
L 858.021406 463.276875 
L 858.021406 28.396875 
L 76.821406 28.396875 
z
" style="fill:#ffffff;"/>
   </g>
   <g id="PolyCollection_1">
    <defs>
     <path d="M 207.032608 -76.856148 
L 207.010205 -76.856148 
L 206.939967 -80.666425 
L 207.016297 -84.476702 
L 207.021403 -88.28698 
L 207.021406 -92.097257 
L 207.021406 -95.907534 
L 207.021406 -99.717811 
L 207.021406 -103.528089 
L 207.021406 -107.338366 
L 207.021406 -111.148643 
L 207.021406 -114.95892 
L 207.021406 -118.769198 
L 207.021406 -122.579475 
L 207.021406 -126.389752 
L 207.021406 -130.200029 
L 207.021406 -134.010306 
L 207.021406 -137.820584 
L 207.021406 -141.630861 
L 207.021406 -145.441138 
L 207.021406 -149.251415 
L 207.021402 -153.061693 
L 207.014962 -156.87197 
L 206.938897 -160.682247 
L 207.01229 -164.492524 
L 207.021398 -168.302802 
L 207.021406 -172.113079 
L 207.021406 -175.923356 
L 207.021406 -179.733633 
L 207.021406 -183.543911 
L 207.021406 -187.354188 
L 207.021406 -191.164465 
L 207.021406 -194.974742 
L 207.019155 -198.78502 
L 206.903739 -202.595297 
L 206.810807 -206.405574 
L 206.895805 -210.215851 
L 206.755926 -214.026128 
L 206.539077 -217.836406 
L 206.849528 -221.646683 
L 206.714356 -225.45696 
L 206.238736 -229.267237 
L 205.287692 -233.077515 
L 204.346983 -236.887792 
L 201.888274 -240.698069 
L 194.838844 -244.508346 
L 177.352759 -248.318624 
L 145.071656 -252.128901 
L 106.925619 -255.939178 
L 111.375011 -259.749455 
L 148.020499 -263.559733 
L 179.303916 -267.37001 
L 193.415293 -271.180287 
L 201.777811 -274.990564 
L 204.761299 -278.800841 
L 205.182438 -282.611119 
L 206.022823 -286.421396 
L 206.609124 -290.231673 
L 206.737771 -294.04195 
L 206.786337 -297.852228 
L 206.749559 -301.662505 
L 206.956551 -305.472782 
L 206.965127 -309.283059 
L 206.984796 -313.093337 
L 206.965216 -316.903614 
L 206.985661 -320.713891 
L 207.021209 -324.524168 
L 207.021406 -328.334446 
L 207.021406 -332.144723 
L 207.021406 -335.955 
L 207.021406 -339.765277 
L 207.021406 -343.575555 
L 207.021406 -347.385832 
L 207.021406 -351.196109 
L 207.021406 -355.006386 
L 207.021406 -358.816663 
L 207.021406 -362.626941 
L 207.021406 -366.437218 
L 207.021406 -370.247495 
L 207.021406 -374.057772 
L 207.021406 -377.86805 
L 207.021406 -381.678327 
L 207.021406 -385.488604 
L 207.021406 -389.298881 
L 207.021406 -393.109159 
L 207.021406 -396.919436 
L 207.021406 -400.729713 
L 207.021406 -404.53999 
L 207.021363 -408.350268 
L 207.002141 -412.160545 
L 206.94738 -415.970822 
L 207.018952 -419.781099 
L 207.021406 -423.591377 
L 207.021406 -427.401654 
L 207.021406 -431.211931 
L 207.021406 -435.022208 
L 207.021406 -438.832485 
L 207.021403 -442.642763 
L 207.016297 -446.45304 
L 206.939967 -450.263317 
L 207.010205 -454.073594 
L 207.032608 -454.073594 
L 207.032608 -454.073594 
L 207.102846 -450.263317 
L 207.026515 -446.45304 
L 207.021409 -442.642763 
L 207.021406 -438.832485 
L 207.021406 -435.022208 
L 207.021406 -431.211931 
L 207.021406 -427.401654 
L 207.021407 -423.591377 
L 207.023861 -419.781099 
L 207.095432 -415.970822 
L 207.040671 -412.160545 
L 207.02145 -408.350268 
L 207.021406 -404.53999 
L 207.021406 -400.729713 
L 207.021406 -396.919436 
L 207.021406 -393.109159 
L 207.021406 -389.298881 
L 207.021406 -385.488604 
L 207.021406 -381.678327 
L 207.021406 -377.86805 
L 207.021406 -374.057772 
L 207.021406 -370.247495 
L 207.021406 -366.437218 
L 207.021406 -362.626941 
L 207.021406 -358.816663 
L 207.021406 -355.006386 
L 207.021406 -351.196109 
L 207.021406 -347.385832 
L 207.021406 -343.575555 
L 207.021406 -339.765277 
L 207.021406 -335.955 
L 207.021406 -332.144723 
L 207.021406 -328.334446 
L 207.021603 -324.524168 
L 207.057151 -320.713891 
L 207.077596 -316.903614 
L 207.058017 -313.093337 
L 207.077686 -309.283059 
L 207.086262 -305.472782 
L 207.293253 -301.662505 
L 207.256476 -297.852228 
L 207.305041 -294.04195 
L 207.433689 -290.231673 
L 208.01999 -286.421396 
L 208.860374 -282.611119 
L 209.281514 -278.800841 
L 212.265002 -274.990564 
L 220.62752 -271.180287 
L 234.738897 -267.37001 
L 266.022314 -263.559733 
L 302.667801 -259.749455 
L 307.117193 -255.939178 
L 268.971156 -252.128901 
L 236.690054 -248.318624 
L 219.203968 -244.508346 
L 212.154539 -240.698069 
L 209.69583 -236.887792 
L 208.75512 -233.077515 
L 207.804076 -229.267237 
L 207.328457 -225.45696 
L 207.193284 -221.646683 
L 207.503735 -217.836406 
L 207.286887 -214.026128 
L 207.147008 -210.215851 
L 207.232006 -206.405574 
L 207.139073 -202.595297 
L 207.023658 -198.78502 
L 207.021407 -194.974742 
L 207.021406 -191.164465 
L 207.021406 -187.354188 
L 207.021406 -183.543911 
L 207.021406 -179.733633 
L 207.021406 -175.923356 
L 207.021406 -172.113079 
L 207.021415 -168.302802 
L 207.030522 -164.492524 
L 207.103915 -160.682247 
L 207.02785 -156.87197 
L 207.021411 -153.061693 
L 207.021406 -149.251415 
L 207.021406 -145.441138 
L 207.021406 -141.630861 
L 207.021406 -137.820584 
L 207.021406 -134.010306 
L 207.021406 -130.200029 
L 207.021406 -126.389752 
L 207.021406 -122.579475 
L 207.021406 -118.769198 
L 207.021406 -114.95892 
L 207.021406 -111.148643 
L 207.021406 -107.338366 
L 207.021406 -103.528089 
L 207.021406 -99.717811 
L 207.021406 -95.907534 
L 207.021406 -92.097257 
L 207.021409 -88.28698 
L 207.026515 -84.476702 
L 207.102846 -80.666425 
L 207.032608 -76.856148 
z
" id="me32946225f" style="stroke:#4c4c4c;stroke-width:1.5;"/>
    </defs>
    <g clip-path="url(#p42bd45ca0c)">
     <use style="fill:#2080df;stroke:#4c4c4c;stroke-width:1.5;" x="0" xlink:href="#me32946225f" y="505.672187"/>
    </g>
   </g>
   <g id="PolyCollection_2">
    <defs>
     <path d="M 467.427079 -62.162585 
L 467.415734 -62.162585 
L 467.391311 -66.155974 
L 467.37004 -70.149362 
L 467.369198 -74.142751 
L 467.384714 -78.136139 
L 467.393684 -82.129527 
L 467.37924 -86.122916 
L 467.398534 -90.116304 
L 467.418085 -94.109693 
L 467.421278 -98.103081 
L 467.421405 -102.09647 
L 467.421406 -106.089858 
L 467.421406 -110.083246 
L 467.421406 -114.076635 
L 467.421406 -118.070023 
L 467.421404 -122.063412 
L 467.42123 -126.0568 
L 467.416616 -130.050189 
L 467.383133 -134.043577 
L 467.32139 -138.036965 
L 467.311748 -142.030354 
L 467.323283 -146.023742 
L 467.343807 -150.017131 
L 467.39163 -154.010519 
L 467.388953 -158.003908 
L 467.375082 -161.997296 
L 467.362721 -165.990684 
L 467.328351 -169.984073 
L 467.340989 -173.977461 
L 467.363555 -177.97085 
L 467.30849 -181.964238 
L 467.16066 -185.957627 
L 466.995739 -189.951015 
L 466.78972 -193.944403 
L 466.647312 -197.937792 
L 466.660907 -201.93118 
L 466.760456 -205.924569 
L 466.44933 -209.917957 
L 465.800671 -213.911346 
L 465.347681 -217.904734 
L 464.892942 -221.898122 
L 464.318539 -225.891511 
L 462.891229 -229.884899 
L 460.656114 -233.878288 
L 457.519349 -237.871676 
L 452.373723 -241.865065 
L 443.50735 -245.858453 
L 428.998693 -249.851841 
L 412.048959 -253.84523 
L 403.177428 -257.838618 
L 411.93117 -261.832007 
L 429.153185 -265.825395 
L 442.796668 -269.818784 
L 451.847525 -273.812172 
L 457.280277 -277.80556 
L 460.447689 -281.798949 
L 462.34331 -285.792337 
L 463.746534 -289.785726 
L 464.758985 -293.779114 
L 465.503793 -297.772503 
L 466.193019 -301.765891 
L 466.666303 -305.759279 
L 466.724828 -309.752668 
L 466.718797 -313.746056 
L 466.860074 -317.739445 
L 467.023749 -321.732833 
L 467.075087 -325.726222 
L 467.124848 -329.71961 
L 467.154214 -333.712998 
L 467.191639 -337.706387 
L 467.260353 -341.699775 
L 467.271716 -345.693164 
L 467.261122 -349.686552 
L 467.246736 -353.679941 
L 467.261281 -357.673329 
L 467.349264 -361.666717 
L 467.384414 -365.660106 
L 467.348892 -369.653494 
L 467.359749 -373.646883 
L 467.404399 -377.640271 
L 467.413578 -381.63366 
L 467.390506 -385.627048 
L 467.38247 -389.620436 
L 467.408391 -393.613825 
L 467.419962 -397.607213 
L 467.415678 -401.600602 
L 467.391242 -405.59399 
L 467.370025 -409.587379 
L 467.369295 -413.580767 
L 467.387362 -417.574155 
L 467.413875 -421.567544 
L 467.420884 -425.560932 
L 467.419245 -429.554321 
L 467.402818 -433.547709 
L 467.374767 -437.541098 
L 467.367119 -441.534486 
L 467.362684 -445.527874 
L 467.366027 -449.521263 
L 467.390692 -453.514651 
L 467.415712 -457.50804 
L 467.4271 -457.50804 
L 467.4271 -457.50804 
L 467.45212 -453.514651 
L 467.476785 -449.521263 
L 467.480128 -445.527874 
L 467.475694 -441.534486 
L 467.468046 -437.541098 
L 467.439994 -433.547709 
L 467.423567 -429.554321 
L 467.421929 -425.560932 
L 467.428937 -421.567544 
L 467.455451 -417.574155 
L 467.473517 -413.580767 
L 467.472788 -409.587379 
L 467.451571 -405.59399 
L 467.427135 -401.600602 
L 467.422851 -397.607213 
L 467.434422 -393.613825 
L 467.460342 -389.620436 
L 467.452306 -385.627048 
L 467.429234 -381.63366 
L 467.438414 -377.640271 
L 467.483063 -373.646883 
L 467.493921 -369.653494 
L 467.458399 -365.660106 
L 467.493548 -361.666717 
L 467.581531 -357.673329 
L 467.596077 -353.679941 
L 467.58169 -349.686552 
L 467.571097 -345.693164 
L 467.58246 -341.699775 
L 467.651174 -337.706387 
L 467.688598 -333.712998 
L 467.717964 -329.71961 
L 467.767726 -325.726222 
L 467.819063 -321.732833 
L 467.982739 -317.739445 
L 468.124015 -313.746056 
L 468.117984 -309.752668 
L 468.17651 -305.759279 
L 468.649793 -301.765891 
L 469.33902 -297.772503 
L 470.083828 -293.779114 
L 471.096278 -289.785726 
L 472.499503 -285.792337 
L 474.395124 -281.798949 
L 477.562536 -277.80556 
L 482.995288 -273.812172 
L 492.046144 -269.818784 
L 505.689627 -265.825395 
L 522.911642 -261.832007 
L 531.665384 -257.838618 
L 522.793854 -253.84523 
L 505.84412 -249.851841 
L 491.335462 -245.858453 
L 482.469089 -241.865065 
L 477.323464 -237.871676 
L 474.186698 -233.878288 
L 471.951584 -229.884899 
L 470.524273 -225.891511 
L 469.94987 -221.898122 
L 469.495131 -217.904734 
L 469.042141 -213.911346 
L 468.393482 -209.917957 
L 468.082356 -205.924569 
L 468.181905 -201.93118 
L 468.1955 -197.937792 
L 468.053093 -193.944403 
L 467.847073 -189.951015 
L 467.682152 -185.957627 
L 467.534323 -181.964238 
L 467.479257 -177.97085 
L 467.501823 -173.977461 
L 467.514462 -169.984073 
L 467.480091 -165.990684 
L 467.46773 -161.997296 
L 467.45386 -158.003908 
L 467.451183 -154.010519 
L 467.499005 -150.017131 
L 467.519529 -146.023742 
L 467.531065 -142.030354 
L 467.521423 -138.036965 
L 467.45968 -134.043577 
L 467.426196 -130.050189 
L 467.421583 -126.0568 
L 467.421408 -122.063412 
L 467.421406 -118.070023 
L 467.421406 -114.076635 
L 467.421406 -110.083246 
L 467.421406 -106.089858 
L 467.421408 -102.09647 
L 467.421534 -98.103081 
L 467.424727 -94.109693 
L 467.444278 -90.116304 
L 467.463572 -86.122916 
L 467.449128 -82.129527 
L 467.458099 -78.136139 
L 467.473615 -74.142751 
L 467.472773 -70.149362 
L 467.451502 -66.155974 
L 467.427079 -62.162585 
z
" id="m62621269e5" style="stroke:#4c4c4c;stroke-width:1.5;"/>
    </defs>
    <g clip-path="url(#p42bd45ca0c)">
     <use style="fill:#2080df;stroke:#4c4c4c;stroke-width:1.5;" x="0" xlink:href="#m62621269e5" y="505.672187"/>
    </g>
   </g>
   <g id="PolyCollection_3">
    <defs>
     <path d="M 728.031759 -233.371988 
L 727.611053 -233.371988 
L 727.461458 -234.053779 
L 727.24464 -234.735569 
L 726.951843 -235.41736 
L 726.579686 -236.099151 
L 726.127286 -236.780941 
L 725.589878 -237.462732 
L 724.952259 -238.144523 
L 724.1873 -238.826313 
L 723.263655 -239.508104 
L 722.161929 -240.189894 
L 720.892355 -240.871685 
L 719.50326 -241.553476 
L 718.071465 -242.235266 
L 716.673401 -242.917057 
L 715.345523 -243.598847 
L 714.049458 -244.280638 
L 712.65689 -244.962429 
L 710.961618 -245.644219 
L 708.715424 -246.32601 
L 705.676459 -247.007801 
L 701.65739 -247.689591 
L 696.564234 -248.371382 
L 690.421241 -249.053172 
L 683.378702 -249.734963 
L 675.700385 -250.416754 
L 667.729156 -251.098544 
L 659.835099 -251.780335 
L 652.357749 -252.462125 
L 645.558013 -253.143916 
L 639.593972 -253.825707 
L 634.528598 -254.507497 
L 630.368208 -255.189288 
L 627.119126 -255.871079 
L 624.839643 -256.552869 
L 623.661406 -257.23466 
L 623.765053 -257.91645 
L 625.316818 -258.598241 
L 628.393706 -259.280032 
L 632.930476 -259.961822 
L 638.708796 -260.643613 
L 645.388027 -261.325403 
L 652.562818 -262.007194 
L 659.830749 -262.688985 
L 666.857251 -263.370775 
L 673.426359 -264.052566 
L 679.463817 -264.734357 
L 685.021363 -265.416147 
L 690.223236 -266.097938 
L 695.193574 -266.779728 
L 699.994338 -267.461519 
L 704.598825 -268.14331 
L 708.90784 -268.8251 
L 712.795244 -269.506891 
L 716.158417 -270.188681 
L 718.951627 -270.870472 
L 721.192515 -271.552263 
L 722.945806 -272.234053 
L 724.296909 -272.915844 
L 725.328604 -273.597635 
L 726.10843 -274.279425 
L 726.687115 -274.961216 
L 727.103449 -275.643006 
L 727.390071 -276.324797 
L 727.576737 -277.006588 
L 727.690553 -277.688378 
L 727.754499 -278.370169 
L 727.785824 -279.05196 
L 727.795182 -279.73375 
L 727.78657 -280.415541 
L 727.75784 -281.097331 
L 727.701823 -281.779122 
L 727.608505 -282.460913 
L 727.468825 -283.142703 
L 727.27998 -283.824494 
L 727.050907 -284.506284 
L 726.805333 -285.188075 
L 726.579699 -285.869866 
L 726.414929 -286.551656 
L 726.344094 -287.233447 
L 726.380691 -287.915238 
L 726.512678 -288.597028 
L 726.704947 -289.278819 
L 726.908977 -289.960609 
L 727.075558 -290.6424 
L 727.166149 -291.324191 
L 727.160415 -292.005981 
L 727.05963 -292.687772 
L 726.886477 -293.369562 
L 726.681192 -294.051353 
L 726.493545 -294.733144 
L 726.371142 -295.414934 
L 726.346819 -296.096725 
L 726.429634 -296.778516 
L 726.603379 -297.460306 
L 726.833419 -298.142097 
L 727.078762 -298.823887 
L 727.304137 -299.505678 
L 727.487557 -300.187469 
L 727.621752 -300.869259 
L 728.02106 -300.869259 
L 728.02106 -300.869259 
L 728.155256 -300.187469 
L 728.338676 -299.505678 
L 728.56405 -298.823887 
L 728.809394 -298.142097 
L 729.039434 -297.460306 
L 729.213179 -296.778516 
L 729.295993 -296.096725 
L 729.27167 -295.414934 
L 729.149268 -294.733144 
L 728.96162 -294.051353 
L 728.756336 -293.369562 
L 728.583183 -292.687772 
L 728.482397 -292.005981 
L 728.476663 -291.324191 
L 728.567255 -290.6424 
L 728.733835 -289.960609 
L 728.937866 -289.278819 
L 729.130134 -288.597028 
L 729.262122 -287.915238 
L 729.298719 -287.233447 
L 729.227883 -286.551656 
L 729.063113 -285.869866 
L 728.837479 -285.188075 
L 728.591906 -284.506284 
L 728.362832 -283.824494 
L 728.173988 -283.142703 
L 728.034307 -282.460913 
L 727.94099 -281.779122 
L 727.884972 -281.097331 
L 727.856243 -280.415541 
L 727.847631 -279.73375 
L 727.856989 -279.05196 
L 727.888313 -278.370169 
L 727.952259 -277.688378 
L 728.066075 -277.006588 
L 728.252741 -276.324797 
L 728.539363 -275.643006 
L 728.955698 -274.961216 
L 729.534382 -274.279425 
L 730.314209 -273.597635 
L 731.345904 -272.915844 
L 732.697007 -272.234053 
L 734.450297 -271.552263 
L 736.691185 -270.870472 
L 739.484395 -270.188681 
L 742.847569 -269.506891 
L 746.734973 -268.8251 
L 751.043987 -268.14331 
L 755.648474 -267.461519 
L 760.449238 -266.779728 
L 765.419577 -266.097938 
L 770.621449 -265.416147 
L 776.178995 -264.734357 
L 782.216453 -264.052566 
L 788.785561 -263.370775 
L 795.812063 -262.688985 
L 803.079994 -262.007194 
L 810.254786 -261.325403 
L 816.934016 -260.643613 
L 822.712336 -259.961822 
L 827.249106 -259.280032 
L 830.325995 -258.598241 
L 831.87776 -257.91645 
L 831.981406 -257.23466 
L 830.803169 -256.552869 
L 828.523686 -255.871079 
L 825.274605 -255.189288 
L 821.114214 -254.507497 
L 816.048841 -253.825707 
L 810.084799 -253.143916 
L 803.285063 -252.462125 
L 795.807713 -251.780335 
L 787.913657 -251.098544 
L 779.942427 -250.416754 
L 772.264111 -249.734963 
L 765.221571 -249.053172 
L 759.078578 -248.371382 
L 753.985423 -247.689591 
L 749.966353 -247.007801 
L 746.927389 -246.32601 
L 744.681194 -245.644219 
L 742.985923 -244.962429 
L 741.593355 -244.280638 
L 740.297289 -243.598847 
L 738.969412 -242.917057 
L 737.571347 -242.235266 
L 736.139553 -241.553476 
L 734.750457 -240.871685 
L 733.480883 -240.189894 
L 732.379158 -239.508104 
L 731.455513 -238.826313 
L 730.690554 -238.144523 
L 730.052934 -237.462732 
L 729.515527 -236.780941 
L 729.063126 -236.099151 
L 728.690969 -235.41736 
L 728.398172 -234.735569 
L 728.181355 -234.053779 
L 728.031759 -233.371988 
z
" id="m1dec8f7eb0" style="stroke:#4c4c4c;stroke-width:1.5;"/>
    </defs>
    <g clip-path="url(#p42bd45ca0c)">
     <use style="fill:#2080df;stroke:#4c4c4c;stroke-width:1.5;" x="0" xlink:href="#m1dec8f7eb0" y="505.672187"/>
    </g>
   </g>
   <g id="matplotlib.axis_1">
    <g id="xtick_1">
     <g id="line2d_1">
      <defs>
       <path d="M 0 0 
L 0 3.5 
" id="mdb8e0408ab" style="stroke:#000000;stroke-width:0.8;"/>
      </defs>
      <g>
       <use style="stroke:#000000;stroke-width:0.8;" x="207.021406" xlink:href="#mdb8e0408ab" y="463.276875"/>
      </g>
     </g>
     <g id="text_1">
      <!-- $\mu$Merge -->
      <defs>
       <path d="M -1.3125 -20.796875 
L 13.375 54.6875 
L 22.40625 54.6875 
L 15.765625 20.65625 
Q 15.578125 19.625 15.421875 18.359375 
Q 15.28125 17.09375 15.28125 15.828125 
Q 15.28125 11.28125 18.140625 8.828125 
Q 21 6.390625 26.3125 6.390625 
Q 33.546875 6.390625 37.984375 10.484375 
Q 42.4375 14.59375 44 22.796875 
L 50.203125 54.6875 
L 59.1875 54.6875 
L 51.03125 12.640625 
Q 50.828125 11.71875 50.75 11.03125 
Q 50.6875 10.359375 50.6875 9.8125 
Q 50.6875 8.296875 51.296875 7.59375 
Q 51.90625 6.890625 53.21875 6.890625 
Q 53.71875 6.890625 54.5625 7.125 
Q 55.421875 7.375 56.984375 8.015625 
L 55.609375 0.78125 
Q 53.46875 -0.296875 51.515625 -0.859375 
Q 49.5625 -1.421875 47.703125 -1.421875 
Q 44.484375 -1.421875 42.65625 0.625 
Q 40.828125 2.6875 40.828125 6.296875 
Q 38.09375 2.390625 34.296875 0.484375 
Q 30.515625 -1.421875 25.390625 -1.421875 
Q 20.84375 -1.421875 17.453125 0.671875 
Q 14.0625 2.78125 12.984375 6.203125 
L 7.71875 -20.796875 
z
" id="DejaVuSans-Oblique-3bc"/>
       <path d="M 9.8125 72.90625 
L 24.515625 72.90625 
L 43.109375 23.296875 
L 61.8125 72.90625 
L 76.515625 72.90625 
L 76.515625 0 
L 66.890625 0 
L 66.890625 64.015625 
L 48.09375 14.015625 
L 38.1875 14.015625 
L 19.390625 64.015625 
L 19.390625 0 
L 9.8125 0 
z
" id="DejaVuSans-4d"/>
       <path d="M 56.203125 29.59375 
L 56.203125 25.203125 
L 14.890625 25.203125 
Q 15.484375 15.921875 20.484375 11.0625 
Q 25.484375 6.203125 34.421875 6.203125 
Q 39.59375 6.203125 44.453125 7.46875 
Q 49.3125 8.734375 54.109375 11.28125 
L 54.109375 2.78125 
Q 49.265625 0.734375 44.1875 -0.34375 
Q 39.109375 -1.421875 33.890625 -1.421875 
Q 20.796875 -1.421875 13.15625 6.1875 
Q 5.515625 13.8125 5.515625 26.8125 
Q 5.515625 40.234375 12.765625 48.109375 
Q 20.015625 56 32.328125 56 
Q 43.359375 56 49.78125 48.890625 
Q 56.203125 41.796875 56.203125 29.59375 
z
M 47.21875 32.234375 
Q 47.125 39.59375 43.09375 43.984375 
Q 39.0625 48.390625 32.421875 48.390625 
Q 24.90625 48.390625 20.390625 44.140625 
Q 15.875 39.890625 15.1875 32.171875 
z
" id="DejaVuSans-65"/>
       <path d="M 41.109375 46.296875 
Q 39.59375 47.171875 37.8125 47.578125 
Q 36.03125 48 33.890625 48 
Q 26.265625 48 22.1875 43.046875 
Q 18.109375 38.09375 18.109375 28.8125 
L 18.109375 0 
L 9.078125 0 
L 9.078125 54.6875 
L 18.109375 54.6875 
L 18.109375 46.1875 
Q 20.953125 51.171875 25.484375 53.578125 
Q 30.03125 56 36.53125 56 
Q 37.453125 56 38.578125 55.875 
Q 39.703125 55.765625 41.0625 55.515625 
z
" id="DejaVuSans-72"/>
       <path d="M 45.40625 27.984375 
Q 45.40625 37.75 41.375 43.109375 
Q 37.359375 48.484375 30.078125 48.484375 
Q 22.859375 48.484375 18.828125 43.109375 
Q 14.796875 37.75 14.796875 27.984375 
Q 14.796875 18.265625 18.828125 12.890625 
Q 22.859375 7.515625 30.078125 7.515625 
Q 37.359375 7.515625 41.375 12.890625 
Q 45.40625 18.265625 45.40625 27.984375 
z
M 54.390625 6.78125 
Q 54.390625 -7.171875 48.1875 -13.984375 
Q 42 -20.796875 29.203125 -20.796875 
Q 24.46875 -20.796875 20.265625 -20.09375 
Q 16.0625 -19.390625 12.109375 -17.921875 
L 12.109375 -9.1875 
Q 16.0625 -11.328125 19.921875 -12.34375 
Q 23.78125 -13.375 27.78125 -13.375 
Q 36.625 -13.375 41.015625 -8.765625 
Q 45.40625 -4.15625 45.40625 5.171875 
L 45.40625 9.625 
Q 42.625 4.78125 38.28125 2.390625 
Q 33.9375 0 27.875 0 
Q 17.828125 0 11.671875 7.65625 
Q 5.515625 15.328125 5.515625 27.984375 
Q 5.515625 40.671875 11.671875 48.328125 
Q 17.828125 56 27.875 56 
Q 33.9375 56 38.28125 53.609375 
Q 42.625 51.21875 45.40625 46.390625 
L 45.40625 54.6875 
L 54.390625 54.6875 
z
" id="DejaVuSans-67"/>
      </defs>
      <g transform="translate(178.671406 481.644062)scale(0.15 -0.15)">
       <use transform="translate(0 0.09375)" xlink:href="#DejaVuSans-Oblique-3bc"/>
       <use transform="translate(63.623047 0.09375)" xlink:href="#DejaVuSans-4d"/>
       <use transform="translate(149.902344 0.09375)" xlink:href="#DejaVuSans-65"/>
       <use transform="translate(211.425781 0.09375)" xlink:href="#DejaVuSans-72"/>
       <use transform="translate(252.539062 0.09375)" xlink:href="#DejaVuSans-67"/>
       <use transform="translate(316.015625 0.09375)" xlink:href="#DejaVuSans-65"/>
      </g>
     </g>
    </g>
    <g id="xtick_2">
     <g id="line2d_2">
      <g>
       <use style="stroke:#000000;stroke-width:0.8;" x="467.421406" xlink:href="#mdb8e0408ab" y="463.276875"/>
      </g>
     </g>
     <g id="text_2">
      <!-- Bedtools Merge -->
      <defs>
       <path d="M 19.671875 34.8125 
L 19.671875 8.109375 
L 35.5 8.109375 
Q 43.453125 8.109375 47.28125 11.40625 
Q 51.125 14.703125 51.125 21.484375 
Q 51.125 28.328125 47.28125 31.5625 
Q 43.453125 34.8125 35.5 34.8125 
z
M 19.671875 64.796875 
L 19.671875 42.828125 
L 34.28125 42.828125 
Q 41.5 42.828125 45.03125 45.53125 
Q 48.578125 48.25 48.578125 53.8125 
Q 48.578125 59.328125 45.03125 62.0625 
Q 41.5 64.796875 34.28125 64.796875 
z
M 9.8125 72.90625 
L 35.015625 72.90625 
Q 46.296875 72.90625 52.390625 68.21875 
Q 58.5 63.53125 58.5 54.890625 
Q 58.5 48.1875 55.375 44.234375 
Q 52.25 40.28125 46.1875 39.3125 
Q 53.46875 37.75 57.5 32.78125 
Q 61.53125 27.828125 61.53125 20.40625 
Q 61.53125 10.640625 54.890625 5.3125 
Q 48.25 0 35.984375 0 
L 9.8125 0 
z
" id="DejaVuSans-42"/>
       <path d="M 45.40625 46.390625 
L 45.40625 75.984375 
L 54.390625 75.984375 
L 54.390625 0 
L 45.40625 0 
L 45.40625 8.203125 
Q 42.578125 3.328125 38.25 0.953125 
Q 33.9375 -1.421875 27.875 -1.421875 
Q 17.96875 -1.421875 11.734375 6.484375 
Q 5.515625 14.40625 5.515625 27.296875 
Q 5.515625 40.1875 11.734375 48.09375 
Q 17.96875 56 27.875 56 
Q 33.9375 56 38.25 53.625 
Q 42.578125 51.265625 45.40625 46.390625 
z
M 14.796875 27.296875 
Q 14.796875 17.390625 18.875 11.75 
Q 22.953125 6.109375 30.078125 6.109375 
Q 37.203125 6.109375 41.296875 11.75 
Q 45.40625 17.390625 45.40625 27.296875 
Q 45.40625 37.203125 41.296875 42.84375 
Q 37.203125 48.484375 30.078125 48.484375 
Q 22.953125 48.484375 18.875 42.84375 
Q 14.796875 37.203125 14.796875 27.296875 
z
" id="DejaVuSans-64"/>
       <path d="M 18.3125 70.21875 
L 18.3125 54.6875 
L 36.8125 54.6875 
L 36.8125 47.703125 
L 18.3125 47.703125 
L 18.3125 18.015625 
Q 18.3125 11.328125 20.140625 9.421875 
Q 21.96875 7.515625 27.59375 7.515625 
L 36.8125 7.515625 
L 36.8125 0 
L 27.59375 0 
Q 17.1875 0 13.234375 3.875 
Q 9.28125 7.765625 9.28125 18.015625 
L 9.28125 47.703125 
L 2.6875 47.703125 
L 2.6875 54.6875 
L 9.28125 54.6875 
L 9.28125 70.21875 
z
" id="DejaVuSans-74"/>
       <path d="M 30.609375 48.390625 
Q 23.390625 48.390625 19.1875 42.75 
Q 14.984375 37.109375 14.984375 27.296875 
Q 14.984375 17.484375 19.15625 11.84375 
Q 23.34375 6.203125 30.609375 6.203125 
Q 37.796875 6.203125 41.984375 11.859375 
Q 46.1875 17.53125 46.1875 27.296875 
Q 46.1875 37.015625 41.984375 42.703125 
Q 37.796875 48.390625 30.609375 48.390625 
z
M 30.609375 56 
Q 42.328125 56 49.015625 48.375 
Q 55.71875 40.765625 55.71875 27.296875 
Q 55.71875 13.875 49.015625 6.21875 
Q 42.328125 -1.421875 30.609375 -1.421875 
Q 18.84375 -1.421875 12.171875 6.21875 
Q 5.515625 13.875 5.515625 27.296875 
Q 5.515625 40.765625 12.171875 48.375 
Q 18.84375 56 30.609375 56 
z
" id="DejaVuSans-6f"/>
       <path d="M 9.421875 75.984375 
L 18.40625 75.984375 
L 18.40625 0 
L 9.421875 0 
z
" id="DejaVuSans-6c"/>
       <path d="M 44.28125 53.078125 
L 44.28125 44.578125 
Q 40.484375 46.53125 36.375 47.5 
Q 32.28125 48.484375 27.875 48.484375 
Q 21.1875 48.484375 17.84375 46.4375 
Q 14.5 44.390625 14.5 40.28125 
Q 14.5 37.15625 16.890625 35.375 
Q 19.28125 33.59375 26.515625 31.984375 
L 29.59375 31.296875 
Q 39.15625 29.25 43.1875 25.515625 
Q 47.21875 21.78125 47.21875 15.09375 
Q 47.21875 7.46875 41.1875 3.015625 
Q 35.15625 -1.421875 24.609375 -1.421875 
Q 20.21875 -1.421875 15.453125 -0.5625 
Q 10.6875 0.296875 5.421875 2 
L 5.421875 11.28125 
Q 10.40625 8.6875 15.234375 7.390625 
Q 20.0625 6.109375 24.8125 6.109375 
Q 31.15625 6.109375 34.5625 8.28125 
Q 37.984375 10.453125 37.984375 14.40625 
Q 37.984375 18.0625 35.515625 20.015625 
Q 33.0625 21.96875 24.703125 23.78125 
L 21.578125 24.515625 
Q 13.234375 26.265625 9.515625 29.90625 
Q 5.8125 33.546875 5.8125 39.890625 
Q 5.8125 47.609375 11.28125 51.796875 
Q 16.75 56 26.8125 56 
Q 31.78125 56 36.171875 55.265625 
Q 40.578125 54.546875 44.28125 53.078125 
z
" id="DejaVuSans-73"/>
       <path id="DejaVuSans-20"/>
      </defs>
      <g transform="translate(408.862813 481.674531)scale(0.15 -0.15)">
       <use xlink:href="#DejaVuSans-42"/>
       <use x="68.603516" xlink:href="#DejaVuSans-65"/>
       <use x="130.126953" xlink:href="#DejaVuSans-64"/>
       <use x="193.603516" xlink:href="#DejaVuSans-74"/>
       <use x="232.8125" xlink:href="#DejaVuSans-6f"/>
       <use x="293.994141" xlink:href="#DejaVuSans-6f"/>
       <use x="355.175781" xlink:href="#DejaVuSans-6c"/>
       <use x="382.958984" xlink:href="#DejaVuSans-73"/>
       <use x="435.058594" xlink:href="#DejaVuSans-20"/>
       <use x="466.845703" xlink:href="#DejaVuSans-4d"/>
       <use x="553.125" xlink:href="#DejaVuSans-65"/>
       <use x="614.648438" xlink:href="#DejaVuSans-72"/>
       <use x="655.746094" xlink:href="#DejaVuSans-67"/>
       <use x="719.222656" xlink:href="#DejaVuSans-65"/>
      </g>
     </g>
    </g>
    <g id="xtick_3">
     <g id="line2d_3">
      <g>
       <use style="stroke:#000000;stroke-width:0.8;" x="727.821406" xlink:href="#mdb8e0408ab" y="463.276875"/>
      </g>
     </g>
     <g id="text_3">
      <!-- Bedtools Intersect -->
      <defs>
       <path d="M 9.8125 72.90625 
L 19.671875 72.90625 
L 19.671875 0 
L 9.8125 0 
z
" id="DejaVuSans-49"/>
       <path d="M 54.890625 33.015625 
L 54.890625 0 
L 45.90625 0 
L 45.90625 32.71875 
Q 45.90625 40.484375 42.875 44.328125 
Q 39.84375 48.1875 33.796875 48.1875 
Q 26.515625 48.1875 22.3125 43.546875 
Q 18.109375 38.921875 18.109375 30.90625 
L 18.109375 0 
L 9.078125 0 
L 9.078125 54.6875 
L 18.109375 54.6875 
L 18.109375 46.1875 
Q 21.34375 51.125 25.703125 53.5625 
Q 30.078125 56 35.796875 56 
Q 45.21875 56 50.046875 50.171875 
Q 54.890625 44.34375 54.890625 33.015625 
z
" id="DejaVuSans-6e"/>
       <path d="M 48.78125 52.59375 
L 48.78125 44.1875 
Q 44.96875 46.296875 41.140625 47.34375 
Q 37.3125 48.390625 33.40625 48.390625 
Q 24.65625 48.390625 19.8125 42.84375 
Q 14.984375 37.3125 14.984375 27.296875 
Q 14.984375 17.28125 19.8125 11.734375 
Q 24.65625 6.203125 33.40625 6.203125 
Q 37.3125 6.203125 41.140625 7.25 
Q 44.96875 8.296875 48.78125 10.40625 
L 48.78125 2.09375 
Q 45.015625 0.34375 40.984375 -0.53125 
Q 36.96875 -1.421875 32.421875 -1.421875 
Q 20.0625 -1.421875 12.78125 6.34375 
Q 5.515625 14.109375 5.515625 27.296875 
Q 5.515625 40.671875 12.859375 48.328125 
Q 20.21875 56 33.015625 56 
Q 37.15625 56 41.109375 55.140625 
Q 45.0625 54.296875 48.78125 52.59375 
z
" id="DejaVuSans-63"/>
      </defs>
      <g transform="translate(659.617109 481.674531)scale(0.15 -0.15)">
       <use xlink:href="#DejaVuSans-42"/>
       <use x="68.603516" xlink:href="#DejaVuSans-65"/>
       <use x="130.126953" xlink:href="#DejaVuSans-64"/>
       <use x="193.603516" xlink:href="#DejaVuSans-74"/>
       <use x="232.8125" xlink:href="#DejaVuSans-6f"/>
       <use x="293.994141" xlink:href="#DejaVuSans-6f"/>
       <use x="355.175781" xlink:href="#DejaVuSans-6c"/>
       <use x="382.958984" xlink:href="#DejaVuSans-73"/>
       <use x="435.058594" xlink:href="#DejaVuSans-20"/>
       <use x="466.845703" xlink:href="#DejaVuSans-49"/>
       <use x="496.337891" xlink:href="#DejaVuSans-6e"/>
       <use x="559.716797" xlink:href="#DejaVuSans-74"/>
       <use x="598.925781" xlink:href="#DejaVuSans-65"/>
       <use x="660.449219" xlink:href="#DejaVuSans-72"/>
       <use x="701.5625" xlink:href="#DejaVuSans-73"/>
       <use x="753.662109" xlink:href="#DejaVuSans-65"/>
       <use x="815.185547" xlink:href="#DejaVuSans-63"/>
       <use x="870.166016" xlink:href="#DejaVuSans-74"/>
      </g>
     </g>
    </g>
    <g id="text_4">
     <!--   -->
     <g transform="translate(465.832344 496.3925)scale(0.1 -0.1)">
      <use xlink:href="#DejaVuSans-20"/>
     </g>
    </g>
   </g>
   <g id="matplotlib.axis_2">
    <g id="ytick_1">
     <g id="line2d_4">
      <defs>
       <path d="M 0 0 
L -3.5 0 
" id="m9f1f76a890" style="stroke:#000000;stroke-width:0.8;"/>
      </defs>
      <g>
       <use style="stroke:#000000;stroke-width:0.8;" x="76.821406" xlink:href="#m9f1f76a890" y="446.182933"/>
      </g>
     </g>
     <g id="text_5">
      <!-- −600 -->
      <defs>
       <path d="M 10.59375 35.5 
L 73.1875 35.5 
L 73.1875 27.203125 
L 10.59375 27.203125 
z
" id="DejaVuSans-2212"/>
       <path d="M 33.015625 40.375 
Q 26.375 40.375 22.484375 35.828125 
Q 18.609375 31.296875 18.609375 23.390625 
Q 18.609375 15.53125 22.484375 10.953125 
Q 26.375 6.390625 33.015625 6.390625 
Q 39.65625 6.390625 43.53125 10.953125 
Q 47.40625 15.53125 47.40625 23.390625 
Q 47.40625 31.296875 43.53125 35.828125 
Q 39.65625 40.375 33.015625 40.375 
z
M 52.59375 71.296875 
L 52.59375 62.3125 
Q 48.875 64.0625 45.09375 64.984375 
Q 41.3125 65.921875 37.59375 65.921875 
Q 27.828125 65.921875 22.671875 59.328125 
Q 17.53125 52.734375 16.796875 39.40625 
Q 19.671875 43.65625 24.015625 45.921875 
Q 28.375 48.1875 33.59375 48.1875 
Q 44.578125 48.1875 50.953125 41.515625 
Q 57.328125 34.859375 57.328125 23.390625 
Q 57.328125 12.15625 50.6875 5.359375 
Q 44.046875 -1.421875 33.015625 -1.421875 
Q 20.359375 -1.421875 13.671875 8.265625 
Q 6.984375 17.96875 6.984375 36.375 
Q 6.984375 53.65625 15.1875 63.9375 
Q 23.390625 74.21875 37.203125 74.21875 
Q 40.921875 74.21875 44.703125 73.484375 
Q 48.484375 72.75 52.59375 71.296875 
z
" id="DejaVuSans-36"/>
       <path d="M 31.78125 66.40625 
Q 24.171875 66.40625 20.328125 58.90625 
Q 16.5 51.421875 16.5 36.375 
Q 16.5 21.390625 20.328125 13.890625 
Q 24.171875 6.390625 31.78125 6.390625 
Q 39.453125 6.390625 43.28125 13.890625 
Q 47.125 21.390625 47.125 36.375 
Q 47.125 51.421875 43.28125 58.90625 
Q 39.453125 66.40625 31.78125 66.40625 
z
M 31.78125 74.21875 
Q 44.046875 74.21875 50.515625 64.515625 
Q 56.984375 54.828125 56.984375 36.375 
Q 56.984375 17.96875 50.515625 8.265625 
Q 44.046875 -1.421875 31.78125 -1.421875 
Q 19.53125 -1.421875 13.0625 8.265625 
Q 6.59375 17.96875 6.59375 36.375 
Q 6.59375 54.828125 13.0625 64.515625 
Q 19.53125 74.21875 31.78125 74.21875 
z
" id="DejaVuSans-30"/>
      </defs>
      <g transform="translate(28.620625 451.881762)scale(0.15 -0.15)">
       <use xlink:href="#DejaVuSans-2212"/>
       <use x="83.789062" xlink:href="#DejaVuSans-36"/>
       <use x="147.412109" xlink:href="#DejaVuSans-30"/>
       <use x="211.035156" xlink:href="#DejaVuSans-30"/>
      </g>
     </g>
    </g>
    <g id="ytick_2">
     <g id="line2d_5">
      <g>
       <use style="stroke:#000000;stroke-width:0.8;" x="76.821406" xlink:href="#m9f1f76a890" y="379.952831"/>
      </g>
     </g>
     <g id="text_6">
      <!-- −400 -->
      <defs>
       <path d="M 37.796875 64.3125 
L 12.890625 25.390625 
L 37.796875 25.390625 
z
M 35.203125 72.90625 
L 47.609375 72.90625 
L 47.609375 25.390625 
L 58.015625 25.390625 
L 58.015625 17.1875 
L 47.609375 17.1875 
L 47.609375 0 
L 37.796875 0 
L 37.796875 17.1875 
L 4.890625 17.1875 
L 4.890625 26.703125 
z
" id="DejaVuSans-34"/>
      </defs>
      <g transform="translate(28.620625 385.65166)scale(0.15 -0.15)">
       <use xlink:href="#DejaVuSans-2212"/>
       <use x="83.789062" xlink:href="#DejaVuSans-34"/>
       <use x="147.412109" xlink:href="#DejaVuSans-30"/>
       <use x="211.035156" xlink:href="#DejaVuSans-30"/>
      </g>
     </g>
    </g>
    <g id="ytick_3">
     <g id="line2d_6">
      <g>
       <use style="stroke:#000000;stroke-width:0.8;" x="76.821406" xlink:href="#m9f1f76a890" y="313.722729"/>
      </g>
     </g>
     <g id="text_7">
      <!-- −200 -->
      <defs>
       <path d="M 19.1875 8.296875 
L 53.609375 8.296875 
L 53.609375 0 
L 7.328125 0 
L 7.328125 8.296875 
Q 12.9375 14.109375 22.625 23.890625 
Q 32.328125 33.6875 34.8125 36.53125 
Q 39.546875 41.84375 41.421875 45.53125 
Q 43.3125 49.21875 43.3125 52.78125 
Q 43.3125 58.59375 39.234375 62.25 
Q 35.15625 65.921875 28.609375 65.921875 
Q 23.96875 65.921875 18.8125 64.3125 
Q 13.671875 62.703125 7.8125 59.421875 
L 7.8125 69.390625 
Q 13.765625 71.78125 18.9375 73 
Q 24.125 74.21875 28.421875 74.21875 
Q 39.75 74.21875 46.484375 68.546875 
Q 53.21875 62.890625 53.21875 53.421875 
Q 53.21875 48.921875 51.53125 44.890625 
Q 49.859375 40.875 45.40625 35.40625 
Q 44.1875 33.984375 37.640625 27.21875 
Q 31.109375 20.453125 19.1875 8.296875 
z
" id="DejaVuSans-32"/>
      </defs>
      <g transform="translate(28.620625 319.421558)scale(0.15 -0.15)">
       <use xlink:href="#DejaVuSans-2212"/>
       <use x="83.789062" xlink:href="#DejaVuSans-32"/>
       <use x="147.412109" xlink:href="#DejaVuSans-30"/>
       <use x="211.035156" xlink:href="#DejaVuSans-30"/>
      </g>
     </g>
    </g>
    <g id="ytick_4">
     <g id="line2d_7">
      <g>
       <use style="stroke:#000000;stroke-width:0.8;" x="76.821406" xlink:href="#m9f1f76a890" y="247.492628"/>
      </g>
     </g>
     <g id="text_8">
      <!-- 0 -->
      <g transform="translate(60.277656 253.191456)scale(0.15 -0.15)">
       <use xlink:href="#DejaVuSans-30"/>
      </g>
     </g>
    </g>
    <g id="ytick_5">
     <g id="line2d_8">
      <g>
       <use style="stroke:#000000;stroke-width:0.8;" x="76.821406" xlink:href="#m9f1f76a890" y="181.262526"/>
      </g>
     </g>
     <g id="text_9">
      <!-- 200 -->
      <g transform="translate(41.190156 186.961354)scale(0.15 -0.15)">
       <use xlink:href="#DejaVuSans-32"/>
       <use x="63.623047" xlink:href="#DejaVuSans-30"/>
       <use x="127.246094" xlink:href="#DejaVuSans-30"/>
      </g>
     </g>
    </g>
    <g id="ytick_6">
     <g id="line2d_9">
      <g>
       <use style="stroke:#000000;stroke-width:0.8;" x="76.821406" xlink:href="#m9f1f76a890" y="115.032424"/>
      </g>
     </g>
     <g id="text_10">
      <!-- 400 -->
      <g transform="translate(41.190156 120.731252)scale(0.15 -0.15)">
       <use xlink:href="#DejaVuSans-34"/>
       <use x="63.623047" xlink:href="#DejaVuSans-30"/>
       <use x="127.246094" xlink:href="#DejaVuSans-30"/>
      </g>
     </g>
    </g>
    <g id="ytick_7">
     <g id="line2d_10">
      <g>
       <use style="stroke:#000000;stroke-width:0.8;" x="76.821406" xlink:href="#m9f1f76a890" y="48.802322"/>
      </g>
     </g>
     <g id="text_11">
      <!-- 600 -->
      <g transform="translate(41.190156 54.50115)scale(0.15 -0.15)">
       <use xlink:href="#DejaVuSans-36"/>
       <use x="63.623047" xlink:href="#DejaVuSans-30"/>
       <use x="127.246094" xlink:href="#DejaVuSans-30"/>
      </g>
     </g>
    </g>
    <g id="text_12">
     <!-- TF Motif to Region Center Distance (bp) -->
     <defs>
      <path d="M -0.296875 72.90625 
L 61.375 72.90625 
L 61.375 64.59375 
L 35.5 64.59375 
L 35.5 0 
L 25.59375 0 
L 25.59375 64.59375 
L -0.296875 64.59375 
z
" id="DejaVuSans-54"/>
      <path d="M 9.8125 72.90625 
L 51.703125 72.90625 
L 51.703125 64.59375 
L 19.671875 64.59375 
L 19.671875 43.109375 
L 48.578125 43.109375 
L 48.578125 34.8125 
L 19.671875 34.8125 
L 19.671875 0 
L 9.8125 0 
z
" id="DejaVuSans-46"/>
      <path d="M 9.421875 54.6875 
L 18.40625 54.6875 
L 18.40625 0 
L 9.421875 0 
z
M 9.421875 75.984375 
L 18.40625 75.984375 
L 18.40625 64.59375 
L 9.421875 64.59375 
z
" id="DejaVuSans-69"/>
      <path d="M 37.109375 75.984375 
L 37.109375 68.5 
L 28.515625 68.5 
Q 23.6875 68.5 21.796875 66.546875 
Q 19.921875 64.59375 19.921875 59.515625 
L 19.921875 54.6875 
L 34.71875 54.6875 
L 34.71875 47.703125 
L 19.921875 47.703125 
L 19.921875 0 
L 10.890625 0 
L 10.890625 47.703125 
L 2.296875 47.703125 
L 2.296875 54.6875 
L 10.890625 54.6875 
L 10.890625 58.5 
Q 10.890625 67.625 15.140625 71.796875 
Q 19.390625 75.984375 28.609375 75.984375 
z
" id="DejaVuSans-66"/>
      <path d="M 44.390625 34.1875 
Q 47.5625 33.109375 50.5625 29.59375 
Q 53.5625 26.078125 56.59375 19.921875 
L 66.609375 0 
L 56 0 
L 46.6875 18.703125 
Q 43.0625 26.03125 39.671875 28.421875 
Q 36.28125 30.8125 30.421875 30.8125 
L 19.671875 30.8125 
L 19.671875 0 
L 9.8125 0 
L 9.8125 72.90625 
L 32.078125 72.90625 
Q 44.578125 72.90625 50.734375 67.671875 
Q 56.890625 62.453125 56.890625 51.90625 
Q 56.890625 45.015625 53.6875 40.46875 
Q 50.484375 35.9375 44.390625 34.1875 
z
M 19.671875 64.796875 
L 19.671875 38.921875 
L 32.078125 38.921875 
Q 39.203125 38.921875 42.84375 42.21875 
Q 46.484375 45.515625 46.484375 51.90625 
Q 46.484375 58.296875 42.84375 61.546875 
Q 39.203125 64.796875 32.078125 64.796875 
z
" id="DejaVuSans-52"/>
      <path d="M 64.40625 67.28125 
L 64.40625 56.890625 
Q 59.421875 61.53125 53.78125 63.8125 
Q 48.140625 66.109375 41.796875 66.109375 
Q 29.296875 66.109375 22.65625 58.46875 
Q 16.015625 50.828125 16.015625 36.375 
Q 16.015625 21.96875 22.65625 14.328125 
Q 29.296875 6.6875 41.796875 6.6875 
Q 48.140625 6.6875 53.78125 8.984375 
Q 59.421875 11.28125 64.40625 15.921875 
L 64.40625 5.609375 
Q 59.234375 2.09375 53.4375 0.328125 
Q 47.65625 -1.421875 41.21875 -1.421875 
Q 24.65625 -1.421875 15.125 8.703125 
Q 5.609375 18.84375 5.609375 36.375 
Q 5.609375 53.953125 15.125 64.078125 
Q 24.65625 74.21875 41.21875 74.21875 
Q 47.75 74.21875 53.53125 72.484375 
Q 59.328125 70.75 64.40625 67.28125 
z
" id="DejaVuSans-43"/>
      <path d="M 19.671875 64.796875 
L 19.671875 8.109375 
L 31.59375 8.109375 
Q 46.6875 8.109375 53.6875 14.9375 
Q 60.6875 21.78125 60.6875 36.53125 
Q 60.6875 51.171875 53.6875 57.984375 
Q 46.6875 64.796875 31.59375 64.796875 
z
M 9.8125 72.90625 
L 30.078125 72.90625 
Q 51.265625 72.90625 61.171875 64.09375 
Q 71.09375 55.28125 71.09375 36.53125 
Q 71.09375 17.671875 61.125 8.828125 
Q 51.171875 0 30.078125 0 
L 9.8125 0 
z
" id="DejaVuSans-44"/>
      <path d="M 34.28125 27.484375 
Q 23.390625 27.484375 19.1875 25 
Q 14.984375 22.515625 14.984375 16.5 
Q 14.984375 11.71875 18.140625 8.90625 
Q 21.296875 6.109375 26.703125 6.109375 
Q 34.1875 6.109375 38.703125 11.40625 
Q 43.21875 16.703125 43.21875 25.484375 
L 43.21875 27.484375 
z
M 52.203125 31.203125 
L 52.203125 0 
L 43.21875 0 
L 43.21875 8.296875 
Q 40.140625 3.328125 35.546875 0.953125 
Q 30.953125 -1.421875 24.3125 -1.421875 
Q 15.921875 -1.421875 10.953125 3.296875 
Q 6 8.015625 6 15.921875 
Q 6 25.140625 12.171875 29.828125 
Q 18.359375 34.515625 30.609375 34.515625 
L 43.21875 34.515625 
L 43.21875 35.40625 
Q 43.21875 41.609375 39.140625 45 
Q 35.0625 48.390625 27.6875 48.390625 
Q 23 48.390625 18.546875 47.265625 
Q 14.109375 46.140625 10.015625 43.890625 
L 10.015625 52.203125 
Q 14.9375 54.109375 19.578125 55.046875 
Q 24.21875 56 28.609375 56 
Q 40.484375 56 46.34375 49.84375 
Q 52.203125 43.703125 52.203125 31.203125 
z
" id="DejaVuSans-61"/>
      <path d="M 31 75.875 
Q 24.46875 64.65625 21.28125 53.65625 
Q 18.109375 42.671875 18.109375 31.390625 
Q 18.109375 20.125 21.3125 9.0625 
Q 24.515625 -2 31 -13.1875 
L 23.1875 -13.1875 
Q 15.875 -1.703125 12.234375 9.375 
Q 8.59375 20.453125 8.59375 31.390625 
Q 8.59375 42.28125 12.203125 53.3125 
Q 15.828125 64.359375 23.1875 75.875 
z
" id="DejaVuSans-28"/>
      <path d="M 48.6875 27.296875 
Q 48.6875 37.203125 44.609375 42.84375 
Q 40.53125 48.484375 33.40625 48.484375 
Q 26.265625 48.484375 22.1875 42.84375 
Q 18.109375 37.203125 18.109375 27.296875 
Q 18.109375 17.390625 22.1875 11.75 
Q 26.265625 6.109375 33.40625 6.109375 
Q 40.53125 6.109375 44.609375 11.75 
Q 48.6875 17.390625 48.6875 27.296875 
z
M 18.109375 46.390625 
Q 20.953125 51.265625 25.265625 53.625 
Q 29.59375 56 35.59375 56 
Q 45.5625 56 51.78125 48.09375 
Q 58.015625 40.1875 58.015625 27.296875 
Q 58.015625 14.40625 51.78125 6.484375 
Q 45.5625 -1.421875 35.59375 -1.421875 
Q 29.59375 -1.421875 25.265625 0.953125 
Q 20.953125 3.328125 18.109375 8.203125 
L 18.109375 0 
L 9.078125 0 
L 9.078125 75.984375 
L 18.109375 75.984375 
z
" id="DejaVuSans-62"/>
      <path d="M 18.109375 8.203125 
L 18.109375 -20.796875 
L 9.078125 -20.796875 
L 9.078125 54.6875 
L 18.109375 54.6875 
L 18.109375 46.390625 
Q 20.953125 51.265625 25.265625 53.625 
Q 29.59375 56 35.59375 56 
Q 45.5625 56 51.78125 48.09375 
Q 58.015625 40.1875 58.015625 27.296875 
Q 58.015625 14.40625 51.78125 6.484375 
Q 45.5625 -1.421875 35.59375 -1.421875 
Q 29.59375 -1.421875 25.265625 0.953125 
Q 20.953125 3.328125 18.109375 8.203125 
z
M 48.6875 27.296875 
Q 48.6875 37.203125 44.609375 42.84375 
Q 40.53125 48.484375 33.40625 48.484375 
Q 26.265625 48.484375 22.1875 42.84375 
Q 18.109375 37.203125 18.109375 27.296875 
Q 18.109375 17.390625 22.1875 11.75 
Q 26.265625 6.109375 33.40625 6.109375 
Q 40.53125 6.109375 44.609375 11.75 
Q 48.6875 17.390625 48.6875 27.296875 
z
" id="DejaVuSans-70"/>
      <path d="M 8.015625 75.875 
L 15.828125 75.875 
Q 23.140625 64.359375 26.78125 53.3125 
Q 30.421875 42.28125 30.421875 31.390625 
Q 30.421875 20.453125 26.78125 9.375 
Q 23.140625 -1.703125 15.828125 -13.1875 
L 8.015625 -13.1875 
Q 14.5 -2 17.703125 9.0625 
Q 20.90625 20.125 20.90625 31.390625 
Q 20.90625 42.671875 17.703125 53.65625 
Q 14.5 64.65625 8.015625 75.875 
z
" id="DejaVuSans-29"/>
     </defs>
     <g transform="translate(20.877188 424.48125)rotate(-90)scale(0.18 -0.18)">
      <use xlink:href="#DejaVuSans-54"/>
      <use x="61.083984" xlink:href="#DejaVuSans-46"/>
      <use x="118.603516" xlink:href="#DejaVuSans-20"/>
      <use x="150.390625" xlink:href="#DejaVuSans-4d"/>
      <use x="236.669922" xlink:href="#DejaVuSans-6f"/>
      <use x="297.851562" xlink:href="#DejaVuSans-74"/>
      <use x="337.060547" xlink:href="#DejaVuSans-69"/>
      <use x="364.84375" xlink:href="#DejaVuSans-66"/>
      <use x="400.048828" xlink:href="#DejaVuSans-20"/>
      <use x="431.835938" xlink:href="#DejaVuSans-74"/>
      <use x="471.044922" xlink:href="#DejaVuSans-6f"/>
      <use x="532.226562" xlink:href="#DejaVuSans-20"/>
      <use x="564.013672" xlink:href="#DejaVuSans-52"/>
      <use x="633.433594" xlink:href="#DejaVuSans-65"/>
      <use x="694.957031" xlink:href="#DejaVuSans-67"/>
      <use x="758.433594" xlink:href="#DejaVuSans-69"/>
      <use x="786.216797" xlink:href="#DejaVuSans-6f"/>
      <use x="847.398438" xlink:href="#DejaVuSans-6e"/>
      <use x="910.777344" xlink:href="#DejaVuSans-20"/>
      <use x="942.564453" xlink:href="#DejaVuSans-43"/>
      <use x="1012.388672" xlink:href="#DejaVuSans-65"/>
      <use x="1073.912109" xlink:href="#DejaVuSans-6e"/>
      <use x="1137.291016" xlink:href="#DejaVuSans-74"/>
      <use x="1176.5" xlink:href="#DejaVuSans-65"/>
      <use x="1238.023438" xlink:href="#DejaVuSans-72"/>
      <use x="1279.136719" xlink:href="#DejaVuSans-20"/>
      <use x="1310.923828" xlink:href="#DejaVuSans-44"/>
      <use x="1387.925781" xlink:href="#DejaVuSans-69"/>
      <use x="1415.708984" xlink:href="#DejaVuSans-73"/>
      <use x="1467.808594" xlink:href="#DejaVuSans-74"/>
      <use x="1507.017578" xlink:href="#DejaVuSans-61"/>
      <use x="1568.296875" xlink:href="#DejaVuSans-6e"/>
      <use x="1631.675781" xlink:href="#DejaVuSans-63"/>
      <use x="1686.65625" xlink:href="#DejaVuSans-65"/>
      <use x="1748.179688" xlink:href="#DejaVuSans-20"/>
      <use x="1779.966797" xlink:href="#DejaVuSans-28"/>
      <use x="1818.980469" xlink:href="#DejaVuSans-62"/>
      <use x="1882.457031" xlink:href="#DejaVuSans-70"/>
      <use x="1945.933594" xlink:href="#DejaVuSans-29"/>
     </g>
    </g>
   </g>
   <g id="line2d_11">
    <path clip-path="url(#p42bd45ca0c)" d="M 207.021406 264.381304 
L 207.021406 231.597403 
" style="fill:none;stroke:#4c4c4c;stroke-linecap:square;stroke-width:1.5;"/>
   </g>
   <g id="line2d_12">
    <path clip-path="url(#p42bd45ca0c)" d="M 207.021406 252.128735 
L 207.021406 243.849972 
" style="fill:none;stroke:#4c4c4c;stroke-linecap:square;stroke-width:4.5;"/>
   </g>
   <g id="line2d_13">
    <path clip-path="url(#p42bd45ca0c)" d="M 467.421406 274.315819 
L 467.421406 221.331737 
" style="fill:none;stroke:#4c4c4c;stroke-linecap:square;stroke-width:1.5;"/>
   </g>
   <g id="line2d_14">
    <path clip-path="url(#p42bd45ca0c)" d="M 467.421406 254.446788 
L 467.421406 241.200768 
" style="fill:none;stroke:#4c4c4c;stroke-linecap:square;stroke-width:4.5;"/>
   </g>
   <g id="line2d_15">
    <path clip-path="url(#p42bd45ca0c)" d="M 727.821406 262.725551 
L 727.821406 233.584306 
" style="fill:none;stroke:#4c4c4c;stroke-linecap:square;stroke-width:1.5;"/>
   </g>
   <g id="line2d_16">
    <path clip-path="url(#p42bd45ca0c)" d="M 727.821406 252.128735 
L 727.821406 244.512273 
" style="fill:none;stroke:#4c4c4c;stroke-linecap:square;stroke-width:4.5;"/>
   </g>
   <g id="patch_3">
    <path d="M 76.821406 463.276875 
L 76.821406 28.396875 
" style="fill:none;stroke:#000000;stroke-linecap:square;stroke-linejoin:miter;stroke-width:0.8;"/>
   </g>
   <g id="patch_4">
    <path d="M 76.821406 463.276875 
L 858.021406 463.276875 
" style="fill:none;stroke:#000000;stroke-linecap:square;stroke-linejoin:miter;stroke-width:0.8;"/>
   </g>
   <g id="PathCollection_1">
    <defs>
     <path d="M 0 1.5 
C 0.397805 1.5 0.77937 1.341951 1.06066 1.06066 
C 1.341951 0.77937 1.5 0.397805 1.5 0 
C 1.5 -0.397805 1.341951 -0.77937 1.06066 -1.06066 
C 0.77937 -1.341951 0.397805 -1.5 0 -1.5 
C -0.397805 -1.5 -0.77937 -1.341951 -1.06066 -1.06066 
C -1.341951 -0.77937 -1.5 -0.397805 -1.5 0 
C -1.5 0.397805 -1.341951 0.77937 -1.06066 1.06066 
C -0.77937 1.341951 -0.397805 1.5 0 1.5 
z
" id="md56467d755" style="stroke:#4c4c4c;"/>
    </defs>
    <g clip-path="url(#p42bd45ca0c)">
     <use style="fill:#ffffff;stroke:#4c4c4c;" x="207.021406" xlink:href="#md56467d755" y="247.823778"/>
    </g>
   </g>
   <g id="PathCollection_2">
    <g clip-path="url(#p42bd45ca0c)">
     <use style="fill:#ffffff;stroke:#4c4c4c;" x="467.421406" xlink:href="#md56467d755" y="247.823778"/>
    </g>
   </g>
   <g id="PathCollection_3">
    <g clip-path="url(#p42bd45ca0c)">
     <use style="fill:#ffffff;stroke:#4c4c4c;" x="727.821406" xlink:href="#md56467d755" y="248.154929"/>
    </g>
   </g>
   <g id="text_13">
    <!-- N = 4457 -->
    <defs>
     <path d="M 9.8125 72.90625 
L 23.09375 72.90625 
L 55.421875 11.921875 
L 55.421875 72.90625 
L 64.984375 72.90625 
L 64.984375 0 
L 51.703125 0 
L 19.390625 60.984375 
L 19.390625 0 
L 9.8125 0 
z
" id="DejaVuSans-4e"/>
     <path d="M 10.59375 45.40625 
L 73.1875 45.40625 
L 73.1875 37.203125 
L 10.59375 37.203125 
z
M 10.59375 25.484375 
L 73.1875 25.484375 
L 73.1875 17.1875 
L 10.59375 17.1875 
z
" id="DejaVuSans-3d"/>
     <path d="M 10.796875 72.90625 
L 49.515625 72.90625 
L 49.515625 64.59375 
L 19.828125 64.59375 
L 19.828125 46.734375 
Q 21.96875 47.46875 24.109375 47.828125 
Q 26.265625 48.1875 28.421875 48.1875 
Q 40.625 48.1875 47.75 41.5 
Q 54.890625 34.8125 54.890625 23.390625 
Q 54.890625 11.625 47.5625 5.09375 
Q 40.234375 -1.421875 26.90625 -1.421875 
Q 22.3125 -1.421875 17.546875 -0.640625 
Q 12.796875 0.140625 7.71875 1.703125 
L 7.71875 11.625 
Q 12.109375 9.234375 16.796875 8.0625 
Q 21.484375 6.890625 26.703125 6.890625 
Q 35.15625 6.890625 40.078125 11.328125 
Q 45.015625 15.765625 45.015625 23.390625 
Q 45.015625 31 40.078125 35.4375 
Q 35.15625 39.890625 26.703125 39.890625 
Q 22.75 39.890625 18.8125 39.015625 
Q 14.890625 38.140625 10.796875 36.28125 
z
" id="DejaVuSans-35"/>
     <path d="M 8.203125 72.90625 
L 55.078125 72.90625 
L 55.078125 68.703125 
L 28.609375 0 
L 18.3125 0 
L 43.21875 64.59375 
L 8.203125 64.59375 
z
" id="DejaVuSans-37"/>
    </defs>
    <g style="fill:#373333;" transform="translate(220.041406 334.14338)scale(0.14 -0.14)">
     <use xlink:href="#DejaVuSans-4e"/>
     <use x="74.804688" xlink:href="#DejaVuSans-20"/>
     <use x="106.591797" xlink:href="#DejaVuSans-3d"/>
     <use x="190.380859" xlink:href="#DejaVuSans-20"/>
     <use x="222.167969" xlink:href="#DejaVuSans-34"/>
     <use x="285.791016" xlink:href="#DejaVuSans-34"/>
     <use x="349.414062" xlink:href="#DejaVuSans-35"/>
     <use x="413.037109" xlink:href="#DejaVuSans-37"/>
    </g>
   </g>
   <g id="text_14">
    <!-- std = 28.329 -->
    <defs>
     <path d="M 31.78125 34.625 
Q 24.75 34.625 20.71875 30.859375 
Q 16.703125 27.09375 16.703125 20.515625 
Q 16.703125 13.921875 20.71875 10.15625 
Q 24.75 6.390625 31.78125 6.390625 
Q 38.8125 6.390625 42.859375 10.171875 
Q 46.921875 13.96875 46.921875 20.515625 
Q 46.921875 27.09375 42.890625 30.859375 
Q 38.875 34.625 31.78125 34.625 
z
M 21.921875 38.8125 
Q 15.578125 40.375 12.03125 44.71875 
Q 8.5 49.078125 8.5 55.328125 
Q 8.5 64.0625 14.71875 69.140625 
Q 20.953125 74.21875 31.78125 74.21875 
Q 42.671875 74.21875 48.875 69.140625 
Q 55.078125 64.0625 55.078125 55.328125 
Q 55.078125 49.078125 51.53125 44.71875 
Q 48 40.375 41.703125 38.8125 
Q 48.828125 37.15625 52.796875 32.3125 
Q 56.78125 27.484375 56.78125 20.515625 
Q 56.78125 9.90625 50.3125 4.234375 
Q 43.84375 -1.421875 31.78125 -1.421875 
Q 19.734375 -1.421875 13.25 4.234375 
Q 6.78125 9.90625 6.78125 20.515625 
Q 6.78125 27.484375 10.78125 32.3125 
Q 14.796875 37.15625 21.921875 38.8125 
z
M 18.3125 54.390625 
Q 18.3125 48.734375 21.84375 45.5625 
Q 25.390625 42.390625 31.78125 42.390625 
Q 38.140625 42.390625 41.71875 45.5625 
Q 45.3125 48.734375 45.3125 54.390625 
Q 45.3125 60.0625 41.71875 63.234375 
Q 38.140625 66.40625 31.78125 66.40625 
Q 25.390625 66.40625 21.84375 63.234375 
Q 18.3125 60.0625 18.3125 54.390625 
z
" id="DejaVuSans-38"/>
     <path d="M 10.6875 12.40625 
L 21 12.40625 
L 21 0 
L 10.6875 0 
z
" id="DejaVuSans-2e"/>
     <path d="M 40.578125 39.3125 
Q 47.65625 37.796875 51.625 33 
Q 55.609375 28.21875 55.609375 21.1875 
Q 55.609375 10.40625 48.1875 4.484375 
Q 40.765625 -1.421875 27.09375 -1.421875 
Q 22.515625 -1.421875 17.65625 -0.515625 
Q 12.796875 0.390625 7.625 2.203125 
L 7.625 11.71875 
Q 11.71875 9.328125 16.59375 8.109375 
Q 21.484375 6.890625 26.8125 6.890625 
Q 36.078125 6.890625 40.9375 10.546875 
Q 45.796875 14.203125 45.796875 21.1875 
Q 45.796875 27.640625 41.28125 31.265625 
Q 36.765625 34.90625 28.71875 34.90625 
L 20.21875 34.90625 
L 20.21875 43.015625 
L 29.109375 43.015625 
Q 36.375 43.015625 40.234375 45.921875 
Q 44.09375 48.828125 44.09375 54.296875 
Q 44.09375 59.90625 40.109375 62.90625 
Q 36.140625 65.921875 28.71875 65.921875 
Q 24.65625 65.921875 20.015625 65.03125 
Q 15.375 64.15625 9.8125 62.3125 
L 9.8125 71.09375 
Q 15.4375 72.65625 20.34375 73.4375 
Q 25.25 74.21875 29.59375 74.21875 
Q 40.828125 74.21875 47.359375 69.109375 
Q 53.90625 64.015625 53.90625 55.328125 
Q 53.90625 49.265625 50.4375 45.09375 
Q 46.96875 40.921875 40.578125 39.3125 
z
" id="DejaVuSans-33"/>
     <path d="M 10.984375 1.515625 
L 10.984375 10.5 
Q 14.703125 8.734375 18.5 7.8125 
Q 22.3125 6.890625 25.984375 6.890625 
Q 35.75 6.890625 40.890625 13.453125 
Q 46.046875 20.015625 46.78125 33.40625 
Q 43.953125 29.203125 39.59375 26.953125 
Q 35.25 24.703125 29.984375 24.703125 
Q 19.046875 24.703125 12.671875 31.3125 
Q 6.296875 37.9375 6.296875 49.421875 
Q 6.296875 60.640625 12.9375 67.421875 
Q 19.578125 74.21875 30.609375 74.21875 
Q 43.265625 74.21875 49.921875 64.515625 
Q 56.59375 54.828125 56.59375 36.375 
Q 56.59375 19.140625 48.40625 8.859375 
Q 40.234375 -1.421875 26.421875 -1.421875 
Q 22.703125 -1.421875 18.890625 -0.6875 
Q 15.09375 0.046875 10.984375 1.515625 
z
M 30.609375 32.421875 
Q 37.25 32.421875 41.125 36.953125 
Q 45.015625 41.5 45.015625 49.421875 
Q 45.015625 57.28125 41.125 61.84375 
Q 37.25 66.40625 30.609375 66.40625 
Q 23.96875 66.40625 20.09375 61.84375 
Q 16.21875 57.28125 16.21875 49.421875 
Q 16.21875 41.5 20.09375 36.953125 
Q 23.96875 32.421875 30.609375 32.421875 
z
" id="DejaVuSans-39"/>
    </defs>
    <g style="fill:#373333;" transform="translate(220.041406 350.700905)scale(0.14 -0.14)">
     <use xlink:href="#DejaVuSans-73"/>
     <use x="52.099609" xlink:href="#DejaVuSans-74"/>
     <use x="91.308594" xlink:href="#DejaVuSans-64"/>
     <use x="154.785156" xlink:href="#DejaVuSans-20"/>
     <use x="186.572266" xlink:href="#DejaVuSans-3d"/>
     <use x="270.361328" xlink:href="#DejaVuSans-20"/>
     <use x="302.148438" xlink:href="#DejaVuSans-32"/>
     <use x="365.771484" xlink:href="#DejaVuSans-38"/>
     <use x="429.394531" xlink:href="#DejaVuSans-2e"/>
     <use x="461.181641" xlink:href="#DejaVuSans-33"/>
     <use x="524.804688" xlink:href="#DejaVuSans-32"/>
     <use x="588.427734" xlink:href="#DejaVuSans-39"/>
    </g>
   </g>
   <g id="text_15">
    <!-- mean = -1.227 -->
    <defs>
     <path d="M 52 44.1875 
Q 55.375 50.25 60.0625 53.125 
Q 64.75 56 71.09375 56 
Q 79.640625 56 84.28125 50.015625 
Q 88.921875 44.046875 88.921875 33.015625 
L 88.921875 0 
L 79.890625 0 
L 79.890625 32.71875 
Q 79.890625 40.578125 77.09375 44.375 
Q 74.3125 48.1875 68.609375 48.1875 
Q 61.625 48.1875 57.5625 43.546875 
Q 53.515625 38.921875 53.515625 30.90625 
L 53.515625 0 
L 44.484375 0 
L 44.484375 32.71875 
Q 44.484375 40.625 41.703125 44.40625 
Q 38.921875 48.1875 33.109375 48.1875 
Q 26.21875 48.1875 22.15625 43.53125 
Q 18.109375 38.875 18.109375 30.90625 
L 18.109375 0 
L 9.078125 0 
L 9.078125 54.6875 
L 18.109375 54.6875 
L 18.109375 46.1875 
Q 21.1875 51.21875 25.484375 53.609375 
Q 29.78125 56 35.6875 56 
Q 41.65625 56 45.828125 52.96875 
Q 50 49.953125 52 44.1875 
z
" id="DejaVuSans-6d"/>
     <path d="M 4.890625 31.390625 
L 31.203125 31.390625 
L 31.203125 23.390625 
L 4.890625 23.390625 
z
" id="DejaVuSans-2d"/>
     <path d="M 12.40625 8.296875 
L 28.515625 8.296875 
L 28.515625 63.921875 
L 10.984375 60.40625 
L 10.984375 69.390625 
L 28.421875 72.90625 
L 38.28125 72.90625 
L 38.28125 8.296875 
L 54.390625 8.296875 
L 54.390625 0 
L 12.40625 0 
z
" id="DejaVuSans-31"/>
    </defs>
    <g style="fill:#373333;" transform="translate(220.041406 367.258431)scale(0.14 -0.14)">
     <use xlink:href="#DejaVuSans-6d"/>
     <use x="97.412109" xlink:href="#DejaVuSans-65"/>
     <use x="158.935547" xlink:href="#DejaVuSans-61"/>
     <use x="220.214844" xlink:href="#DejaVuSans-6e"/>
     <use x="283.59375" xlink:href="#DejaVuSans-20"/>
     <use x="315.380859" xlink:href="#DejaVuSans-3d"/>
     <use x="399.169922" xlink:href="#DejaVuSans-20"/>
     <use x="430.957031" xlink:href="#DejaVuSans-2d"/>
     <use x="467.041016" xlink:href="#DejaVuSans-31"/>
     <use x="530.664062" xlink:href="#DejaVuSans-2e"/>
     <use x="562.451172" xlink:href="#DejaVuSans-32"/>
     <use x="626.074219" xlink:href="#DejaVuSans-32"/>
     <use x="689.697266" xlink:href="#DejaVuSans-37"/>
    </g>
   </g>
   <g id="text_16">
    <!-- median = -1.0 -->
    <g style="fill:#373333;" transform="translate(220.041406 383.815956)scale(0.14 -0.14)">
     <use xlink:href="#DejaVuSans-6d"/>
     <use x="97.412109" xlink:href="#DejaVuSans-65"/>
     <use x="158.935547" xlink:href="#DejaVuSans-64"/>
     <use x="222.412109" xlink:href="#DejaVuSans-69"/>
     <use x="250.195312" xlink:href="#DejaVuSans-61"/>
     <use x="311.474609" xlink:href="#DejaVuSans-6e"/>
     <use x="374.853516" xlink:href="#DejaVuSans-20"/>
     <use x="406.640625" xlink:href="#DejaVuSans-3d"/>
     <use x="490.429688" xlink:href="#DejaVuSans-20"/>
     <use x="522.216797" xlink:href="#DejaVuSans-2d"/>
     <use x="558.300781" xlink:href="#DejaVuSans-31"/>
     <use x="621.923828" xlink:href="#DejaVuSans-2e"/>
     <use x="653.710938" xlink:href="#DejaVuSans-30"/>
    </g>
   </g>
   <g id="text_17">
    <!-- N = 4455 -->
    <g style="fill:#373333;" transform="translate(480.441406 334.14338)scale(0.14 -0.14)">
     <use xlink:href="#DejaVuSans-4e"/>
     <use x="74.804688" xlink:href="#DejaVuSans-20"/>
     <use x="106.591797" xlink:href="#DejaVuSans-3d"/>
     <use x="190.380859" xlink:href="#DejaVuSans-20"/>
     <use x="222.167969" xlink:href="#DejaVuSans-34"/>
     <use x="285.791016" xlink:href="#DejaVuSans-34"/>
     <use x="349.414062" xlink:href="#DejaVuSans-35"/>
     <use x="413.037109" xlink:href="#DejaVuSans-35"/>
    </g>
   </g>
   <g id="text_18">
    <!-- std = 56.157 -->
    <g style="fill:#373333;" transform="translate(480.441406 350.700905)scale(0.14 -0.14)">
     <use xlink:href="#DejaVuSans-73"/>
     <use x="52.099609" xlink:href="#DejaVuSans-74"/>
     <use x="91.308594" xlink:href="#DejaVuSans-64"/>
     <use x="154.785156" xlink:href="#DejaVuSans-20"/>
     <use x="186.572266" xlink:href="#DejaVuSans-3d"/>
     <use x="270.361328" xlink:href="#DejaVuSans-20"/>
     <use x="302.148438" xlink:href="#DejaVuSans-35"/>
     <use x="365.771484" xlink:href="#DejaVuSans-36"/>
     <use x="429.394531" xlink:href="#DejaVuSans-2e"/>
     <use x="461.181641" xlink:href="#DejaVuSans-31"/>
     <use x="524.804688" xlink:href="#DejaVuSans-35"/>
     <use x="588.427734" xlink:href="#DejaVuSans-37"/>
    </g>
   </g>
   <g id="text_19">
    <!-- mean = -0.374 -->
    <g style="fill:#373333;" transform="translate(480.441406 367.258431)scale(0.14 -0.14)">
     <use xlink:href="#DejaVuSans-6d"/>
     <use x="97.412109" xlink:href="#DejaVuSans-65"/>
     <use x="158.935547" xlink:href="#DejaVuSans-61"/>
     <use x="220.214844" xlink:href="#DejaVuSans-6e"/>
     <use x="283.59375" xlink:href="#DejaVuSans-20"/>
     <use x="315.380859" xlink:href="#DejaVuSans-3d"/>
     <use x="399.169922" xlink:href="#DejaVuSans-20"/>
     <use x="430.957031" xlink:href="#DejaVuSans-2d"/>
     <use x="467.041016" xlink:href="#DejaVuSans-30"/>
     <use x="530.664062" xlink:href="#DejaVuSans-2e"/>
     <use x="562.451172" xlink:href="#DejaVuSans-33"/>
     <use x="626.074219" xlink:href="#DejaVuSans-37"/>
     <use x="689.697266" xlink:href="#DejaVuSans-34"/>
    </g>
   </g>
   <g id="text_20">
    <!-- median = -1.0 -->
    <g style="fill:#373333;" transform="translate(480.441406 383.815956)scale(0.14 -0.14)">
     <use xlink:href="#DejaVuSans-6d"/>
     <use x="97.412109" xlink:href="#DejaVuSans-65"/>
     <use x="158.935547" xlink:href="#DejaVuSans-64"/>
     <use x="222.412109" xlink:href="#DejaVuSans-69"/>
     <use x="250.195312" xlink:href="#DejaVuSans-61"/>
     <use x="311.474609" xlink:href="#DejaVuSans-6e"/>
     <use x="374.853516" xlink:href="#DejaVuSans-20"/>
     <use x="406.640625" xlink:href="#DejaVuSans-3d"/>
     <use x="490.429688" xlink:href="#DejaVuSans-20"/>
     <use x="522.216797" xlink:href="#DejaVuSans-2d"/>
     <use x="558.300781" xlink:href="#DejaVuSans-31"/>
     <use x="621.923828" xlink:href="#DejaVuSans-2e"/>
     <use x="653.710938" xlink:href="#DejaVuSans-30"/>
    </g>
   </g>
   <g id="text_21">
    <!-- N = 177 -->
    <g style="fill:#373333;" transform="translate(740.841406 334.14338)scale(0.14 -0.14)">
     <use xlink:href="#DejaVuSans-4e"/>
     <use x="74.804688" xlink:href="#DejaVuSans-20"/>
     <use x="106.591797" xlink:href="#DejaVuSans-3d"/>
     <use x="190.380859" xlink:href="#DejaVuSans-20"/>
     <use x="222.167969" xlink:href="#DejaVuSans-31"/>
     <use x="285.791016" xlink:href="#DejaVuSans-37"/>
     <use x="349.414062" xlink:href="#DejaVuSans-37"/>
    </g>
   </g>
   <g id="text_22">
    <!-- std = 20.937 -->
    <g style="fill:#373333;" transform="translate(740.841406 350.700905)scale(0.14 -0.14)">
     <use xlink:href="#DejaVuSans-73"/>
     <use x="52.099609" xlink:href="#DejaVuSans-74"/>
     <use x="91.308594" xlink:href="#DejaVuSans-64"/>
     <use x="154.785156" xlink:href="#DejaVuSans-20"/>
     <use x="186.572266" xlink:href="#DejaVuSans-3d"/>
     <use x="270.361328" xlink:href="#DejaVuSans-20"/>
     <use x="302.148438" xlink:href="#DejaVuSans-32"/>
     <use x="365.771484" xlink:href="#DejaVuSans-30"/>
     <use x="429.394531" xlink:href="#DejaVuSans-2e"/>
     <use x="461.181641" xlink:href="#DejaVuSans-39"/>
     <use x="524.804688" xlink:href="#DejaVuSans-33"/>
     <use x="588.427734" xlink:href="#DejaVuSans-37"/>
    </g>
   </g>
   <g id="text_23">
    <!-- mean = -2.169 -->
    <g style="fill:#373333;" transform="translate(740.841406 367.258431)scale(0.14 -0.14)">
     <use xlink:href="#DejaVuSans-6d"/>
     <use x="97.412109" xlink:href="#DejaVuSans-65"/>
     <use x="158.935547" xlink:href="#DejaVuSans-61"/>
     <use x="220.214844" xlink:href="#DejaVuSans-6e"/>
     <use x="283.59375" xlink:href="#DejaVuSans-20"/>
     <use x="315.380859" xlink:href="#DejaVuSans-3d"/>
     <use x="399.169922" xlink:href="#DejaVuSans-20"/>
     <use x="430.957031" xlink:href="#DejaVuSans-2d"/>
     <use x="467.041016" xlink:href="#DejaVuSans-32"/>
     <use x="530.664062" xlink:href="#DejaVuSans-2e"/>
     <use x="562.451172" xlink:href="#DejaVuSans-31"/>
     <use x="626.074219" xlink:href="#DejaVuSans-36"/>
     <use x="689.697266" xlink:href="#DejaVuSans-39"/>
    </g>
   </g>
   <g id="text_24">
    <!-- median = -2.0 -->
    <g style="fill:#373333;" transform="translate(740.841406 383.815956)scale(0.14 -0.14)">
     <use xlink:href="#DejaVuSans-6d"/>
     <use x="97.412109" xlink:href="#DejaVuSans-65"/>
     <use x="158.935547" xlink:href="#DejaVuSans-64"/>
     <use x="222.412109" xlink:href="#DejaVuSans-69"/>
     <use x="250.195312" xlink:href="#DejaVuSans-61"/>
     <use x="311.474609" xlink:href="#DejaVuSans-6e"/>
     <use x="374.853516" xlink:href="#DejaVuSans-20"/>
     <use x="406.640625" xlink:href="#DejaVuSans-3d"/>
     <use x="490.429688" xlink:href="#DejaVuSans-20"/>
     <use x="522.216797" xlink:href="#DejaVuSans-2d"/>
     <use x="558.300781" xlink:href="#DejaVuSans-32"/>
     <use x="621.923828" xlink:href="#DejaVuSans-2e"/>
     <use x="653.710938" xlink:href="#DejaVuSans-30"/>
    </g>
   </g>
   <g id="text_25">
    <!-- p53 ChIP-seq -->
    <defs>
     <path d="M 25.875 7.90625 
L 25.875 -20.796875 
L 8.40625 -20.796875 
L 8.40625 54.6875 
L 25.875 54.6875 
L 25.875 46.6875 
Q 29.5 51.46875 33.890625 53.734375 
Q 38.28125 56 44 56 
Q 54.109375 56 60.59375 47.96875 
Q 67.09375 39.9375 67.09375 27.296875 
Q 67.09375 14.65625 60.59375 6.609375 
Q 54.109375 -1.421875 44 -1.421875 
Q 38.28125 -1.421875 33.890625 0.84375 
Q 29.5 3.125 25.875 7.90625 
z
M 37.5 43.3125 
Q 31.890625 43.3125 28.875 39.1875 
Q 25.875 35.0625 25.875 27.296875 
Q 25.875 19.53125 28.875 15.40625 
Q 31.890625 11.28125 37.5 11.28125 
Q 43.109375 11.28125 46.0625 15.375 
Q 49.03125 19.484375 49.03125 27.296875 
Q 49.03125 35.109375 46.0625 39.203125 
Q 43.109375 43.3125 37.5 43.3125 
z
" id="DejaVuSans-Bold-70"/>
     <path d="M 10.59375 72.90625 
L 57.328125 72.90625 
L 57.328125 59.078125 
L 25.59375 59.078125 
L 25.59375 47.796875 
Q 27.734375 48.390625 29.90625 48.703125 
Q 32.078125 49.03125 34.421875 49.03125 
Q 47.75 49.03125 55.171875 42.359375 
Q 62.59375 35.6875 62.59375 23.78125 
Q 62.59375 11.96875 54.515625 5.265625 
Q 46.4375 -1.421875 32.078125 -1.421875 
Q 25.875 -1.421875 19.796875 -0.21875 
Q 13.71875 0.984375 7.71875 3.421875 
L 7.71875 18.21875 
Q 13.671875 14.796875 19.015625 13.078125 
Q 24.359375 11.375 29.109375 11.375 
Q 35.9375 11.375 39.859375 14.71875 
Q 43.796875 18.0625 43.796875 23.78125 
Q 43.796875 29.546875 39.859375 32.859375 
Q 35.9375 36.1875 29.109375 36.1875 
Q 25.046875 36.1875 20.453125 35.125 
Q 15.875 34.078125 10.59375 31.890625 
z
" id="DejaVuSans-Bold-35"/>
     <path d="M 46.578125 39.3125 
Q 53.953125 37.40625 57.78125 32.6875 
Q 61.625 27.984375 61.625 20.703125 
Q 61.625 9.859375 53.3125 4.21875 
Q 45.015625 -1.421875 29.109375 -1.421875 
Q 23.484375 -1.421875 17.84375 -0.515625 
Q 12.203125 0.390625 6.6875 2.203125 
L 6.6875 16.703125 
Q 11.96875 14.0625 17.15625 12.71875 
Q 22.359375 11.375 27.390625 11.375 
Q 34.859375 11.375 38.84375 13.953125 
Q 42.828125 16.546875 42.828125 21.390625 
Q 42.828125 26.375 38.75 28.9375 
Q 34.671875 31.5 26.703125 31.5 
L 19.1875 31.5 
L 19.1875 43.609375 
L 27.09375 43.609375 
Q 34.1875 43.609375 37.640625 45.828125 
Q 41.109375 48.046875 41.109375 52.59375 
Q 41.109375 56.78125 37.734375 59.078125 
Q 34.375 61.375 28.21875 61.375 
Q 23.6875 61.375 19.046875 60.34375 
Q 14.40625 59.328125 9.8125 57.328125 
L 9.8125 71.09375 
Q 15.375 72.65625 20.84375 73.4375 
Q 26.3125 74.21875 31.59375 74.21875 
Q 45.796875 74.21875 52.84375 69.546875 
Q 59.90625 64.890625 59.90625 55.515625 
Q 59.90625 49.125 56.53125 45.046875 
Q 53.171875 40.96875 46.578125 39.3125 
z
" id="DejaVuSans-Bold-33"/>
     <path id="DejaVuSans-Bold-20"/>
     <path d="M 67 4 
Q 61.8125 1.3125 56.203125 -0.046875 
Q 50.59375 -1.421875 44.484375 -1.421875 
Q 26.265625 -1.421875 15.625 8.765625 
Q 4.984375 18.953125 4.984375 36.375 
Q 4.984375 53.859375 15.625 64.03125 
Q 26.265625 74.21875 44.484375 74.21875 
Q 50.59375 74.21875 56.203125 72.84375 
Q 61.8125 71.484375 67 68.796875 
L 67 53.71875 
Q 61.765625 57.28125 56.6875 58.9375 
Q 51.609375 60.59375 46 60.59375 
Q 35.9375 60.59375 30.171875 54.140625 
Q 24.421875 47.703125 24.421875 36.375 
Q 24.421875 25.09375 30.171875 18.640625 
Q 35.9375 12.203125 46 12.203125 
Q 51.609375 12.203125 56.6875 13.859375 
Q 61.765625 15.53125 67 19.09375 
z
" id="DejaVuSans-Bold-43"/>
     <path d="M 63.375 33.296875 
L 63.375 0 
L 45.796875 0 
L 45.796875 5.421875 
L 45.796875 25.390625 
Q 45.796875 32.5625 45.484375 35.25 
Q 45.171875 37.9375 44.390625 39.203125 
Q 43.359375 40.921875 41.59375 41.875 
Q 39.84375 42.828125 37.59375 42.828125 
Q 32.125 42.828125 29 38.59375 
Q 25.875 34.375 25.875 26.90625 
L 25.875 0 
L 8.40625 0 
L 8.40625 75.984375 
L 25.875 75.984375 
L 25.875 46.6875 
Q 29.828125 51.46875 34.265625 53.734375 
Q 38.71875 56 44.09375 56 
Q 53.5625 56 58.46875 50.1875 
Q 63.375 44.390625 63.375 33.296875 
z
" id="DejaVuSans-Bold-68"/>
     <path d="M 9.1875 72.90625 
L 27.984375 72.90625 
L 27.984375 0 
L 9.1875 0 
z
" id="DejaVuSans-Bold-49"/>
     <path d="M 9.1875 72.90625 
L 40.375 72.90625 
Q 54.296875 72.90625 61.734375 66.71875 
Q 69.1875 60.546875 69.1875 49.125 
Q 69.1875 37.640625 61.734375 31.46875 
Q 54.296875 25.296875 40.375 25.296875 
L 27.984375 25.296875 
L 27.984375 0 
L 9.1875 0 
z
M 27.984375 59.28125 
L 27.984375 38.921875 
L 38.375 38.921875 
Q 43.84375 38.921875 46.828125 41.578125 
Q 49.8125 44.234375 49.8125 49.125 
Q 49.8125 54 46.828125 56.640625 
Q 43.84375 59.28125 38.375 59.28125 
z
" id="DejaVuSans-Bold-50"/>
     <path d="M 5.421875 35.890625 
L 36.078125 35.890625 
L 36.078125 21.6875 
L 5.421875 21.6875 
z
" id="DejaVuSans-Bold-2d"/>
     <path d="M 51.125 52.984375 
L 51.125 39.703125 
Q 45.515625 42.046875 40.28125 43.21875 
Q 35.0625 44.390625 30.421875 44.390625 
Q 25.4375 44.390625 23.015625 43.140625 
Q 20.609375 41.890625 20.609375 39.3125 
Q 20.609375 37.203125 22.4375 36.078125 
Q 24.265625 34.96875 29 34.421875 
L 32.078125 33.984375 
Q 45.515625 32.28125 50.140625 28.375 
Q 54.78125 24.46875 54.78125 16.109375 
Q 54.78125 7.375 48.328125 2.96875 
Q 41.890625 -1.421875 29.109375 -1.421875 
Q 23.6875 -1.421875 17.890625 -0.5625 
Q 12.109375 0.296875 6 2 
L 6 15.28125 
Q 11.234375 12.75 16.71875 11.46875 
Q 22.21875 10.203125 27.875 10.203125 
Q 33.015625 10.203125 35.59375 11.609375 
Q 38.1875 13.03125 38.1875 15.828125 
Q 38.1875 18.171875 36.40625 19.3125 
Q 34.625 20.453125 29.296875 21.09375 
L 26.21875 21.484375 
Q 14.546875 22.953125 9.859375 26.90625 
Q 5.171875 30.859375 5.171875 38.921875 
Q 5.171875 47.609375 11.125 51.796875 
Q 17.09375 56 29.390625 56 
Q 34.234375 56 39.546875 55.265625 
Q 44.875 54.546875 51.125 52.984375 
z
" id="DejaVuSans-Bold-73"/>
     <path d="M 62.984375 27.484375 
L 62.984375 22.515625 
L 22.125 22.515625 
Q 22.75 16.359375 26.5625 13.28125 
Q 30.375 10.203125 37.203125 10.203125 
Q 42.71875 10.203125 48.5 11.84375 
Q 54.296875 13.484375 60.40625 16.796875 
L 60.40625 3.328125 
Q 54.203125 0.984375 48 -0.21875 
Q 41.796875 -1.421875 35.59375 -1.421875 
Q 20.75 -1.421875 12.515625 6.125 
Q 4.296875 13.671875 4.296875 27.296875 
Q 4.296875 40.671875 12.375 48.328125 
Q 20.453125 56 34.625 56 
Q 47.515625 56 55.25 48.234375 
Q 62.984375 40.484375 62.984375 27.484375 
z
M 45.015625 33.296875 
Q 45.015625 38.28125 42.109375 41.328125 
Q 39.203125 44.390625 34.515625 44.390625 
Q 29.4375 44.390625 26.265625 41.53125 
Q 23.09375 38.671875 22.3125 33.296875 
z
" id="DejaVuSans-Bold-65"/>
     <path d="M 34.078125 43.3125 
Q 28.515625 43.3125 25.5625 39.203125 
Q 22.609375 35.109375 22.609375 27.296875 
Q 22.609375 19.484375 25.5625 15.375 
Q 28.515625 11.28125 34.078125 11.28125 
Q 39.703125 11.28125 42.65625 15.375 
Q 45.609375 19.484375 45.609375 27.296875 
Q 45.609375 35.109375 42.65625 39.203125 
Q 39.703125 43.3125 34.078125 43.3125 
z
M 45.609375 7.90625 
Q 42 3.078125 37.640625 0.828125 
Q 33.296875 -1.421875 27.59375 -1.421875 
Q 17.484375 -1.421875 10.984375 6.609375 
Q 4.5 14.65625 4.5 27.296875 
Q 4.5 39.9375 10.984375 47.921875 
Q 17.484375 55.90625 27.59375 55.90625 
Q 33.296875 55.90625 37.640625 53.65625 
Q 42 51.421875 45.609375 46.578125 
L 45.609375 54.6875 
L 63.1875 54.6875 
L 63.1875 -20.796875 
L 45.609375 -20.796875 
z
" id="DejaVuSans-Bold-71"/>
    </defs>
    <g transform="translate(393.318281 22.396875)scale(0.2 -0.2)">
     <use xlink:href="#DejaVuSans-Bold-70"/>
     <use x="71.582031" xlink:href="#DejaVuSans-Bold-35"/>
     <use x="141.162109" xlink:href="#DejaVuSans-Bold-33"/>
     <use x="210.742188" xlink:href="#DejaVuSans-Bold-20"/>
     <use x="245.556641" xlink:href="#DejaVuSans-Bold-43"/>
     <use x="318.945312" xlink:href="#DejaVuSans-Bold-68"/>
     <use x="390.136719" xlink:href="#DejaVuSans-Bold-49"/>
     <use x="427.34375" xlink:href="#DejaVuSans-Bold-50"/>
     <use x="500.619141" xlink:href="#DejaVuSans-Bold-2d"/>
     <use x="542.123047" xlink:href="#DejaVuSans-Bold-73"/>
     <use x="601.644531" xlink:href="#DejaVuSans-Bold-65"/>
     <use x="669.466797" xlink:href="#DejaVuSans-Bold-71"/>
    </g>
   </g>
  </g>
 </g>
 <defs>
  <clipPath id="p42bd45ca0c">
   <rect height="434.88" width="781.2" x="76.821406" y="28.396875"/>
  </clipPath>
 </defs>
</svg>
