<?xml version="1.0" encoding="utf-8" standalone="no"?>
<!DOCTYPE svg PUBLIC "-//W3C//DTD SVG 1.1//EN"
  "http://www.w3.org/Graphics/SVG/1.1/DTD/svg11.dtd">
<!-- Created with matplotlib (http://matplotlib.org/) -->
<svg height="528pt" version="1.1" viewBox="0 0 1031 528" width="1031pt" xmlns="http://www.w3.org/2000/svg" xmlns:xlink="http://www.w3.org/1999/xlink">
 <defs>
  <style type="text/css">
*{stroke-linecap:butt;stroke-linejoin:round;}
  </style>
 </defs>
 <g id="figure_1">
  <g id="patch_1">
   <path d="M 0 528.224062 
L 1031.993656 528.224062 
L 1031.993656 0 
L 0 0 
z
" style="fill:#ffffff;"/>
  </g>
  <g id="axes_1">
   <g id="patch_2">
    <path d="M 86.365156 485.82875 
L 979.165156 485.82875 
L 979.165156 50.94875 
L 86.365156 50.94875 
z
" style="fill:#ffffff;"/>
   </g>
   <g id="PolyCollection_1">
    <defs>
     <path d="M 175.701451 -62.162585 
L 175.588862 -62.162585 
L 175.594289 -66.155974 
L 175.612149 -70.149362 
L 175.644042 -74.142751 
L 175.645155 -78.136139 
L 175.645155 -82.129527 
L 175.644312 -86.122916 
L 175.605655 -90.116304 
L 175.546827 -94.109693 
L 175.63046 -98.103081 
L 175.593057 -102.09647 
L 175.499725 -106.089858 
L 175.615457 -110.083246 
L 175.633166 -114.076635 
L 175.538427 -118.070023 
L 175.424756 -122.063412 
L 175.396076 -126.0568 
L 175.395981 -130.050189 
L 175.348235 -134.043577 
L 175.271802 -138.036965 
L 174.86341 -142.030354 
L 174.213659 -146.023742 
L 173.369532 -150.017131 
L 171.448434 -154.010519 
L 164.746411 -158.003908 
L 140.929718 -161.997296 
L 114.236321 -165.990684 
L 131.309852 -169.984073 
L 159.928096 -173.977461 
L 170.530201 -177.97085 
L 172.587348 -181.964238 
L 173.738736 -185.957627 
L 174.762322 -189.951015 
L 174.890155 -193.944403 
L 175.356815 -197.937792 
L 175.50358 -201.93118 
L 175.59836 -205.924569 
L 175.586149 -209.917957 
L 175.573046 -213.911346 
L 175.562774 -217.904734 
L 175.589948 -221.898122 
L 175.624473 -225.891511 
L 175.592434 -229.884899 
L 175.637304 -233.878288 
L 175.613884 -237.871676 
L 175.603708 -241.865065 
L 175.642864 -245.858453 
L 175.638264 -249.851841 
L 175.592449 -253.84523 
L 175.628617 -257.838618 
L 175.644943 -261.832007 
L 175.645156 -265.825395 
L 175.645156 -269.818784 
L 175.645156 -273.812172 
L 175.645156 -277.80556 
L 175.645156 -281.798949 
L 175.645156 -285.792337 
L 175.645156 -289.785726 
L 175.645156 -293.779114 
L 175.645156 -297.772503 
L 175.645156 -301.765891 
L 175.645156 -305.759279 
L 175.645156 -309.752668 
L 175.645156 -313.746056 
L 175.645156 -317.739445 
L 175.645156 -321.732833 
L 175.645156 -325.726222 
L 175.645156 -329.71961 
L 175.645156 -333.712998 
L 175.645156 -337.706387 
L 175.645156 -341.699775 
L 175.645156 -345.693164 
L 175.645156 -349.686552 
L 175.645156 -353.679941 
L 175.645156 -357.673329 
L 175.645156 -361.666717 
L 175.645156 -365.660106 
L 175.645156 -369.653494 
L 175.645156 -373.646883 
L 175.645156 -377.640271 
L 175.645156 -381.63366 
L 175.645156 -385.627048 
L 175.645156 -389.620436 
L 175.645156 -393.613825 
L 175.645156 -397.607213 
L 175.645156 -401.600602 
L 175.645156 -405.59399 
L 175.645156 -409.587379 
L 175.645156 -413.580767 
L 175.645156 -417.574155 
L 175.645156 -421.567544 
L 175.645156 -425.560932 
L 175.645156 -429.554321 
L 175.645156 -433.547709 
L 175.645156 -437.541098 
L 175.645156 -441.534486 
L 175.645156 -445.527874 
L 175.645065 -449.521263 
L 175.634158 -453.514651 
L 175.590842 -457.50804 
L 175.699471 -457.50804 
L 175.699471 -457.50804 
L 175.656155 -453.514651 
L 175.645248 -449.521263 
L 175.645156 -445.527874 
L 175.645156 -441.534486 
L 175.645156 -437.541098 
L 175.645156 -433.547709 
L 175.645156 -429.554321 
L 175.645156 -425.560932 
L 175.645156 -421.567544 
L 175.645156 -417.574155 
L 175.645156 -413.580767 
L 175.645156 -409.587379 
L 175.645156 -405.59399 
L 175.645156 -401.600602 
L 175.645156 -397.607213 
L 175.645156 -393.613825 
L 175.645156 -389.620436 
L 175.645156 -385.627048 
L 175.645156 -381.63366 
L 175.645156 -377.640271 
L 175.645156 -373.646883 
L 175.645156 -369.653494 
L 175.645156 -365.660106 
L 175.645156 -361.666717 
L 175.645156 -357.673329 
L 175.645156 -353.679941 
L 175.645156 -349.686552 
L 175.645156 -345.693164 
L 175.645156 -341.699775 
L 175.645156 -337.706387 
L 175.645156 -333.712998 
L 175.645156 -329.71961 
L 175.645156 -325.726222 
L 175.645156 -321.732833 
L 175.645156 -317.739445 
L 175.645156 -313.746056 
L 175.645156 -309.752668 
L 175.645156 -305.759279 
L 175.645156 -301.765891 
L 175.645156 -297.772503 
L 175.645156 -293.779114 
L 175.645156 -289.785726 
L 175.645156 -285.792337 
L 175.645156 -281.798949 
L 175.645156 -277.80556 
L 175.645156 -273.812172 
L 175.645156 -269.818784 
L 175.645156 -265.825395 
L 175.645369 -261.832007 
L 175.661696 -257.838618 
L 175.697863 -253.84523 
L 175.652049 -249.851841 
L 175.647448 -245.858453 
L 175.686605 -241.865065 
L 175.676429 -237.871676 
L 175.653009 -233.878288 
L 175.697879 -229.884899 
L 175.66584 -225.891511 
L 175.700364 -221.898122 
L 175.727538 -217.904734 
L 175.717267 -213.911346 
L 175.704164 -209.917957 
L 175.691953 -205.924569 
L 175.786733 -201.93118 
L 175.933498 -197.937792 
L 176.400158 -193.944403 
L 176.527991 -189.951015 
L 177.551577 -185.957627 
L 178.702965 -181.964238 
L 180.760111 -177.97085 
L 191.362216 -173.977461 
L 219.980461 -169.984073 
L 237.053992 -165.990684 
L 210.360594 -161.997296 
L 186.543902 -158.003908 
L 179.841878 -154.010519 
L 177.920781 -150.017131 
L 177.076654 -146.023742 
L 176.426902 -142.030354 
L 176.018511 -138.036965 
L 175.942077 -134.043577 
L 175.894331 -130.050189 
L 175.894236 -126.0568 
L 175.865556 -122.063412 
L 175.751886 -118.070023 
L 175.657146 -114.076635 
L 175.674855 -110.083246 
L 175.790588 -106.089858 
L 175.697255 -102.09647 
L 175.659853 -98.103081 
L 175.743485 -94.109693 
L 175.684658 -90.116304 
L 175.646001 -86.122916 
L 175.645157 -82.129527 
L 175.645158 -78.136139 
L 175.646271 -74.142751 
L 175.678164 -70.149362 
L 175.696024 -66.155974 
L 175.701451 -62.162585 
z
" id="m2086250c8f" style="stroke:#3d3d3d;stroke-width:1.5;"/>
    </defs>
    <g clip-path="url(#pd22336d0c1)">
     <use style="fill:#3274a1;stroke:#3d3d3d;stroke-width:1.5;" x="0" xlink:href="#m2086250c8f" y="528.224062"/>
    </g>
   </g>
   <g id="PolyCollection_2">
    <defs>
     <path d="M 354.290275 -89.169301 
L 354.120038 -89.169301 
L 354.151546 -90.868306 
L 354.191762 -92.567311 
L 354.203829 -94.266316 
L 354.205104 -95.965322 
L 354.205155 -97.664327 
L 354.205156 -99.363332 
L 354.20515 -101.062338 
L 354.2049 -102.761343 
L 354.200884 -104.460348 
L 354.17688 -106.159353 
L 354.130836 -107.858359 
L 354.125942 -109.557364 
L 354.156259 -111.256369 
L 354.139845 -112.955374 
L 354.120375 -114.65438 
L 354.157862 -116.353385 
L 354.190519 -118.05239 
L 354.167908 -119.751395 
L 354.06766 -121.450401 
L 353.970439 -123.149406 
L 354.022518 -124.848411 
L 354.126882 -126.547416 
L 354.116364 -128.246422 
L 354.019814 -129.945427 
L 353.98242 -131.644432 
L 354.02274 -133.343437 
L 353.966734 -135.042443 
L 353.837954 -136.741448 
L 353.826328 -138.440453 
L 353.787234 -140.139458 
L 353.491285 -141.838464 
L 353.105014 -143.537469 
L 352.986956 -145.236474 
L 352.952997 -146.93548 
L 352.440138 -148.634485 
L 351.537967 -150.33349 
L 350.6512 -152.032495 
L 349.521513 -153.731501 
L 347.554024 -155.430506 
L 344.116117 -157.129511 
L 338.836692 -158.828516 
L 330.601017 -160.527522 
L 318.570797 -162.226527 
L 305.870577 -163.925532 
L 297.411173 -165.624537 
L 296.394667 -167.323543 
L 303.015521 -169.022548 
L 314.381248 -170.721553 
L 326.956242 -172.420558 
L 337.568758 -174.119564 
L 343.868485 -175.818569 
L 347.079542 -177.517574 
L 349.229495 -179.216579 
L 350.595041 -180.915585 
L 351.39394 -182.61459 
L 352.090922 -184.313595 
L 352.527872 -186.0126 
L 352.8013 -187.711606 
L 353.206365 -189.410611 
L 353.523987 -191.109616 
L 353.689501 -192.808622 
L 353.853306 -194.507627 
L 354.013034 -196.206632 
L 354.106912 -197.905637 
L 354.103561 -199.604643 
L 354.06592 -201.303648 
L 354.057477 -203.002653 
L 354.064573 -204.701658 
L 354.072792 -206.400664 
L 354.089181 -208.099669 
L 354.13519 -209.798674 
L 354.184629 -211.497679 
L 354.199541 -213.196685 
L 354.181603 -214.89569 
L 354.136002 -216.594695 
L 354.124209 -218.2937 
L 354.167569 -219.992706 
L 354.198233 -221.691711 
L 354.20465 -223.390716 
L 354.205142 -225.089721 
L 354.205155 -226.788727 
L 354.205092 -228.487732 
L 354.203612 -230.186737 
L 354.190351 -231.885742 
L 354.148831 -233.584748 
L 354.120157 -235.283753 
L 354.154273 -236.982758 
L 354.193073 -238.681764 
L 354.204018 -240.380769 
L 354.205114 -242.079774 
L 354.205156 -243.778779 
L 354.205156 -245.477785 
L 354.205156 -247.17679 
L 354.205155 -248.875795 
L 354.205104 -250.5748 
L 354.203829 -252.273806 
L 354.191762 -253.972811 
L 354.151546 -255.671816 
L 354.120038 -257.370821 
L 354.290275 -257.370821 
L 354.290275 -257.370821 
L 354.258766 -255.671816 
L 354.21855 -253.972811 
L 354.206484 -252.273806 
L 354.205208 -250.5748 
L 354.205157 -248.875795 
L 354.205156 -247.17679 
L 354.205156 -245.477785 
L 354.205157 -243.778779 
L 354.205199 -242.079774 
L 354.206294 -240.380769 
L 354.217239 -238.681764 
L 354.256039 -236.982758 
L 354.290156 -235.283753 
L 354.261481 -233.584748 
L 354.219962 -231.885742 
L 354.2067 -230.186737 
L 354.20522 -228.487732 
L 354.205157 -226.788727 
L 354.205171 -225.089721 
L 354.205662 -223.390716 
L 354.21208 -221.691711 
L 354.242744 -219.992706 
L 354.286104 -218.2937 
L 354.274311 -216.594695 
L 354.22871 -214.89569 
L 354.210771 -213.196685 
L 354.225683 -211.497679 
L 354.275123 -209.798674 
L 354.321131 -208.099669 
L 354.337521 -206.400664 
L 354.345739 -204.701658 
L 354.352835 -203.002653 
L 354.344393 -201.303648 
L 354.306752 -199.604643 
L 354.3034 -197.905637 
L 354.397278 -196.206632 
L 354.557007 -194.507627 
L 354.720811 -192.808622 
L 354.886326 -191.109616 
L 355.203948 -189.410611 
L 355.609013 -187.711606 
L 355.882441 -186.0126 
L 356.319391 -184.313595 
L 357.016373 -182.61459 
L 357.815272 -180.915585 
L 359.180818 -179.216579 
L 361.330771 -177.517574 
L 364.541828 -175.818569 
L 370.841554 -174.119564 
L 381.454071 -172.420558 
L 394.029065 -170.721553 
L 405.394791 -169.022548 
L 412.015645 -167.323543 
L 410.99914 -165.624537 
L 402.539736 -163.925532 
L 389.839516 -162.226527 
L 377.809295 -160.527522 
L 369.57362 -158.828516 
L 364.294196 -157.129511 
L 360.856288 -155.430506 
L 358.888799 -153.731501 
L 357.759112 -152.032495 
L 356.872345 -150.33349 
L 355.970174 -148.634485 
L 355.457316 -146.93548 
L 355.423356 -145.236474 
L 355.305299 -143.537469 
L 354.919027 -141.838464 
L 354.623078 -140.139458 
L 354.583985 -138.440453 
L 354.572358 -136.741448 
L 354.443578 -135.042443 
L 354.387573 -133.343437 
L 354.427892 -131.644432 
L 354.390498 -129.945427 
L 354.293949 -128.246422 
L 354.28343 -126.547416 
L 354.387795 -124.848411 
L 354.439873 -123.149406 
L 354.342653 -121.450401 
L 354.242404 -119.751395 
L 354.219794 -118.05239 
L 354.25245 -116.353385 
L 354.289938 -114.65438 
L 354.270468 -112.955374 
L 354.254054 -111.256369 
L 354.28437 -109.557364 
L 354.279477 -107.858359 
L 354.233433 -106.159353 
L 354.209428 -104.460348 
L 354.205412 -102.761343 
L 354.205162 -101.062338 
L 354.205156 -99.363332 
L 354.205157 -97.664327 
L 354.205208 -95.965322 
L 354.206484 -94.266316 
L 354.21855 -92.567311 
L 354.258766 -90.868306 
L 354.290275 -89.169301 
z
" id="m06026b2178" style="stroke:#3d3d3d;stroke-width:1.5;"/>
    </defs>
    <g clip-path="url(#pd22336d0c1)">
     <use style="fill:#e1812c;stroke:#3d3d3d;stroke-width:1.5;" x="0" xlink:href="#m06026b2178" y="528.224062"/>
    </g>
   </g>
   <g id="PolyCollection_3">
    <defs>
     <path d="M 532.827815 -79.414023 
L 532.702498 -79.414023 
L 532.756271 -83.233155 
L 532.765131 -87.052286 
L 532.765156 -90.871418 
L 532.765028 -94.690549 
L 532.746111 -98.509681 
L 532.708016 -102.328812 
L 532.745077 -106.147944 
L 532.69735 -109.967075 
L 532.676373 -113.786207 
L 532.69939 -117.605338 
L 532.710612 -121.42447 
L 532.706766 -125.243601 
L 532.679741 -129.062732 
L 532.642306 -132.881864 
L 532.519299 -136.700995 
L 532.40018 -140.520127 
L 531.785664 -144.339258 
L 531.786693 -148.15839 
L 530.622637 -151.977521 
L 527.56829 -155.796653 
L 517.622773 -159.615784 
L 484.921433 -163.434916 
L 461.341156 -167.254047 
L 497.680621 -171.073179 
L 522.829529 -174.89231 
L 528.227196 -178.711442 
L 530.616732 -182.530573 
L 531.576069 -186.349705 
L 532.326885 -190.168836 
L 532.509061 -193.987968 
L 532.717982 -197.807099 
L 532.625124 -201.626231 
L 532.62843 -205.445362 
L 532.760191 -209.264494 
L 532.765152 -213.083625 
L 532.765156 -216.902757 
L 532.764823 -220.721888 
L 532.736823 -224.541019 
L 532.716688 -228.360151 
L 532.763489 -232.179282 
L 532.765155 -235.998414 
L 532.765144 -239.817545 
L 532.759148 -243.636677 
L 532.703507 -247.455808 
L 532.735432 -251.27494 
L 532.706438 -255.094071 
L 532.761096 -258.913203 
L 532.765151 -262.732334 
L 532.765156 -266.551466 
L 532.765156 -270.370597 
L 532.765156 -274.189729 
L 532.765156 -278.00886 
L 532.765156 -281.827992 
L 532.765156 -285.647123 
L 532.765156 -289.466255 
L 532.765156 -293.285386 
L 532.765156 -297.104518 
L 532.765156 -300.923649 
L 532.765156 -304.742781 
L 532.765156 -308.561912 
L 532.765156 -312.381044 
L 532.765156 -316.200175 
L 532.765156 -320.019306 
L 532.765156 -323.838438 
L 532.765156 -327.657569 
L 532.765156 -331.476701 
L 532.765156 -335.295832 
L 532.765156 -339.114964 
L 532.765156 -342.934095 
L 532.765156 -346.753227 
L 532.765156 -350.572358 
L 532.765156 -354.39149 
L 532.765156 -358.210621 
L 532.765156 -362.029753 
L 532.765156 -365.848884 
L 532.765156 -369.668016 
L 532.765156 -373.487147 
L 532.765156 -377.306279 
L 532.765156 -381.12541 
L 532.765156 -384.944542 
L 532.765156 -388.763673 
L 532.765156 -392.582805 
L 532.765156 -396.401936 
L 532.765156 -400.221068 
L 532.765156 -404.040199 
L 532.765156 -407.859331 
L 532.765156 -411.678462 
L 532.765156 -415.497593 
L 532.765156 -419.316725 
L 532.765156 -423.135856 
L 532.765156 -426.954988 
L 532.765156 -430.774119 
L 532.765156 -434.593251 
L 532.765156 -438.412382 
L 532.765156 -442.231514 
L 532.765156 -446.050645 
L 532.765131 -449.869777 
L 532.756271 -453.688908 
L 532.702498 -457.50804 
L 532.827815 -457.50804 
L 532.827815 -457.50804 
L 532.774042 -453.688908 
L 532.765182 -449.869777 
L 532.765156 -446.050645 
L 532.765156 -442.231514 
L 532.765156 -438.412382 
L 532.765156 -434.593251 
L 532.765156 -430.774119 
L 532.765156 -426.954988 
L 532.765156 -423.135856 
L 532.765156 -419.316725 
L 532.765156 -415.497593 
L 532.765156 -411.678462 
L 532.765156 -407.859331 
L 532.765156 -404.040199 
L 532.765156 -400.221068 
L 532.765156 -396.401936 
L 532.765156 -392.582805 
L 532.765156 -388.763673 
L 532.765156 -384.944542 
L 532.765156 -381.12541 
L 532.765156 -377.306279 
L 532.765156 -373.487147 
L 532.765156 -369.668016 
L 532.765156 -365.848884 
L 532.765156 -362.029753 
L 532.765156 -358.210621 
L 532.765156 -354.39149 
L 532.765156 -350.572358 
L 532.765156 -346.753227 
L 532.765156 -342.934095 
L 532.765156 -339.114964 
L 532.765156 -335.295832 
L 532.765156 -331.476701 
L 532.765156 -327.657569 
L 532.765156 -323.838438 
L 532.765156 -320.019306 
L 532.765156 -316.200175 
L 532.765156 -312.381044 
L 532.765156 -308.561912 
L 532.765156 -304.742781 
L 532.765156 -300.923649 
L 532.765156 -297.104518 
L 532.765156 -293.285386 
L 532.765156 -289.466255 
L 532.765156 -285.647123 
L 532.765156 -281.827992 
L 532.765156 -278.00886 
L 532.765156 -274.189729 
L 532.765156 -270.370597 
L 532.765156 -266.551466 
L 532.765162 -262.732334 
L 532.769217 -258.913203 
L 532.823875 -255.094071 
L 532.79488 -251.27494 
L 532.826806 -247.455808 
L 532.771164 -243.636677 
L 532.765168 -239.817545 
L 532.765157 -235.998414 
L 532.766824 -232.179282 
L 532.813625 -228.360151 
L 532.79349 -224.541019 
L 532.765489 -220.721888 
L 532.765156 -216.902757 
L 532.76516 -213.083625 
L 532.770121 -209.264494 
L 532.901882 -205.445362 
L 532.905189 -201.626231 
L 532.812331 -197.807099 
L 533.021251 -193.987968 
L 533.203428 -190.168836 
L 533.954244 -186.349705 
L 534.913581 -182.530573 
L 537.303116 -178.711442 
L 542.700783 -174.89231 
L 567.849692 -171.073179 
L 604.189156 -167.254047 
L 580.608879 -163.434916 
L 547.90754 -159.615784 
L 537.962023 -155.796653 
L 534.907675 -151.977521 
L 533.74362 -148.15839 
L 533.744648 -144.339258 
L 533.130133 -140.520127 
L 533.011013 -136.700995 
L 532.888006 -132.881864 
L 532.850572 -129.062732 
L 532.823546 -125.243601 
L 532.8197 -121.42447 
L 532.830923 -117.605338 
L 532.85394 -113.786207 
L 532.832962 -109.967075 
L 532.785235 -106.147944 
L 532.822297 -102.328812 
L 532.784201 -98.509681 
L 532.765284 -94.690549 
L 532.765156 -90.871418 
L 532.765182 -87.052286 
L 532.774042 -83.233155 
L 532.827815 -79.414023 
z
" id="mf9cc8f6a77" style="stroke:#3d3d3d;stroke-width:1.5;"/>
    </defs>
    <g clip-path="url(#pd22336d0c1)">
     <use style="fill:#3a923a;stroke:#3d3d3d;stroke-width:1.5;" x="0" xlink:href="#mf9cc8f6a77" y="528.224062"/>
    </g>
   </g>
   <g id="PolyCollection_4">
    <defs>
     <path d="M 711.379373 -62.162585 
L 711.270939 -62.162585 
L 711.300382 -66.155974 
L 711.271429 -70.149362 
L 711.316432 -74.142751 
L 711.325097 -78.136139 
L 711.325156 -82.129527 
L 711.325155 -86.122916 
L 711.324174 -90.116304 
L 711.292727 -94.109693 
L 711.249463 -98.103081 
L 711.254687 -102.09647 
L 711.172415 -106.089858 
L 711.250593 -110.083246 
L 711.21913 -114.076635 
L 711.26124 -118.070023 
L 711.096633 -122.063412 
L 711.12087 -126.0568 
L 711.144278 -130.050189 
L 711.156655 -134.043577 
L 711.043556 -138.036965 
L 710.339506 -142.030354 
L 709.909556 -146.023742 
L 709.064359 -150.017131 
L 706.47857 -154.010519 
L 700.786906 -158.003908 
L 678.814088 -161.997296 
L 649.848535 -165.990684 
L 666.454131 -169.984073 
L 695.069298 -173.977461 
L 705.068349 -177.97085 
L 708.064681 -181.964238 
L 709.598656 -185.957627 
L 710.628861 -189.951015 
L 710.776172 -193.944403 
L 711.132527 -197.937792 
L 711.204141 -201.93118 
L 711.109226 -205.924569 
L 711.229764 -209.917957 
L 711.255836 -213.911346 
L 711.223327 -217.904734 
L 711.213442 -221.898122 
L 711.313051 -225.891511 
L 711.325095 -229.884899 
L 711.325156 -233.878288 
L 711.325156 -237.871676 
L 711.325156 -241.865065 
L 711.325118 -245.858453 
L 711.318035 -249.851841 
L 711.257008 -253.84523 
L 711.255689 -257.838618 
L 711.317496 -261.832007 
L 711.325113 -265.825395 
L 711.325156 -269.818784 
L 711.325156 -273.812172 
L 711.325156 -277.80556 
L 711.325156 -281.798949 
L 711.325156 -285.792337 
L 711.325156 -289.785726 
L 711.325156 -293.779114 
L 711.325156 -297.772503 
L 711.325156 -301.765891 
L 711.325156 -305.759279 
L 711.325156 -309.752668 
L 711.325156 -313.746056 
L 711.325156 -317.739445 
L 711.325156 -321.732833 
L 711.325156 -325.726222 
L 711.325156 -329.71961 
L 711.325156 -333.712998 
L 711.325156 -337.706387 
L 711.325156 -341.699775 
L 711.325156 -345.693164 
L 711.325156 -349.686552 
L 711.325156 -353.679941 
L 711.325156 -357.673329 
L 711.325156 -361.666717 
L 711.325156 -365.660106 
L 711.325156 -369.653494 
L 711.325156 -373.646883 
L 711.325156 -377.640271 
L 711.325156 -381.63366 
L 711.325156 -385.627048 
L 711.325156 -389.620436 
L 711.325156 -393.613825 
L 711.325156 -397.607213 
L 711.325156 -401.600602 
L 711.325156 -405.59399 
L 711.325156 -409.587379 
L 711.325156 -413.580767 
L 711.325156 -417.574155 
L 711.325156 -421.567544 
L 711.325156 -425.560932 
L 711.325156 -429.554321 
L 711.325156 -433.547709 
L 711.325156 -437.541098 
L 711.325156 -441.534486 
L 711.325156 -445.527874 
L 711.325062 -449.521263 
L 711.314119 -453.514651 
L 711.271086 -457.50804 
L 711.379227 -457.50804 
L 711.379227 -457.50804 
L 711.336193 -453.514651 
L 711.32525 -449.521263 
L 711.325156 -445.527874 
L 711.325156 -441.534486 
L 711.325156 -437.541098 
L 711.325156 -433.547709 
L 711.325156 -429.554321 
L 711.325156 -425.560932 
L 711.325156 -421.567544 
L 711.325156 -417.574155 
L 711.325156 -413.580767 
L 711.325156 -409.587379 
L 711.325156 -405.59399 
L 711.325156 -401.600602 
L 711.325156 -397.607213 
L 711.325156 -393.613825 
L 711.325156 -389.620436 
L 711.325156 -385.627048 
L 711.325156 -381.63366 
L 711.325156 -377.640271 
L 711.325156 -373.646883 
L 711.325156 -369.653494 
L 711.325156 -365.660106 
L 711.325156 -361.666717 
L 711.325156 -357.673329 
L 711.325156 -353.679941 
L 711.325156 -349.686552 
L 711.325156 -345.693164 
L 711.325156 -341.699775 
L 711.325156 -337.706387 
L 711.325156 -333.712998 
L 711.325156 -329.71961 
L 711.325156 -325.726222 
L 711.325156 -321.732833 
L 711.325156 -317.739445 
L 711.325156 -313.746056 
L 711.325156 -309.752668 
L 711.325156 -305.759279 
L 711.325156 -301.765891 
L 711.325156 -297.772503 
L 711.325156 -293.779114 
L 711.325156 -289.785726 
L 711.325156 -285.792337 
L 711.325156 -281.798949 
L 711.325156 -277.80556 
L 711.325156 -273.812172 
L 711.325156 -269.818784 
L 711.3252 -265.825395 
L 711.332816 -261.832007 
L 711.394624 -257.838618 
L 711.393304 -253.84523 
L 711.332277 -249.851841 
L 711.325194 -245.858453 
L 711.325156 -241.865065 
L 711.325156 -237.871676 
L 711.325156 -233.878288 
L 711.325218 -229.884899 
L 711.337262 -225.891511 
L 711.43687 -221.898122 
L 711.426986 -217.904734 
L 711.394477 -213.911346 
L 711.420549 -209.917957 
L 711.541086 -205.924569 
L 711.446171 -201.93118 
L 711.517786 -197.937792 
L 711.87414 -193.944403 
L 712.021451 -189.951015 
L 713.051657 -185.957627 
L 714.585631 -181.964238 
L 717.581963 -177.97085 
L 727.581014 -173.977461 
L 756.196182 -169.984073 
L 772.801778 -165.990684 
L 743.836225 -161.997296 
L 721.863407 -158.003908 
L 716.171743 -154.010519 
L 713.585954 -150.017131 
L 712.740757 -146.023742 
L 712.310806 -142.030354 
L 711.606757 -138.036965 
L 711.493658 -134.043577 
L 711.506034 -130.050189 
L 711.529442 -126.0568 
L 711.55368 -122.063412 
L 711.389072 -118.070023 
L 711.431182 -114.076635 
L 711.39972 -110.083246 
L 711.477898 -106.089858 
L 711.395625 -102.09647 
L 711.400849 -98.103081 
L 711.357586 -94.109693 
L 711.326139 -90.116304 
L 711.325158 -86.122916 
L 711.325156 -82.129527 
L 711.325215 -78.136139 
L 711.333881 -74.142751 
L 711.378884 -70.149362 
L 711.349931 -66.155974 
L 711.379373 -62.162585 
z
" id="mf7d37d1585" style="stroke:#3d3d3d;stroke-width:1.5;"/>
    </defs>
    <g clip-path="url(#pd22336d0c1)">
     <use style="fill:#c03d3e;stroke:#3d3d3d;stroke-width:1.5;" x="0" xlink:href="#mf7d37d1585" y="528.224062"/>
    </g>
   </g>
   <g id="PolyCollection_5">
    <defs>
     <path d="M 889.978417 -89.169301 
L 889.791895 -89.169301 
L 889.825362 -90.695086 
L 889.869397 -92.220872 
L 889.883449 -93.746657 
L 889.88508 -95.272443 
L 889.885155 -96.798228 
L 889.885141 -98.324014 
L 889.884659 -99.8498 
L 889.878423 -101.375585 
L 889.847657 -102.901371 
L 889.799272 -104.427156 
L 889.803385 -105.952942 
L 889.84304 -107.478727 
L 889.830277 -109.004513 
L 889.784099 -110.530298 
L 889.770199 -112.056084 
L 889.771328 -113.58187 
L 889.791543 -115.107655 
L 889.798789 -116.633441 
L 889.788373 -118.159226 
L 889.82628 -119.685012 
L 889.869974 -121.210797 
L 889.88347 -122.736583 
L 889.883264 -124.262368 
L 889.865714 -125.788154 
L 889.794346 -127.31394 
L 889.684483 -128.839725 
L 889.626308 -130.365511 
L 889.633186 -131.891296 
L 889.675524 -133.417082 
L 889.666042 -134.942867 
L 889.622744 -136.468653 
L 889.601116 -137.994438 
L 889.577331 -139.520224 
L 889.500378 -141.04601 
L 889.350791 -142.571795 
L 889.105284 -144.097581 
L 888.925492 -145.623366 
L 888.855166 -147.149152 
L 888.644752 -148.674937 
L 888.150325 -150.200723 
L 887.678775 -151.726508 
L 887.208989 -153.252294 
L 885.657684 -154.778079 
L 882.557723 -156.303865 
L 878.44789 -157.829651 
L 872.833238 -159.355436 
L 864.320713 -160.881222 
L 851.808916 -162.407007 
L 837.357903 -163.932793 
L 827.169397 -165.458578 
L 823.874486 -166.984364 
L 829.945844 -168.510149 
L 845.405653 -170.035935 
L 860.43606 -171.561721 
L 870.680288 -173.087506 
L 877.378596 -174.613292 
L 881.221596 -176.139077 
L 883.782161 -177.664863 
L 885.695652 -179.190648 
L 886.713047 -180.716434 
L 887.307107 -182.242219 
L 887.960705 -183.768005 
L 888.458269 -185.293791 
L 888.689786 -186.819576 
L 888.953028 -188.345362 
L 889.258833 -189.871147 
L 889.359456 -191.396933 
L 889.464089 -192.922718 
L 889.665489 -194.448504 
L 889.755772 -195.974289 
L 889.774499 -197.500075 
L 889.755629 -199.025861 
L 889.727458 -200.551646 
L 889.760395 -202.077432 
L 889.829963 -203.603217 
L 889.854915 -205.129003 
L 889.817514 -206.654788 
L 889.792589 -208.180574 
L 889.832423 -209.706359 
L 889.872803 -211.232145 
L 889.883967 -212.757931 
L 889.885109 -214.283716 
L 889.885155 -215.809502 
L 889.885156 -217.335287 
L 889.885156 -218.861073 
L 889.885156 -220.386858 
L 889.885156 -221.912644 
L 889.885156 -223.438429 
L 889.885111 -224.964215 
L 889.884007 -226.49 
L 889.873087 -228.015786 
L 889.833072 -229.541572 
L 889.792761 -231.067357 
L 889.817777 -232.593143 
L 889.864883 -234.118928 
L 889.88096 -235.644714 
L 889.869271 -237.170499 
L 889.82536 -238.696285 
L 889.791895 -240.22207 
L 889.978417 -240.22207 
L 889.978417 -240.22207 
L 889.944953 -238.696285 
L 889.901041 -237.170499 
L 889.889352 -235.644714 
L 889.90543 -234.118928 
L 889.952535 -232.593143 
L 889.977552 -231.067357 
L 889.93724 -229.541572 
L 889.897225 -228.015786 
L 889.886306 -226.49 
L 889.885201 -224.964215 
L 889.885157 -223.438429 
L 889.885156 -221.912644 
L 889.885156 -220.386858 
L 889.885156 -218.861073 
L 889.885156 -217.335287 
L 889.885157 -215.809502 
L 889.885203 -214.283716 
L 889.886346 -212.757931 
L 889.897509 -211.232145 
L 889.93789 -209.706359 
L 889.977723 -208.180574 
L 889.952799 -206.654788 
L 889.915398 -205.129003 
L 889.940349 -203.603217 
L 890.009917 -202.077432 
L 890.042854 -200.551646 
L 890.014684 -199.025861 
L 889.995814 -197.500075 
L 890.014541 -195.974289 
L 890.104823 -194.448504 
L 890.306223 -192.922718 
L 890.410856 -191.396933 
L 890.51148 -189.871147 
L 890.817284 -188.345362 
L 891.080527 -186.819576 
L 891.312043 -185.293791 
L 891.809607 -183.768005 
L 892.463205 -182.242219 
L 893.057265 -180.716434 
L 894.07466 -179.190648 
L 895.988151 -177.664863 
L 898.548717 -176.139077 
L 902.391716 -174.613292 
L 909.090024 -173.087506 
L 919.334252 -171.561721 
L 934.36466 -170.035935 
L 949.824469 -168.510149 
L 955.895827 -166.984364 
L 952.600915 -165.458578 
L 942.41241 -163.932793 
L 927.961396 -162.407007 
L 915.449599 -160.881222 
L 906.937075 -159.355436 
L 901.322422 -157.829651 
L 897.21259 -156.303865 
L 894.112628 -154.778079 
L 892.561324 -153.252294 
L 892.091537 -151.726508 
L 891.619988 -150.200723 
L 891.125561 -148.674937 
L 890.915147 -147.149152 
L 890.844821 -145.623366 
L 890.665029 -144.097581 
L 890.419522 -142.571795 
L 890.269935 -141.04601 
L 890.192981 -139.520224 
L 890.169197 -137.994438 
L 890.147569 -136.468653 
L 890.104271 -134.942867 
L 890.094789 -133.417082 
L 890.137126 -131.891296 
L 890.144005 -130.365511 
L 890.085829 -128.839725 
L 889.975967 -127.31394 
L 889.904598 -125.788154 
L 889.887049 -124.262368 
L 889.886843 -122.736583 
L 889.900339 -121.210797 
L 889.944032 -119.685012 
L 889.98194 -118.159226 
L 889.971524 -116.633441 
L 889.97877 -115.107655 
L 889.998984 -113.58187 
L 890.000114 -112.056084 
L 889.986214 -110.530298 
L 889.940036 -109.004513 
L 889.927273 -107.478727 
L 889.966927 -105.952942 
L 889.97104 -104.427156 
L 889.922656 -102.901371 
L 889.89189 -101.375585 
L 889.885653 -99.8498 
L 889.885171 -98.324014 
L 889.885158 -96.798228 
L 889.885232 -95.272443 
L 889.886864 -93.746657 
L 889.900915 -92.220872 
L 889.94495 -90.695086 
L 889.978417 -89.169301 
z
" id="md446cc61d6" style="stroke:#3d3d3d;stroke-width:1.5;"/>
    </defs>
    <g clip-path="url(#pd22336d0c1)">
     <use style="fill:#9372b2;stroke:#3d3d3d;stroke-width:1.5;" x="0" xlink:href="#md446cc61d6" y="528.224062"/>
    </g>
   </g>
   <g id="matplotlib.axis_1">
    <g id="xtick_1">
     <g id="line2d_1">
      <defs>
       <path d="M 0 0 
L 0 3.5 
" id="m9c4c80d191" style="stroke:#000000;stroke-width:0.8;"/>
      </defs>
      <g>
       <use style="stroke:#000000;stroke-width:0.8;" x="175.645156" xlink:href="#m9c4c80d191" y="485.82875"/>
      </g>
     </g>
     <g id="text_1">
      <!-- MCF7 REST 1 -->
      <defs>
       <path d="M 9.8125 72.90625 
L 24.515625 72.90625 
L 43.109375 23.296875 
L 61.8125 72.90625 
L 76.515625 72.90625 
L 76.515625 0 
L 66.890625 0 
L 66.890625 64.015625 
L 48.09375 14.015625 
L 38.1875 14.015625 
L 19.390625 64.015625 
L 19.390625 0 
L 9.8125 0 
z
" id="DejaVuSans-4d"/>
       <path d="M 64.40625 67.28125 
L 64.40625 56.890625 
Q 59.421875 61.53125 53.78125 63.8125 
Q 48.140625 66.109375 41.796875 66.109375 
Q 29.296875 66.109375 22.65625 58.46875 
Q 16.015625 50.828125 16.015625 36.375 
Q 16.015625 21.96875 22.65625 14.328125 
Q 29.296875 6.6875 41.796875 6.6875 
Q 48.140625 6.6875 53.78125 8.984375 
Q 59.421875 11.28125 64.40625 15.921875 
L 64.40625 5.609375 
Q 59.234375 2.09375 53.4375 0.328125 
Q 47.65625 -1.421875 41.21875 -1.421875 
Q 24.65625 -1.421875 15.125 8.703125 
Q 5.609375 18.84375 5.609375 36.375 
Q 5.609375 53.953125 15.125 64.078125 
Q 24.65625 74.21875 41.21875 74.21875 
Q 47.75 74.21875 53.53125 72.484375 
Q 59.328125 70.75 64.40625 67.28125 
z
" id="DejaVuSans-43"/>
       <path d="M 9.8125 72.90625 
L 51.703125 72.90625 
L 51.703125 64.59375 
L 19.671875 64.59375 
L 19.671875 43.109375 
L 48.578125 43.109375 
L 48.578125 34.8125 
L 19.671875 34.8125 
L 19.671875 0 
L 9.8125 0 
z
" id="DejaVuSans-46"/>
       <path d="M 8.203125 72.90625 
L 55.078125 72.90625 
L 55.078125 68.703125 
L 28.609375 0 
L 18.3125 0 
L 43.21875 64.59375 
L 8.203125 64.59375 
z
" id="DejaVuSans-37"/>
       <path id="DejaVuSans-20"/>
       <path d="M 44.390625 34.1875 
Q 47.5625 33.109375 50.5625 29.59375 
Q 53.5625 26.078125 56.59375 19.921875 
L 66.609375 0 
L 56 0 
L 46.6875 18.703125 
Q 43.0625 26.03125 39.671875 28.421875 
Q 36.28125 30.8125 30.421875 30.8125 
L 19.671875 30.8125 
L 19.671875 0 
L 9.8125 0 
L 9.8125 72.90625 
L 32.078125 72.90625 
Q 44.578125 72.90625 50.734375 67.671875 
Q 56.890625 62.453125 56.890625 51.90625 
Q 56.890625 45.015625 53.6875 40.46875 
Q 50.484375 35.9375 44.390625 34.1875 
z
M 19.671875 64.796875 
L 19.671875 38.921875 
L 32.078125 38.921875 
Q 39.203125 38.921875 42.84375 42.21875 
Q 46.484375 45.515625 46.484375 51.90625 
Q 46.484375 58.296875 42.84375 61.546875 
Q 39.203125 64.796875 32.078125 64.796875 
z
" id="DejaVuSans-52"/>
       <path d="M 9.8125 72.90625 
L 55.90625 72.90625 
L 55.90625 64.59375 
L 19.671875 64.59375 
L 19.671875 43.015625 
L 54.390625 43.015625 
L 54.390625 34.71875 
L 19.671875 34.71875 
L 19.671875 8.296875 
L 56.78125 8.296875 
L 56.78125 0 
L 9.8125 0 
z
" id="DejaVuSans-45"/>
       <path d="M 53.515625 70.515625 
L 53.515625 60.890625 
Q 47.90625 63.578125 42.921875 64.890625 
Q 37.9375 66.21875 33.296875 66.21875 
Q 25.25 66.21875 20.875 63.09375 
Q 16.5 59.96875 16.5 54.203125 
Q 16.5 49.359375 19.40625 46.890625 
Q 22.3125 44.4375 30.421875 42.921875 
L 36.375 41.703125 
Q 47.40625 39.59375 52.65625 34.296875 
Q 57.90625 29 57.90625 20.125 
Q 57.90625 9.515625 50.796875 4.046875 
Q 43.703125 -1.421875 29.984375 -1.421875 
Q 24.8125 -1.421875 18.96875 -0.25 
Q 13.140625 0.921875 6.890625 3.21875 
L 6.890625 13.375 
Q 12.890625 10.015625 18.65625 8.296875 
Q 24.421875 6.59375 29.984375 6.59375 
Q 38.421875 6.59375 43.015625 9.90625 
Q 47.609375 13.234375 47.609375 19.390625 
Q 47.609375 24.75 44.3125 27.78125 
Q 41.015625 30.8125 33.5 32.328125 
L 27.484375 33.5 
Q 16.453125 35.6875 11.515625 40.375 
Q 6.59375 45.0625 6.59375 53.421875 
Q 6.59375 63.09375 13.40625 68.65625 
Q 20.21875 74.21875 32.171875 74.21875 
Q 37.3125 74.21875 42.625 73.28125 
Q 47.953125 72.359375 53.515625 70.515625 
z
" id="DejaVuSans-53"/>
       <path d="M -0.296875 72.90625 
L 61.375 72.90625 
L 61.375 64.59375 
L 35.5 64.59375 
L 35.5 0 
L 25.59375 0 
L 25.59375 64.59375 
L -0.296875 64.59375 
z
" id="DejaVuSans-54"/>
       <path d="M 12.40625 8.296875 
L 28.515625 8.296875 
L 28.515625 63.921875 
L 10.984375 60.40625 
L 10.984375 69.390625 
L 28.421875 72.90625 
L 38.28125 72.90625 
L 38.28125 8.296875 
L 54.390625 8.296875 
L 54.390625 0 
L 12.40625 0 
z
" id="DejaVuSans-31"/>
      </defs>
      <g transform="translate(126.019766 504.226406)scale(0.15 -0.15)">
       <use xlink:href="#DejaVuSans-4d"/>
       <use x="86.279297" xlink:href="#DejaVuSans-43"/>
       <use x="156.103516" xlink:href="#DejaVuSans-46"/>
       <use x="213.623047" xlink:href="#DejaVuSans-37"/>
       <use x="277.246094" xlink:href="#DejaVuSans-20"/>
       <use x="309.033203" xlink:href="#DejaVuSans-52"/>
       <use x="378.515625" xlink:href="#DejaVuSans-45"/>
       <use x="441.699219" xlink:href="#DejaVuSans-53"/>
       <use x="505.175781" xlink:href="#DejaVuSans-54"/>
       <use x="566.259766" xlink:href="#DejaVuSans-20"/>
       <use x="598.046875" xlink:href="#DejaVuSans-31"/>
      </g>
     </g>
    </g>
    <g id="xtick_2">
     <g id="line2d_2">
      <g>
       <use style="stroke:#000000;stroke-width:0.8;" x="354.205156" xlink:href="#m9c4c80d191" y="485.82875"/>
      </g>
     </g>
     <g id="text_2">
      <!-- MCF7 REST 2 -->
      <defs>
       <path d="M 19.1875 8.296875 
L 53.609375 8.296875 
L 53.609375 0 
L 7.328125 0 
L 7.328125 8.296875 
Q 12.9375 14.109375 22.625 23.890625 
Q 32.328125 33.6875 34.8125 36.53125 
Q 39.546875 41.84375 41.421875 45.53125 
Q 43.3125 49.21875 43.3125 52.78125 
Q 43.3125 58.59375 39.234375 62.25 
Q 35.15625 65.921875 28.609375 65.921875 
Q 23.96875 65.921875 18.8125 64.3125 
Q 13.671875 62.703125 7.8125 59.421875 
L 7.8125 69.390625 
Q 13.765625 71.78125 18.9375 73 
Q 24.125 74.21875 28.421875 74.21875 
Q 39.75 74.21875 46.484375 68.546875 
Q 53.21875 62.890625 53.21875 53.421875 
Q 53.21875 48.921875 51.53125 44.890625 
Q 49.859375 40.875 45.40625 35.40625 
Q 44.1875 33.984375 37.640625 27.21875 
Q 31.109375 20.453125 19.1875 8.296875 
z
" id="DejaVuSans-32"/>
      </defs>
      <g transform="translate(304.579766 504.226406)scale(0.15 -0.15)">
       <use xlink:href="#DejaVuSans-4d"/>
       <use x="86.279297" xlink:href="#DejaVuSans-43"/>
       <use x="156.103516" xlink:href="#DejaVuSans-46"/>
       <use x="213.623047" xlink:href="#DejaVuSans-37"/>
       <use x="277.246094" xlink:href="#DejaVuSans-20"/>
       <use x="309.033203" xlink:href="#DejaVuSans-52"/>
       <use x="378.515625" xlink:href="#DejaVuSans-45"/>
       <use x="441.699219" xlink:href="#DejaVuSans-53"/>
       <use x="505.175781" xlink:href="#DejaVuSans-54"/>
       <use x="566.259766" xlink:href="#DejaVuSans-20"/>
       <use x="598.046875" xlink:href="#DejaVuSans-32"/>
      </g>
     </g>
    </g>
    <g id="xtick_3">
     <g id="line2d_3">
      <g>
       <use style="stroke:#000000;stroke-width:0.8;" x="532.765156" xlink:href="#m9c4c80d191" y="485.82875"/>
      </g>
     </g>
     <g id="text_3">
      <!-- $\mu$Merge -->
      <defs>
       <path d="M -1.3125 -20.796875 
L 13.375 54.6875 
L 22.40625 54.6875 
L 15.765625 20.65625 
Q 15.578125 19.625 15.421875 18.359375 
Q 15.28125 17.09375 15.28125 15.828125 
Q 15.28125 11.28125 18.140625 8.828125 
Q 21 6.390625 26.3125 6.390625 
Q 33.546875 6.390625 37.984375 10.484375 
Q 42.4375 14.59375 44 22.796875 
L 50.203125 54.6875 
L 59.1875 54.6875 
L 51.03125 12.640625 
Q 50.828125 11.71875 50.75 11.03125 
Q 50.6875 10.359375 50.6875 9.8125 
Q 50.6875 8.296875 51.296875 7.59375 
Q 51.90625 6.890625 53.21875 6.890625 
Q 53.71875 6.890625 54.5625 7.125 
Q 55.421875 7.375 56.984375 8.015625 
L 55.609375 0.78125 
Q 53.46875 -0.296875 51.515625 -0.859375 
Q 49.5625 -1.421875 47.703125 -1.421875 
Q 44.484375 -1.421875 42.65625 0.625 
Q 40.828125 2.6875 40.828125 6.296875 
Q 38.09375 2.390625 34.296875 0.484375 
Q 30.515625 -1.421875 25.390625 -1.421875 
Q 20.84375 -1.421875 17.453125 0.671875 
Q 14.0625 2.78125 12.984375 6.203125 
L 7.71875 -20.796875 
z
" id="DejaVuSans-Oblique-3bc"/>
       <path d="M 56.203125 29.59375 
L 56.203125 25.203125 
L 14.890625 25.203125 
Q 15.484375 15.921875 20.484375 11.0625 
Q 25.484375 6.203125 34.421875 6.203125 
Q 39.59375 6.203125 44.453125 7.46875 
Q 49.3125 8.734375 54.109375 11.28125 
L 54.109375 2.78125 
Q 49.265625 0.734375 44.1875 -0.34375 
Q 39.109375 -1.421875 33.890625 -1.421875 
Q 20.796875 -1.421875 13.15625 6.1875 
Q 5.515625 13.8125 5.515625 26.8125 
Q 5.515625 40.234375 12.765625 48.109375 
Q 20.015625 56 32.328125 56 
Q 43.359375 56 49.78125 48.890625 
Q 56.203125 41.796875 56.203125 29.59375 
z
M 47.21875 32.234375 
Q 47.125 39.59375 43.09375 43.984375 
Q 39.0625 48.390625 32.421875 48.390625 
Q 24.90625 48.390625 20.390625 44.140625 
Q 15.875 39.890625 15.1875 32.171875 
z
" id="DejaVuSans-65"/>
       <path d="M 41.109375 46.296875 
Q 39.59375 47.171875 37.8125 47.578125 
Q 36.03125 48 33.890625 48 
Q 26.265625 48 22.1875 43.046875 
Q 18.109375 38.09375 18.109375 28.8125 
L 18.109375 0 
L 9.078125 0 
L 9.078125 54.6875 
L 18.109375 54.6875 
L 18.109375 46.1875 
Q 20.953125 51.171875 25.484375 53.578125 
Q 30.03125 56 36.53125 56 
Q 37.453125 56 38.578125 55.875 
Q 39.703125 55.765625 41.0625 55.515625 
z
" id="DejaVuSans-72"/>
       <path d="M 45.40625 27.984375 
Q 45.40625 37.75 41.375 43.109375 
Q 37.359375 48.484375 30.078125 48.484375 
Q 22.859375 48.484375 18.828125 43.109375 
Q 14.796875 37.75 14.796875 27.984375 
Q 14.796875 18.265625 18.828125 12.890625 
Q 22.859375 7.515625 30.078125 7.515625 
Q 37.359375 7.515625 41.375 12.890625 
Q 45.40625 18.265625 45.40625 27.984375 
z
M 54.390625 6.78125 
Q 54.390625 -7.171875 48.1875 -13.984375 
Q 42 -20.796875 29.203125 -20.796875 
Q 24.46875 -20.796875 20.265625 -20.09375 
Q 16.0625 -19.390625 12.109375 -17.921875 
L 12.109375 -9.1875 
Q 16.0625 -11.328125 19.921875 -12.34375 
Q 23.78125 -13.375 27.78125 -13.375 
Q 36.625 -13.375 41.015625 -8.765625 
Q 45.40625 -4.15625 45.40625 5.171875 
L 45.40625 9.625 
Q 42.625 4.78125 38.28125 2.390625 
Q 33.9375 0 27.875 0 
Q 17.828125 0 11.671875 7.65625 
Q 5.515625 15.328125 5.515625 27.984375 
Q 5.515625 40.671875 11.671875 48.328125 
Q 17.828125 56 27.875 56 
Q 33.9375 56 38.28125 53.609375 
Q 42.625 51.21875 45.40625 46.390625 
L 45.40625 54.6875 
L 54.390625 54.6875 
z
" id="DejaVuSans-67"/>
      </defs>
      <g transform="translate(504.415156 504.195937)scale(0.15 -0.15)">
       <use transform="translate(0 0.09375)" xlink:href="#DejaVuSans-Oblique-3bc"/>
       <use transform="translate(63.623047 0.09375)" xlink:href="#DejaVuSans-4d"/>
       <use transform="translate(149.902344 0.09375)" xlink:href="#DejaVuSans-65"/>
       <use transform="translate(211.425781 0.09375)" xlink:href="#DejaVuSans-72"/>
       <use transform="translate(252.539062 0.09375)" xlink:href="#DejaVuSans-67"/>
       <use transform="translate(316.015625 0.09375)" xlink:href="#DejaVuSans-65"/>
      </g>
     </g>
    </g>
    <g id="xtick_4">
     <g id="line2d_4">
      <g>
       <use style="stroke:#000000;stroke-width:0.8;" x="711.325156" xlink:href="#m9c4c80d191" y="485.82875"/>
      </g>
     </g>
     <g id="text_4">
      <!-- Bedtools Merge -->
      <defs>
       <path d="M 19.671875 34.8125 
L 19.671875 8.109375 
L 35.5 8.109375 
Q 43.453125 8.109375 47.28125 11.40625 
Q 51.125 14.703125 51.125 21.484375 
Q 51.125 28.328125 47.28125 31.5625 
Q 43.453125 34.8125 35.5 34.8125 
z
M 19.671875 64.796875 
L 19.671875 42.828125 
L 34.28125 42.828125 
Q 41.5 42.828125 45.03125 45.53125 
Q 48.578125 48.25 48.578125 53.8125 
Q 48.578125 59.328125 45.03125 62.0625 
Q 41.5 64.796875 34.28125 64.796875 
z
M 9.8125 72.90625 
L 35.015625 72.90625 
Q 46.296875 72.90625 52.390625 68.21875 
Q 58.5 63.53125 58.5 54.890625 
Q 58.5 48.1875 55.375 44.234375 
Q 52.25 40.28125 46.1875 39.3125 
Q 53.46875 37.75 57.5 32.78125 
Q 61.53125 27.828125 61.53125 20.40625 
Q 61.53125 10.640625 54.890625 5.3125 
Q 48.25 0 35.984375 0 
L 9.8125 0 
z
" id="DejaVuSans-42"/>
       <path d="M 45.40625 46.390625 
L 45.40625 75.984375 
L 54.390625 75.984375 
L 54.390625 0 
L 45.40625 0 
L 45.40625 8.203125 
Q 42.578125 3.328125 38.25 0.953125 
Q 33.9375 -1.421875 27.875 -1.421875 
Q 17.96875 -1.421875 11.734375 6.484375 
Q 5.515625 14.40625 5.515625 27.296875 
Q 5.515625 40.1875 11.734375 48.09375 
Q 17.96875 56 27.875 56 
Q 33.9375 56 38.25 53.625 
Q 42.578125 51.265625 45.40625 46.390625 
z
M 14.796875 27.296875 
Q 14.796875 17.390625 18.875 11.75 
Q 22.953125 6.109375 30.078125 6.109375 
Q 37.203125 6.109375 41.296875 11.75 
Q 45.40625 17.390625 45.40625 27.296875 
Q 45.40625 37.203125 41.296875 42.84375 
Q 37.203125 48.484375 30.078125 48.484375 
Q 22.953125 48.484375 18.875 42.84375 
Q 14.796875 37.203125 14.796875 27.296875 
z
" id="DejaVuSans-64"/>
       <path d="M 18.3125 70.21875 
L 18.3125 54.6875 
L 36.8125 54.6875 
L 36.8125 47.703125 
L 18.3125 47.703125 
L 18.3125 18.015625 
Q 18.3125 11.328125 20.140625 9.421875 
Q 21.96875 7.515625 27.59375 7.515625 
L 36.8125 7.515625 
L 36.8125 0 
L 27.59375 0 
Q 17.1875 0 13.234375 3.875 
Q 9.28125 7.765625 9.28125 18.015625 
L 9.28125 47.703125 
L 2.6875 47.703125 
L 2.6875 54.6875 
L 9.28125 54.6875 
L 9.28125 70.21875 
z
" id="DejaVuSans-74"/>
       <path d="M 30.609375 48.390625 
Q 23.390625 48.390625 19.1875 42.75 
Q 14.984375 37.109375 14.984375 27.296875 
Q 14.984375 17.484375 19.15625 11.84375 
Q 23.34375 6.203125 30.609375 6.203125 
Q 37.796875 6.203125 41.984375 11.859375 
Q 46.1875 17.53125 46.1875 27.296875 
Q 46.1875 37.015625 41.984375 42.703125 
Q 37.796875 48.390625 30.609375 48.390625 
z
M 30.609375 56 
Q 42.328125 56 49.015625 48.375 
Q 55.71875 40.765625 55.71875 27.296875 
Q 55.71875 13.875 49.015625 6.21875 
Q 42.328125 -1.421875 30.609375 -1.421875 
Q 18.84375 -1.421875 12.171875 6.21875 
Q 5.515625 13.875 5.515625 27.296875 
Q 5.515625 40.765625 12.171875 48.375 
Q 18.84375 56 30.609375 56 
z
" id="DejaVuSans-6f"/>
       <path d="M 9.421875 75.984375 
L 18.40625 75.984375 
L 18.40625 0 
L 9.421875 0 
z
" id="DejaVuSans-6c"/>
       <path d="M 44.28125 53.078125 
L 44.28125 44.578125 
Q 40.484375 46.53125 36.375 47.5 
Q 32.28125 48.484375 27.875 48.484375 
Q 21.1875 48.484375 17.84375 46.4375 
Q 14.5 44.390625 14.5 40.28125 
Q 14.5 37.15625 16.890625 35.375 
Q 19.28125 33.59375 26.515625 31.984375 
L 29.59375 31.296875 
Q 39.15625 29.25 43.1875 25.515625 
Q 47.21875 21.78125 47.21875 15.09375 
Q 47.21875 7.46875 41.1875 3.015625 
Q 35.15625 -1.421875 24.609375 -1.421875 
Q 20.21875 -1.421875 15.453125 -0.5625 
Q 10.6875 0.296875 5.421875 2 
L 5.421875 11.28125 
Q 10.40625 8.6875 15.234375 7.390625 
Q 20.0625 6.109375 24.8125 6.109375 
Q 31.15625 6.109375 34.5625 8.28125 
Q 37.984375 10.453125 37.984375 14.40625 
Q 37.984375 18.0625 35.515625 20.015625 
Q 33.0625 21.96875 24.703125 23.78125 
L 21.578125 24.515625 
Q 13.234375 26.265625 9.515625 29.90625 
Q 5.8125 33.546875 5.8125 39.890625 
Q 5.8125 47.609375 11.28125 51.796875 
Q 16.75 56 26.8125 56 
Q 31.78125 56 36.171875 55.265625 
Q 40.578125 54.546875 44.28125 53.078125 
z
" id="DejaVuSans-73"/>
      </defs>
      <g transform="translate(652.766563 504.226406)scale(0.15 -0.15)">
       <use xlink:href="#DejaVuSans-42"/>
       <use x="68.603516" xlink:href="#DejaVuSans-65"/>
       <use x="130.126953" xlink:href="#DejaVuSans-64"/>
       <use x="193.603516" xlink:href="#DejaVuSans-74"/>
       <use x="232.8125" xlink:href="#DejaVuSans-6f"/>
       <use x="293.994141" xlink:href="#DejaVuSans-6f"/>
       <use x="355.175781" xlink:href="#DejaVuSans-6c"/>
       <use x="382.958984" xlink:href="#DejaVuSans-73"/>
       <use x="435.058594" xlink:href="#DejaVuSans-20"/>
       <use x="466.845703" xlink:href="#DejaVuSans-4d"/>
       <use x="553.125" xlink:href="#DejaVuSans-65"/>
       <use x="614.648438" xlink:href="#DejaVuSans-72"/>
       <use x="655.746094" xlink:href="#DejaVuSans-67"/>
       <use x="719.222656" xlink:href="#DejaVuSans-65"/>
      </g>
     </g>
    </g>
    <g id="xtick_5">
     <g id="line2d_5">
      <g>
       <use style="stroke:#000000;stroke-width:0.8;" x="889.885156" xlink:href="#m9c4c80d191" y="485.82875"/>
      </g>
     </g>
     <g id="text_5">
      <!-- Bedtools Intersect -->
      <defs>
       <path d="M 9.8125 72.90625 
L 19.671875 72.90625 
L 19.671875 0 
L 9.8125 0 
z
" id="DejaVuSans-49"/>
       <path d="M 54.890625 33.015625 
L 54.890625 0 
L 45.90625 0 
L 45.90625 32.71875 
Q 45.90625 40.484375 42.875 44.328125 
Q 39.84375 48.1875 33.796875 48.1875 
Q 26.515625 48.1875 22.3125 43.546875 
Q 18.109375 38.921875 18.109375 30.90625 
L 18.109375 0 
L 9.078125 0 
L 9.078125 54.6875 
L 18.109375 54.6875 
L 18.109375 46.1875 
Q 21.34375 51.125 25.703125 53.5625 
Q 30.078125 56 35.796875 56 
Q 45.21875 56 50.046875 50.171875 
Q 54.890625 44.34375 54.890625 33.015625 
z
" id="DejaVuSans-6e"/>
       <path d="M 48.78125 52.59375 
L 48.78125 44.1875 
Q 44.96875 46.296875 41.140625 47.34375 
Q 37.3125 48.390625 33.40625 48.390625 
Q 24.65625 48.390625 19.8125 42.84375 
Q 14.984375 37.3125 14.984375 27.296875 
Q 14.984375 17.28125 19.8125 11.734375 
Q 24.65625 6.203125 33.40625 6.203125 
Q 37.3125 6.203125 41.140625 7.25 
Q 44.96875 8.296875 48.78125 10.40625 
L 48.78125 2.09375 
Q 45.015625 0.34375 40.984375 -0.53125 
Q 36.96875 -1.421875 32.421875 -1.421875 
Q 20.0625 -1.421875 12.78125 6.34375 
Q 5.515625 14.109375 5.515625 27.296875 
Q 5.515625 40.671875 12.859375 48.328125 
Q 20.21875 56 33.015625 56 
Q 37.15625 56 41.109375 55.140625 
Q 45.0625 54.296875 48.78125 52.59375 
z
" id="DejaVuSans-63"/>
      </defs>
      <g transform="translate(821.680859 504.226406)scale(0.15 -0.15)">
       <use xlink:href="#DejaVuSans-42"/>
       <use x="68.603516" xlink:href="#DejaVuSans-65"/>
       <use x="130.126953" xlink:href="#DejaVuSans-64"/>
       <use x="193.603516" xlink:href="#DejaVuSans-74"/>
       <use x="232.8125" xlink:href="#DejaVuSans-6f"/>
       <use x="293.994141" xlink:href="#DejaVuSans-6f"/>
       <use x="355.175781" xlink:href="#DejaVuSans-6c"/>
       <use x="382.958984" xlink:href="#DejaVuSans-73"/>
       <use x="435.058594" xlink:href="#DejaVuSans-20"/>
       <use x="466.845703" xlink:href="#DejaVuSans-49"/>
       <use x="496.337891" xlink:href="#DejaVuSans-6e"/>
       <use x="559.716797" xlink:href="#DejaVuSans-74"/>
       <use x="598.925781" xlink:href="#DejaVuSans-65"/>
       <use x="660.449219" xlink:href="#DejaVuSans-72"/>
       <use x="701.5625" xlink:href="#DejaVuSans-73"/>
       <use x="753.662109" xlink:href="#DejaVuSans-65"/>
       <use x="815.185547" xlink:href="#DejaVuSans-63"/>
       <use x="870.166016" xlink:href="#DejaVuSans-74"/>
      </g>
     </g>
    </g>
    <g id="text_6">
     <!--   -->
     <g transform="translate(531.176094 518.944375)scale(0.1 -0.1)">
      <use xlink:href="#DejaVuSans-20"/>
     </g>
    </g>
   </g>
   <g id="matplotlib.axis_2">
    <g id="ytick_1">
     <g id="line2d_6">
      <defs>
       <path d="M 0 0 
L -3.5 0 
" id="m84c3f12015" style="stroke:#000000;stroke-width:0.8;"/>
      </defs>
      <g>
       <use style="stroke:#000000;stroke-width:0.8;" x="86.365156" xlink:href="#m84c3f12015" y="464.007735"/>
      </g>
     </g>
     <g id="text_7">
      <!-- −1000 -->
      <defs>
       <path d="M 10.59375 35.5 
L 73.1875 35.5 
L 73.1875 27.203125 
L 10.59375 27.203125 
z
" id="DejaVuSans-2212"/>
       <path d="M 31.78125 66.40625 
Q 24.171875 66.40625 20.328125 58.90625 
Q 16.5 51.421875 16.5 36.375 
Q 16.5 21.390625 20.328125 13.890625 
Q 24.171875 6.390625 31.78125 6.390625 
Q 39.453125 6.390625 43.28125 13.890625 
Q 47.125 21.390625 47.125 36.375 
Q 47.125 51.421875 43.28125 58.90625 
Q 39.453125 66.40625 31.78125 66.40625 
z
M 31.78125 74.21875 
Q 44.046875 74.21875 50.515625 64.515625 
Q 56.984375 54.828125 56.984375 36.375 
Q 56.984375 17.96875 50.515625 8.265625 
Q 44.046875 -1.421875 31.78125 -1.421875 
Q 19.53125 -1.421875 13.0625 8.265625 
Q 6.59375 17.96875 6.59375 36.375 
Q 6.59375 54.828125 13.0625 64.515625 
Q 19.53125 74.21875 31.78125 74.21875 
z
" id="DejaVuSans-30"/>
      </defs>
      <g transform="translate(28.620625 469.706563)scale(0.15 -0.15)">
       <use xlink:href="#DejaVuSans-2212"/>
       <use x="83.789062" xlink:href="#DejaVuSans-31"/>
       <use x="147.412109" xlink:href="#DejaVuSans-30"/>
       <use x="211.035156" xlink:href="#DejaVuSans-30"/>
       <use x="274.658203" xlink:href="#DejaVuSans-30"/>
      </g>
     </g>
    </g>
    <g id="ytick_2">
     <g id="line2d_7">
      <g>
       <use style="stroke:#000000;stroke-width:0.8;" x="86.365156" xlink:href="#m84c3f12015" y="412.664169"/>
      </g>
     </g>
     <g id="text_8">
      <!-- −500 -->
      <defs>
       <path d="M 10.796875 72.90625 
L 49.515625 72.90625 
L 49.515625 64.59375 
L 19.828125 64.59375 
L 19.828125 46.734375 
Q 21.96875 47.46875 24.109375 47.828125 
Q 26.265625 48.1875 28.421875 48.1875 
Q 40.625 48.1875 47.75 41.5 
Q 54.890625 34.8125 54.890625 23.390625 
Q 54.890625 11.625 47.5625 5.09375 
Q 40.234375 -1.421875 26.90625 -1.421875 
Q 22.3125 -1.421875 17.546875 -0.640625 
Q 12.796875 0.140625 7.71875 1.703125 
L 7.71875 11.625 
Q 12.109375 9.234375 16.796875 8.0625 
Q 21.484375 6.890625 26.703125 6.890625 
Q 35.15625 6.890625 40.078125 11.328125 
Q 45.015625 15.765625 45.015625 23.390625 
Q 45.015625 31 40.078125 35.4375 
Q 35.15625 39.890625 26.703125 39.890625 
Q 22.75 39.890625 18.8125 39.015625 
Q 14.890625 38.140625 10.796875 36.28125 
z
" id="DejaVuSans-35"/>
      </defs>
      <g transform="translate(38.164375 418.362997)scale(0.15 -0.15)">
       <use xlink:href="#DejaVuSans-2212"/>
       <use x="83.789062" xlink:href="#DejaVuSans-35"/>
       <use x="147.412109" xlink:href="#DejaVuSans-30"/>
       <use x="211.035156" xlink:href="#DejaVuSans-30"/>
      </g>
     </g>
    </g>
    <g id="ytick_3">
     <g id="line2d_8">
      <g>
       <use style="stroke:#000000;stroke-width:0.8;" x="86.365156" xlink:href="#m84c3f12015" y="361.320604"/>
      </g>
     </g>
     <g id="text_9">
      <!-- 0 -->
      <g transform="translate(69.821406 367.019432)scale(0.15 -0.15)">
       <use xlink:href="#DejaVuSans-30"/>
      </g>
     </g>
    </g>
    <g id="ytick_4">
     <g id="line2d_9">
      <g>
       <use style="stroke:#000000;stroke-width:0.8;" x="86.365156" xlink:href="#m84c3f12015" y="309.977038"/>
      </g>
     </g>
     <g id="text_10">
      <!-- 500 -->
      <g transform="translate(50.733906 315.675866)scale(0.15 -0.15)">
       <use xlink:href="#DejaVuSans-35"/>
       <use x="63.623047" xlink:href="#DejaVuSans-30"/>
       <use x="127.246094" xlink:href="#DejaVuSans-30"/>
      </g>
     </g>
    </g>
    <g id="ytick_5">
     <g id="line2d_10">
      <g>
       <use style="stroke:#000000;stroke-width:0.8;" x="86.365156" xlink:href="#m84c3f12015" y="258.633473"/>
      </g>
     </g>
     <g id="text_11">
      <!-- 1000 -->
      <g transform="translate(41.190156 264.332301)scale(0.15 -0.15)">
       <use xlink:href="#DejaVuSans-31"/>
       <use x="63.623047" xlink:href="#DejaVuSans-30"/>
       <use x="127.246094" xlink:href="#DejaVuSans-30"/>
       <use x="190.869141" xlink:href="#DejaVuSans-30"/>
      </g>
     </g>
    </g>
    <g id="ytick_6">
     <g id="line2d_11">
      <g>
       <use style="stroke:#000000;stroke-width:0.8;" x="86.365156" xlink:href="#m84c3f12015" y="207.289907"/>
      </g>
     </g>
     <g id="text_12">
      <!-- 1500 -->
      <g transform="translate(41.190156 212.988735)scale(0.15 -0.15)">
       <use xlink:href="#DejaVuSans-31"/>
       <use x="63.623047" xlink:href="#DejaVuSans-35"/>
       <use x="127.246094" xlink:href="#DejaVuSans-30"/>
       <use x="190.869141" xlink:href="#DejaVuSans-30"/>
      </g>
     </g>
    </g>
    <g id="ytick_7">
     <g id="line2d_12">
      <g>
       <use style="stroke:#000000;stroke-width:0.8;" x="86.365156" xlink:href="#m84c3f12015" y="155.946341"/>
      </g>
     </g>
     <g id="text_13">
      <!-- 2000 -->
      <g transform="translate(41.190156 161.64517)scale(0.15 -0.15)">
       <use xlink:href="#DejaVuSans-32"/>
       <use x="63.623047" xlink:href="#DejaVuSans-30"/>
       <use x="127.246094" xlink:href="#DejaVuSans-30"/>
       <use x="190.869141" xlink:href="#DejaVuSans-30"/>
      </g>
     </g>
    </g>
    <g id="ytick_8">
     <g id="line2d_13">
      <g>
       <use style="stroke:#000000;stroke-width:0.8;" x="86.365156" xlink:href="#m84c3f12015" y="104.602776"/>
      </g>
     </g>
     <g id="text_14">
      <!-- 2500 -->
      <g transform="translate(41.190156 110.301604)scale(0.15 -0.15)">
       <use xlink:href="#DejaVuSans-32"/>
       <use x="63.623047" xlink:href="#DejaVuSans-35"/>
       <use x="127.246094" xlink:href="#DejaVuSans-30"/>
       <use x="190.869141" xlink:href="#DejaVuSans-30"/>
      </g>
     </g>
    </g>
    <g id="ytick_9">
     <g id="line2d_14">
      <g>
       <use style="stroke:#000000;stroke-width:0.8;" x="86.365156" xlink:href="#m84c3f12015" y="53.25921"/>
      </g>
     </g>
     <g id="text_15">
      <!-- 3000 -->
      <defs>
       <path d="M 40.578125 39.3125 
Q 47.65625 37.796875 51.625 33 
Q 55.609375 28.21875 55.609375 21.1875 
Q 55.609375 10.40625 48.1875 4.484375 
Q 40.765625 -1.421875 27.09375 -1.421875 
Q 22.515625 -1.421875 17.65625 -0.515625 
Q 12.796875 0.390625 7.625 2.203125 
L 7.625 11.71875 
Q 11.71875 9.328125 16.59375 8.109375 
Q 21.484375 6.890625 26.8125 6.890625 
Q 36.078125 6.890625 40.9375 10.546875 
Q 45.796875 14.203125 45.796875 21.1875 
Q 45.796875 27.640625 41.28125 31.265625 
Q 36.765625 34.90625 28.71875 34.90625 
L 20.21875 34.90625 
L 20.21875 43.015625 
L 29.109375 43.015625 
Q 36.375 43.015625 40.234375 45.921875 
Q 44.09375 48.828125 44.09375 54.296875 
Q 44.09375 59.90625 40.109375 62.90625 
Q 36.140625 65.921875 28.71875 65.921875 
Q 24.65625 65.921875 20.015625 65.03125 
Q 15.375 64.15625 9.8125 62.3125 
L 9.8125 71.09375 
Q 15.4375 72.65625 20.34375 73.4375 
Q 25.25 74.21875 29.59375 74.21875 
Q 40.828125 74.21875 47.359375 69.109375 
Q 53.90625 64.015625 53.90625 55.328125 
Q 53.90625 49.265625 50.4375 45.09375 
Q 46.96875 40.921875 40.578125 39.3125 
z
" id="DejaVuSans-33"/>
      </defs>
      <g transform="translate(41.190156 58.958039)scale(0.15 -0.15)">
       <use xlink:href="#DejaVuSans-33"/>
       <use x="63.623047" xlink:href="#DejaVuSans-30"/>
       <use x="127.246094" xlink:href="#DejaVuSans-30"/>
       <use x="190.869141" xlink:href="#DejaVuSans-30"/>
      </g>
     </g>
    </g>
    <g id="text_16">
     <!-- Peak Summit - TF Motif Distance (bp) -->
     <defs>
      <path d="M 19.671875 64.796875 
L 19.671875 37.40625 
L 32.078125 37.40625 
Q 38.96875 37.40625 42.71875 40.96875 
Q 46.484375 44.53125 46.484375 51.125 
Q 46.484375 57.671875 42.71875 61.234375 
Q 38.96875 64.796875 32.078125 64.796875 
z
M 9.8125 72.90625 
L 32.078125 72.90625 
Q 44.34375 72.90625 50.609375 67.359375 
Q 56.890625 61.8125 56.890625 51.125 
Q 56.890625 40.328125 50.609375 34.8125 
Q 44.34375 29.296875 32.078125 29.296875 
L 19.671875 29.296875 
L 19.671875 0 
L 9.8125 0 
z
" id="DejaVuSans-50"/>
      <path d="M 34.28125 27.484375 
Q 23.390625 27.484375 19.1875 25 
Q 14.984375 22.515625 14.984375 16.5 
Q 14.984375 11.71875 18.140625 8.90625 
Q 21.296875 6.109375 26.703125 6.109375 
Q 34.1875 6.109375 38.703125 11.40625 
Q 43.21875 16.703125 43.21875 25.484375 
L 43.21875 27.484375 
z
M 52.203125 31.203125 
L 52.203125 0 
L 43.21875 0 
L 43.21875 8.296875 
Q 40.140625 3.328125 35.546875 0.953125 
Q 30.953125 -1.421875 24.3125 -1.421875 
Q 15.921875 -1.421875 10.953125 3.296875 
Q 6 8.015625 6 15.921875 
Q 6 25.140625 12.171875 29.828125 
Q 18.359375 34.515625 30.609375 34.515625 
L 43.21875 34.515625 
L 43.21875 35.40625 
Q 43.21875 41.609375 39.140625 45 
Q 35.0625 48.390625 27.6875 48.390625 
Q 23 48.390625 18.546875 47.265625 
Q 14.109375 46.140625 10.015625 43.890625 
L 10.015625 52.203125 
Q 14.9375 54.109375 19.578125 55.046875 
Q 24.21875 56 28.609375 56 
Q 40.484375 56 46.34375 49.84375 
Q 52.203125 43.703125 52.203125 31.203125 
z
" id="DejaVuSans-61"/>
      <path d="M 9.078125 75.984375 
L 18.109375 75.984375 
L 18.109375 31.109375 
L 44.921875 54.6875 
L 56.390625 54.6875 
L 27.390625 29.109375 
L 57.625 0 
L 45.90625 0 
L 18.109375 26.703125 
L 18.109375 0 
L 9.078125 0 
z
" id="DejaVuSans-6b"/>
      <path d="M 8.5 21.578125 
L 8.5 54.6875 
L 17.484375 54.6875 
L 17.484375 21.921875 
Q 17.484375 14.15625 20.5 10.265625 
Q 23.53125 6.390625 29.59375 6.390625 
Q 36.859375 6.390625 41.078125 11.03125 
Q 45.3125 15.671875 45.3125 23.6875 
L 45.3125 54.6875 
L 54.296875 54.6875 
L 54.296875 0 
L 45.3125 0 
L 45.3125 8.40625 
Q 42.046875 3.421875 37.71875 1 
Q 33.40625 -1.421875 27.6875 -1.421875 
Q 18.265625 -1.421875 13.375 4.4375 
Q 8.5 10.296875 8.5 21.578125 
z
M 31.109375 56 
z
" id="DejaVuSans-75"/>
      <path d="M 52 44.1875 
Q 55.375 50.25 60.0625 53.125 
Q 64.75 56 71.09375 56 
Q 79.640625 56 84.28125 50.015625 
Q 88.921875 44.046875 88.921875 33.015625 
L 88.921875 0 
L 79.890625 0 
L 79.890625 32.71875 
Q 79.890625 40.578125 77.09375 44.375 
Q 74.3125 48.1875 68.609375 48.1875 
Q 61.625 48.1875 57.5625 43.546875 
Q 53.515625 38.921875 53.515625 30.90625 
L 53.515625 0 
L 44.484375 0 
L 44.484375 32.71875 
Q 44.484375 40.625 41.703125 44.40625 
Q 38.921875 48.1875 33.109375 48.1875 
Q 26.21875 48.1875 22.15625 43.53125 
Q 18.109375 38.875 18.109375 30.90625 
L 18.109375 0 
L 9.078125 0 
L 9.078125 54.6875 
L 18.109375 54.6875 
L 18.109375 46.1875 
Q 21.1875 51.21875 25.484375 53.609375 
Q 29.78125 56 35.6875 56 
Q 41.65625 56 45.828125 52.96875 
Q 50 49.953125 52 44.1875 
z
" id="DejaVuSans-6d"/>
      <path d="M 9.421875 54.6875 
L 18.40625 54.6875 
L 18.40625 0 
L 9.421875 0 
z
M 9.421875 75.984375 
L 18.40625 75.984375 
L 18.40625 64.59375 
L 9.421875 64.59375 
z
" id="DejaVuSans-69"/>
      <path d="M 4.890625 31.390625 
L 31.203125 31.390625 
L 31.203125 23.390625 
L 4.890625 23.390625 
z
" id="DejaVuSans-2d"/>
      <path d="M 37.109375 75.984375 
L 37.109375 68.5 
L 28.515625 68.5 
Q 23.6875 68.5 21.796875 66.546875 
Q 19.921875 64.59375 19.921875 59.515625 
L 19.921875 54.6875 
L 34.71875 54.6875 
L 34.71875 47.703125 
L 19.921875 47.703125 
L 19.921875 0 
L 10.890625 0 
L 10.890625 47.703125 
L 2.296875 47.703125 
L 2.296875 54.6875 
L 10.890625 54.6875 
L 10.890625 58.5 
Q 10.890625 67.625 15.140625 71.796875 
Q 19.390625 75.984375 28.609375 75.984375 
z
" id="DejaVuSans-66"/>
      <path d="M 19.671875 64.796875 
L 19.671875 8.109375 
L 31.59375 8.109375 
Q 46.6875 8.109375 53.6875 14.9375 
Q 60.6875 21.78125 60.6875 36.53125 
Q 60.6875 51.171875 53.6875 57.984375 
Q 46.6875 64.796875 31.59375 64.796875 
z
M 9.8125 72.90625 
L 30.078125 72.90625 
Q 51.265625 72.90625 61.171875 64.09375 
Q 71.09375 55.28125 71.09375 36.53125 
Q 71.09375 17.671875 61.125 8.828125 
Q 51.171875 0 30.078125 0 
L 9.8125 0 
z
" id="DejaVuSans-44"/>
      <path d="M 31 75.875 
Q 24.46875 64.65625 21.28125 53.65625 
Q 18.109375 42.671875 18.109375 31.390625 
Q 18.109375 20.125 21.3125 9.0625 
Q 24.515625 -2 31 -13.1875 
L 23.1875 -13.1875 
Q 15.875 -1.703125 12.234375 9.375 
Q 8.59375 20.453125 8.59375 31.390625 
Q 8.59375 42.28125 12.203125 53.3125 
Q 15.828125 64.359375 23.1875 75.875 
z
" id="DejaVuSans-28"/>
      <path d="M 48.6875 27.296875 
Q 48.6875 37.203125 44.609375 42.84375 
Q 40.53125 48.484375 33.40625 48.484375 
Q 26.265625 48.484375 22.1875 42.84375 
Q 18.109375 37.203125 18.109375 27.296875 
Q 18.109375 17.390625 22.1875 11.75 
Q 26.265625 6.109375 33.40625 6.109375 
Q 40.53125 6.109375 44.609375 11.75 
Q 48.6875 17.390625 48.6875 27.296875 
z
M 18.109375 46.390625 
Q 20.953125 51.265625 25.265625 53.625 
Q 29.59375 56 35.59375 56 
Q 45.5625 56 51.78125 48.09375 
Q 58.015625 40.1875 58.015625 27.296875 
Q 58.015625 14.40625 51.78125 6.484375 
Q 45.5625 -1.421875 35.59375 -1.421875 
Q 29.59375 -1.421875 25.265625 0.953125 
Q 20.953125 3.328125 18.109375 8.203125 
L 18.109375 0 
L 9.078125 0 
L 9.078125 75.984375 
L 18.109375 75.984375 
z
" id="DejaVuSans-62"/>
      <path d="M 18.109375 8.203125 
L 18.109375 -20.796875 
L 9.078125 -20.796875 
L 9.078125 54.6875 
L 18.109375 54.6875 
L 18.109375 46.390625 
Q 20.953125 51.265625 25.265625 53.625 
Q 29.59375 56 35.59375 56 
Q 45.5625 56 51.78125 48.09375 
Q 58.015625 40.1875 58.015625 27.296875 
Q 58.015625 14.40625 51.78125 6.484375 
Q 45.5625 -1.421875 35.59375 -1.421875 
Q 29.59375 -1.421875 25.265625 0.953125 
Q 20.953125 3.328125 18.109375 8.203125 
z
M 48.6875 27.296875 
Q 48.6875 37.203125 44.609375 42.84375 
Q 40.53125 48.484375 33.40625 48.484375 
Q 26.265625 48.484375 22.1875 42.84375 
Q 18.109375 37.203125 18.109375 27.296875 
Q 18.109375 17.390625 22.1875 11.75 
Q 26.265625 6.109375 33.40625 6.109375 
Q 40.53125 6.109375 44.609375 11.75 
Q 48.6875 17.390625 48.6875 27.296875 
z
" id="DejaVuSans-70"/>
      <path d="M 8.015625 75.875 
L 15.828125 75.875 
Q 23.140625 64.359375 26.78125 53.3125 
Q 30.421875 42.28125 30.421875 31.390625 
Q 30.421875 20.453125 26.78125 9.375 
Q 23.140625 -1.703125 15.828125 -13.1875 
L 8.015625 -13.1875 
Q 14.5 -2 17.703125 9.0625 
Q 20.90625 20.125 20.90625 31.390625 
Q 20.90625 42.671875 17.703125 53.65625 
Q 14.5 64.65625 8.015625 75.875 
z
" id="DejaVuSans-29"/>
     </defs>
     <g transform="translate(20.877187 436.408906)rotate(-90)scale(0.18 -0.18)">
      <use xlink:href="#DejaVuSans-50"/>
      <use x="60.255859" xlink:href="#DejaVuSans-65"/>
      <use x="121.779297" xlink:href="#DejaVuSans-61"/>
      <use x="183.058594" xlink:href="#DejaVuSans-6b"/>
      <use x="240.96875" xlink:href="#DejaVuSans-20"/>
      <use x="272.755859" xlink:href="#DejaVuSans-53"/>
      <use x="336.232422" xlink:href="#DejaVuSans-75"/>
      <use x="399.611328" xlink:href="#DejaVuSans-6d"/>
      <use x="497.023438" xlink:href="#DejaVuSans-6d"/>
      <use x="594.435547" xlink:href="#DejaVuSans-69"/>
      <use x="622.21875" xlink:href="#DejaVuSans-74"/>
      <use x="661.427734" xlink:href="#DejaVuSans-20"/>
      <use x="693.214844" xlink:href="#DejaVuSans-2d"/>
      <use x="729.298828" xlink:href="#DejaVuSans-20"/>
      <use x="761.085938" xlink:href="#DejaVuSans-54"/>
      <use x="822.169922" xlink:href="#DejaVuSans-46"/>
      <use x="879.689453" xlink:href="#DejaVuSans-20"/>
      <use x="911.476562" xlink:href="#DejaVuSans-4d"/>
      <use x="997.755859" xlink:href="#DejaVuSans-6f"/>
      <use x="1058.9375" xlink:href="#DejaVuSans-74"/>
      <use x="1098.146484" xlink:href="#DejaVuSans-69"/>
      <use x="1125.929688" xlink:href="#DejaVuSans-66"/>
      <use x="1161.134766" xlink:href="#DejaVuSans-20"/>
      <use x="1192.921875" xlink:href="#DejaVuSans-44"/>
      <use x="1269.923828" xlink:href="#DejaVuSans-69"/>
      <use x="1297.707031" xlink:href="#DejaVuSans-73"/>
      <use x="1349.806641" xlink:href="#DejaVuSans-74"/>
      <use x="1389.015625" xlink:href="#DejaVuSans-61"/>
      <use x="1450.294922" xlink:href="#DejaVuSans-6e"/>
      <use x="1513.673828" xlink:href="#DejaVuSans-63"/>
      <use x="1568.654297" xlink:href="#DejaVuSans-65"/>
      <use x="1630.177734" xlink:href="#DejaVuSans-20"/>
      <use x="1661.964844" xlink:href="#DejaVuSans-28"/>
      <use x="1700.978516" xlink:href="#DejaVuSans-62"/>
      <use x="1764.455078" xlink:href="#DejaVuSans-70"/>
      <use x="1827.931641" xlink:href="#DejaVuSans-29"/>
     </g>
    </g>
   </g>
   <g id="line2d_15">
    <path clip-path="url(#pd22336d0c1)" d="M 175.645156 372.924249 
L 175.645156 350.435768 
" style="fill:none;stroke:#3d3d3d;stroke-linecap:square;stroke-width:1.5;"/>
   </g>
   <g id="line2d_16">
    <path clip-path="url(#pd22336d0c1)" d="M 175.645156 364.503905 
L 175.645156 358.856112 
" style="fill:none;stroke:#3d3d3d;stroke-linecap:square;stroke-width:4.5;"/>
   </g>
   <g id="line2d_17">
    <path clip-path="url(#pd22336d0c1)" d="M 354.205156 374.669931 
L 354.205156 348.382025 
" style="fill:none;stroke:#3d3d3d;stroke-linecap:square;stroke-width:1.5;"/>
   </g>
   <g id="line2d_18">
    <path clip-path="url(#pd22336d0c1)" d="M 354.205156 364.811966 
L 354.205156 358.23999 
" style="fill:none;stroke:#3d3d3d;stroke-linecap:square;stroke-width:4.5;"/>
   </g>
   <g id="line2d_19">
    <path clip-path="url(#pd22336d0c1)" d="M 532.765156 371.281255 
L 532.765156 351.668013 
" style="fill:none;stroke:#3d3d3d;stroke-linecap:square;stroke-width:1.5;"/>
   </g>
   <g id="line2d_20">
    <path clip-path="url(#pd22336d0c1)" d="M 532.765156 363.990469 
L 532.765156 359.061487 
" style="fill:none;stroke:#3d3d3d;stroke-linecap:square;stroke-width:4.5;"/>
   </g>
   <g id="line2d_21">
    <path clip-path="url(#pd22336d0c1)" d="M 711.325156 372.616188 
L 711.325156 350.435768 
" style="fill:none;stroke:#3d3d3d;stroke-linecap:square;stroke-width:1.5;"/>
   </g>
   <g id="line2d_22">
    <path clip-path="url(#pd22336d0c1)" d="M 711.325156 364.29853 
L 711.325156 358.753425 
" style="fill:none;stroke:#3d3d3d;stroke-linecap:square;stroke-width:4.5;"/>
   </g>
   <g id="line2d_23">
    <path clip-path="url(#pd22336d0c1)" d="M 889.885156 372.821562 
L 889.885156 350.435768 
" style="fill:none;stroke:#3d3d3d;stroke-linecap:square;stroke-width:1.5;"/>
   </g>
   <g id="line2d_24">
    <path clip-path="url(#pd22336d0c1)" d="M 889.885156 364.503905 
L 889.885156 358.856112 
" style="fill:none;stroke:#3d3d3d;stroke-linecap:square;stroke-width:4.5;"/>
   </g>
   <g id="line2d_25">
    <path clip-path="url(#pd22336d0c1)" d="M 86.365156 361.320604 
L 979.165156 361.320604 
" style="fill:none;opacity:0.7;stroke:#ff0000;stroke-dasharray:7.4,3.2;stroke-dashoffset:0;stroke-width:2;"/>
   </g>
   <g id="patch_3">
    <path d="M 86.365156 485.82875 
L 86.365156 50.94875 
" style="fill:none;stroke:#000000;stroke-linecap:square;stroke-linejoin:miter;stroke-width:0.8;"/>
   </g>
   <g id="patch_4">
    <path d="M 86.365156 485.82875 
L 979.165156 485.82875 
" style="fill:none;stroke:#000000;stroke-linecap:square;stroke-linejoin:miter;stroke-width:0.8;"/>
   </g>
   <g id="PathCollection_1">
    <defs>
     <path d="M 0 1.5 
C 0.397805 1.5 0.77937 1.341951 1.06066 1.06066 
C 1.341951 0.77937 1.5 0.397805 1.5 0 
C 1.5 -0.397805 1.341951 -0.77937 1.06066 -1.06066 
C 0.77937 -1.341951 0.397805 -1.5 0 -1.5 
C -0.397805 -1.5 -0.77937 -1.341951 -1.06066 -1.06066 
C -1.341951 -0.77937 -1.5 -0.397805 -1.5 0 
C -1.5 0.397805 -1.341951 0.77937 -1.06066 1.06066 
C -0.77937 1.341951 -0.397805 1.5 0 1.5 
z
" id="m77556cf17e" style="stroke:#3d3d3d;"/>
    </defs>
    <g clip-path="url(#pd22336d0c1)">
     <use style="fill:#ffffff;stroke:#3d3d3d;" x="175.645156" xlink:href="#m77556cf17e" y="361.628665"/>
    </g>
   </g>
   <g id="PathCollection_2">
    <g clip-path="url(#pd22336d0c1)">
     <use style="fill:#ffffff;stroke:#3d3d3d;" x="354.205156" xlink:href="#m77556cf17e" y="361.525978"/>
    </g>
   </g>
   <g id="PathCollection_3">
    <g clip-path="url(#pd22336d0c1)">
     <use style="fill:#ffffff;stroke:#3d3d3d;" x="532.765156" xlink:href="#m77556cf17e" y="361.577321"/>
    </g>
   </g>
   <g id="PathCollection_4">
    <g clip-path="url(#pd22336d0c1)">
     <use style="fill:#ffffff;stroke:#3d3d3d;" x="711.325156" xlink:href="#m77556cf17e" y="361.525978"/>
    </g>
   </g>
   <g id="PathCollection_5">
    <g clip-path="url(#pd22336d0c1)">
     <use style="fill:#ffffff;stroke:#3d3d3d;" x="889.885156" xlink:href="#m77556cf17e" y="361.628665"/>
    </g>
   </g>
   <g id="text_17">
    <!-- N = 2502 -->
    <defs>
     <path d="M 9.8125 72.90625 
L 23.09375 72.90625 
L 55.421875 11.921875 
L 55.421875 72.90625 
L 64.984375 72.90625 
L 64.984375 0 
L 51.703125 0 
L 19.390625 60.984375 
L 19.390625 0 
L 9.8125 0 
z
" id="DejaVuSans-4e"/>
     <path d="M 10.59375 45.40625 
L 73.1875 45.40625 
L 73.1875 37.203125 
L 10.59375 37.203125 
z
M 10.59375 25.484375 
L 73.1875 25.484375 
L 73.1875 17.1875 
L 10.59375 17.1875 
z
" id="DejaVuSans-3d"/>
    </defs>
    <g style="fill:#0000ff;" transform="translate(193.501156 191.167481)scale(0.16 -0.16)">
     <use xlink:href="#DejaVuSans-4e"/>
     <use x="74.804688" xlink:href="#DejaVuSans-20"/>
     <use x="106.591797" xlink:href="#DejaVuSans-3d"/>
     <use x="190.380859" xlink:href="#DejaVuSans-20"/>
     <use x="222.167969" xlink:href="#DejaVuSans-32"/>
     <use x="285.791016" xlink:href="#DejaVuSans-35"/>
     <use x="349.414062" xlink:href="#DejaVuSans-30"/>
     <use x="413.037109" xlink:href="#DejaVuSans-32"/>
    </g>
   </g>
   <g id="text_18">
    <!-- Var = 10825.54 -->
    <defs>
     <path d="M 28.609375 0 
L 0.78125 72.90625 
L 11.078125 72.90625 
L 34.1875 11.53125 
L 57.328125 72.90625 
L 67.578125 72.90625 
L 39.796875 0 
z
" id="DejaVuSans-56"/>
     <path d="M 31.78125 34.625 
Q 24.75 34.625 20.71875 30.859375 
Q 16.703125 27.09375 16.703125 20.515625 
Q 16.703125 13.921875 20.71875 10.15625 
Q 24.75 6.390625 31.78125 6.390625 
Q 38.8125 6.390625 42.859375 10.171875 
Q 46.921875 13.96875 46.921875 20.515625 
Q 46.921875 27.09375 42.890625 30.859375 
Q 38.875 34.625 31.78125 34.625 
z
M 21.921875 38.8125 
Q 15.578125 40.375 12.03125 44.71875 
Q 8.5 49.078125 8.5 55.328125 
Q 8.5 64.0625 14.71875 69.140625 
Q 20.953125 74.21875 31.78125 74.21875 
Q 42.671875 74.21875 48.875 69.140625 
Q 55.078125 64.0625 55.078125 55.328125 
Q 55.078125 49.078125 51.53125 44.71875 
Q 48 40.375 41.703125 38.8125 
Q 48.828125 37.15625 52.796875 32.3125 
Q 56.78125 27.484375 56.78125 20.515625 
Q 56.78125 9.90625 50.3125 4.234375 
Q 43.84375 -1.421875 31.78125 -1.421875 
Q 19.734375 -1.421875 13.25 4.234375 
Q 6.78125 9.90625 6.78125 20.515625 
Q 6.78125 27.484375 10.78125 32.3125 
Q 14.796875 37.15625 21.921875 38.8125 
z
M 18.3125 54.390625 
Q 18.3125 48.734375 21.84375 45.5625 
Q 25.390625 42.390625 31.78125 42.390625 
Q 38.140625 42.390625 41.71875 45.5625 
Q 45.3125 48.734375 45.3125 54.390625 
Q 45.3125 60.0625 41.71875 63.234375 
Q 38.140625 66.40625 31.78125 66.40625 
Q 25.390625 66.40625 21.84375 63.234375 
Q 18.3125 60.0625 18.3125 54.390625 
z
" id="DejaVuSans-38"/>
     <path d="M 10.6875 12.40625 
L 21 12.40625 
L 21 0 
L 10.6875 0 
z
" id="DejaVuSans-2e"/>
     <path d="M 37.796875 64.3125 
L 12.890625 25.390625 
L 37.796875 25.390625 
z
M 35.203125 72.90625 
L 47.609375 72.90625 
L 47.609375 25.390625 
L 58.015625 25.390625 
L 58.015625 17.1875 
L 47.609375 17.1875 
L 47.609375 0 
L 37.796875 0 
L 37.796875 17.1875 
L 4.890625 17.1875 
L 4.890625 26.703125 
z
" id="DejaVuSans-34"/>
    </defs>
    <g style="fill:#0000ff;" transform="translate(193.501156 211.704907)scale(0.16 -0.16)">
     <use xlink:href="#DejaVuSans-56"/>
     <use x="68.298828" xlink:href="#DejaVuSans-61"/>
     <use x="129.578125" xlink:href="#DejaVuSans-72"/>
     <use x="170.691406" xlink:href="#DejaVuSans-20"/>
     <use x="202.478516" xlink:href="#DejaVuSans-3d"/>
     <use x="286.267578" xlink:href="#DejaVuSans-20"/>
     <use x="318.054688" xlink:href="#DejaVuSans-31"/>
     <use x="381.677734" xlink:href="#DejaVuSans-30"/>
     <use x="445.300781" xlink:href="#DejaVuSans-38"/>
     <use x="508.923828" xlink:href="#DejaVuSans-32"/>
     <use x="572.546875" xlink:href="#DejaVuSans-35"/>
     <use x="636.169922" xlink:href="#DejaVuSans-2e"/>
     <use x="667.957031" xlink:href="#DejaVuSans-35"/>
     <use x="731.580078" xlink:href="#DejaVuSans-34"/>
    </g>
   </g>
   <g id="text_19">
    <!-- N = 2019 -->
    <defs>
     <path d="M 10.984375 1.515625 
L 10.984375 10.5 
Q 14.703125 8.734375 18.5 7.8125 
Q 22.3125 6.890625 25.984375 6.890625 
Q 35.75 6.890625 40.890625 13.453125 
Q 46.046875 20.015625 46.78125 33.40625 
Q 43.953125 29.203125 39.59375 26.953125 
Q 35.25 24.703125 29.984375 24.703125 
Q 19.046875 24.703125 12.671875 31.3125 
Q 6.296875 37.9375 6.296875 49.421875 
Q 6.296875 60.640625 12.9375 67.421875 
Q 19.578125 74.21875 30.609375 74.21875 
Q 43.265625 74.21875 49.921875 64.515625 
Q 56.59375 54.828125 56.59375 36.375 
Q 56.59375 19.140625 48.40625 8.859375 
Q 40.234375 -1.421875 26.421875 -1.421875 
Q 22.703125 -1.421875 18.890625 -0.6875 
Q 15.09375 0.046875 10.984375 1.515625 
z
M 30.609375 32.421875 
Q 37.25 32.421875 41.125 36.953125 
Q 45.015625 41.5 45.015625 49.421875 
Q 45.015625 57.28125 41.125 61.84375 
Q 37.25 66.40625 30.609375 66.40625 
Q 23.96875 66.40625 20.09375 61.84375 
Q 16.21875 57.28125 16.21875 49.421875 
Q 16.21875 41.5 20.09375 36.953125 
Q 23.96875 32.421875 30.609375 32.421875 
z
" id="DejaVuSans-39"/>
    </defs>
    <g style="fill:#0000ff;" transform="translate(372.061156 191.167481)scale(0.16 -0.16)">
     <use xlink:href="#DejaVuSans-4e"/>
     <use x="74.804688" xlink:href="#DejaVuSans-20"/>
     <use x="106.591797" xlink:href="#DejaVuSans-3d"/>
     <use x="190.380859" xlink:href="#DejaVuSans-20"/>
     <use x="222.167969" xlink:href="#DejaVuSans-32"/>
     <use x="285.791016" xlink:href="#DejaVuSans-30"/>
     <use x="349.414062" xlink:href="#DejaVuSans-31"/>
     <use x="413.037109" xlink:href="#DejaVuSans-39"/>
    </g>
   </g>
   <g id="text_20">
    <!-- Var = 6212.0 -->
    <defs>
     <path d="M 33.015625 40.375 
Q 26.375 40.375 22.484375 35.828125 
Q 18.609375 31.296875 18.609375 23.390625 
Q 18.609375 15.53125 22.484375 10.953125 
Q 26.375 6.390625 33.015625 6.390625 
Q 39.65625 6.390625 43.53125 10.953125 
Q 47.40625 15.53125 47.40625 23.390625 
Q 47.40625 31.296875 43.53125 35.828125 
Q 39.65625 40.375 33.015625 40.375 
z
M 52.59375 71.296875 
L 52.59375 62.3125 
Q 48.875 64.0625 45.09375 64.984375 
Q 41.3125 65.921875 37.59375 65.921875 
Q 27.828125 65.921875 22.671875 59.328125 
Q 17.53125 52.734375 16.796875 39.40625 
Q 19.671875 43.65625 24.015625 45.921875 
Q 28.375 48.1875 33.59375 48.1875 
Q 44.578125 48.1875 50.953125 41.515625 
Q 57.328125 34.859375 57.328125 23.390625 
Q 57.328125 12.15625 50.6875 5.359375 
Q 44.046875 -1.421875 33.015625 -1.421875 
Q 20.359375 -1.421875 13.671875 8.265625 
Q 6.984375 17.96875 6.984375 36.375 
Q 6.984375 53.65625 15.1875 63.9375 
Q 23.390625 74.21875 37.203125 74.21875 
Q 40.921875 74.21875 44.703125 73.484375 
Q 48.484375 72.75 52.59375 71.296875 
z
" id="DejaVuSans-36"/>
    </defs>
    <g style="fill:#0000ff;" transform="translate(372.061156 211.704907)scale(0.16 -0.16)">
     <use xlink:href="#DejaVuSans-56"/>
     <use x="68.298828" xlink:href="#DejaVuSans-61"/>
     <use x="129.578125" xlink:href="#DejaVuSans-72"/>
     <use x="170.691406" xlink:href="#DejaVuSans-20"/>
     <use x="202.478516" xlink:href="#DejaVuSans-3d"/>
     <use x="286.267578" xlink:href="#DejaVuSans-20"/>
     <use x="318.054688" xlink:href="#DejaVuSans-36"/>
     <use x="381.677734" xlink:href="#DejaVuSans-32"/>
     <use x="445.300781" xlink:href="#DejaVuSans-31"/>
     <use x="508.923828" xlink:href="#DejaVuSans-32"/>
     <use x="572.546875" xlink:href="#DejaVuSans-2e"/>
     <use x="604.333984" xlink:href="#DejaVuSans-30"/>
    </g>
   </g>
   <g id="text_21">
    <!-- N = 2508 -->
    <g style="fill:#0000ff;" transform="translate(550.621156 191.167481)scale(0.16 -0.16)">
     <use xlink:href="#DejaVuSans-4e"/>
     <use x="74.804688" xlink:href="#DejaVuSans-20"/>
     <use x="106.591797" xlink:href="#DejaVuSans-3d"/>
     <use x="190.380859" xlink:href="#DejaVuSans-20"/>
     <use x="222.167969" xlink:href="#DejaVuSans-32"/>
     <use x="285.791016" xlink:href="#DejaVuSans-35"/>
     <use x="349.414062" xlink:href="#DejaVuSans-30"/>
     <use x="413.037109" xlink:href="#DejaVuSans-38"/>
    </g>
   </g>
   <g id="text_22">
    <!-- Var = 8103.21 -->
    <g style="fill:#0000ff;" transform="translate(550.621156 211.704907)scale(0.16 -0.16)">
     <use xlink:href="#DejaVuSans-56"/>
     <use x="68.298828" xlink:href="#DejaVuSans-61"/>
     <use x="129.578125" xlink:href="#DejaVuSans-72"/>
     <use x="170.691406" xlink:href="#DejaVuSans-20"/>
     <use x="202.478516" xlink:href="#DejaVuSans-3d"/>
     <use x="286.267578" xlink:href="#DejaVuSans-20"/>
     <use x="318.054688" xlink:href="#DejaVuSans-38"/>
     <use x="381.677734" xlink:href="#DejaVuSans-31"/>
     <use x="445.300781" xlink:href="#DejaVuSans-30"/>
     <use x="508.923828" xlink:href="#DejaVuSans-33"/>
     <use x="572.546875" xlink:href="#DejaVuSans-2e"/>
     <use x="604.333984" xlink:href="#DejaVuSans-32"/>
     <use x="667.957031" xlink:href="#DejaVuSans-31"/>
    </g>
   </g>
   <g id="text_23">
    <!-- N = 2507 -->
    <g style="fill:#0000ff;" transform="translate(729.181156 191.167481)scale(0.16 -0.16)">
     <use xlink:href="#DejaVuSans-4e"/>
     <use x="74.804688" xlink:href="#DejaVuSans-20"/>
     <use x="106.591797" xlink:href="#DejaVuSans-3d"/>
     <use x="190.380859" xlink:href="#DejaVuSans-20"/>
     <use x="222.167969" xlink:href="#DejaVuSans-32"/>
     <use x="285.791016" xlink:href="#DejaVuSans-35"/>
     <use x="349.414062" xlink:href="#DejaVuSans-30"/>
     <use x="413.037109" xlink:href="#DejaVuSans-37"/>
    </g>
   </g>
   <g id="text_24">
    <!-- Var = 10888.6 -->
    <g style="fill:#0000ff;" transform="translate(729.181156 211.704907)scale(0.16 -0.16)">
     <use xlink:href="#DejaVuSans-56"/>
     <use x="68.298828" xlink:href="#DejaVuSans-61"/>
     <use x="129.578125" xlink:href="#DejaVuSans-72"/>
     <use x="170.691406" xlink:href="#DejaVuSans-20"/>
     <use x="202.478516" xlink:href="#DejaVuSans-3d"/>
     <use x="286.267578" xlink:href="#DejaVuSans-20"/>
     <use x="318.054688" xlink:href="#DejaVuSans-31"/>
     <use x="381.677734" xlink:href="#DejaVuSans-30"/>
     <use x="445.300781" xlink:href="#DejaVuSans-38"/>
     <use x="508.923828" xlink:href="#DejaVuSans-38"/>
     <use x="572.546875" xlink:href="#DejaVuSans-38"/>
     <use x="636.169922" xlink:href="#DejaVuSans-2e"/>
     <use x="667.957031" xlink:href="#DejaVuSans-36"/>
    </g>
   </g>
   <g id="text_25">
    <!-- N = 2012 -->
    <g style="fill:#0000ff;" transform="translate(907.741156 191.167481)scale(0.16 -0.16)">
     <use xlink:href="#DejaVuSans-4e"/>
     <use x="74.804688" xlink:href="#DejaVuSans-20"/>
     <use x="106.591797" xlink:href="#DejaVuSans-3d"/>
     <use x="190.380859" xlink:href="#DejaVuSans-20"/>
     <use x="222.167969" xlink:href="#DejaVuSans-32"/>
     <use x="285.791016" xlink:href="#DejaVuSans-30"/>
     <use x="349.414062" xlink:href="#DejaVuSans-31"/>
     <use x="413.037109" xlink:href="#DejaVuSans-32"/>
    </g>
   </g>
   <g id="text_26">
    <!-- Var = 5203.48 -->
    <g style="fill:#0000ff;" transform="translate(907.741156 211.704907)scale(0.16 -0.16)">
     <use xlink:href="#DejaVuSans-56"/>
     <use x="68.298828" xlink:href="#DejaVuSans-61"/>
     <use x="129.578125" xlink:href="#DejaVuSans-72"/>
     <use x="170.691406" xlink:href="#DejaVuSans-20"/>
     <use x="202.478516" xlink:href="#DejaVuSans-3d"/>
     <use x="286.267578" xlink:href="#DejaVuSans-20"/>
     <use x="318.054688" xlink:href="#DejaVuSans-35"/>
     <use x="381.677734" xlink:href="#DejaVuSans-32"/>
     <use x="445.300781" xlink:href="#DejaVuSans-30"/>
     <use x="508.923828" xlink:href="#DejaVuSans-33"/>
     <use x="572.546875" xlink:href="#DejaVuSans-2e"/>
     <use x="604.333984" xlink:href="#DejaVuSans-34"/>
     <use x="667.957031" xlink:href="#DejaVuSans-38"/>
    </g>
   </g>
   <g id="text_27">
    <!-- Distances between region centers and TF motifs  -->
    <defs>
     <path d="M 27.984375 58.6875 
L 27.984375 14.203125 
L 34.71875 14.203125 
Q 46.234375 14.203125 52.3125 19.921875 
Q 58.40625 25.640625 58.40625 36.53125 
Q 58.40625 47.359375 52.34375 53.015625 
Q 46.296875 58.6875 34.71875 58.6875 
z
M 9.1875 72.90625 
L 29 72.90625 
Q 45.609375 72.90625 53.734375 70.53125 
Q 61.859375 68.171875 67.671875 62.5 
Q 72.796875 57.5625 75.28125 51.109375 
Q 77.78125 44.671875 77.78125 36.53125 
Q 77.78125 28.265625 75.28125 21.796875 
Q 72.796875 15.328125 67.671875 10.40625 
Q 61.8125 4.734375 53.609375 2.359375 
Q 45.40625 0 29 0 
L 9.1875 0 
z
" id="DejaVuSans-Bold-44"/>
     <path d="M 8.40625 54.6875 
L 25.875 54.6875 
L 25.875 0 
L 8.40625 0 
z
M 8.40625 75.984375 
L 25.875 75.984375 
L 25.875 61.71875 
L 8.40625 61.71875 
z
" id="DejaVuSans-Bold-69"/>
     <path d="M 51.125 52.984375 
L 51.125 39.703125 
Q 45.515625 42.046875 40.28125 43.21875 
Q 35.0625 44.390625 30.421875 44.390625 
Q 25.4375 44.390625 23.015625 43.140625 
Q 20.609375 41.890625 20.609375 39.3125 
Q 20.609375 37.203125 22.4375 36.078125 
Q 24.265625 34.96875 29 34.421875 
L 32.078125 33.984375 
Q 45.515625 32.28125 50.140625 28.375 
Q 54.78125 24.46875 54.78125 16.109375 
Q 54.78125 7.375 48.328125 2.96875 
Q 41.890625 -1.421875 29.109375 -1.421875 
Q 23.6875 -1.421875 17.890625 -0.5625 
Q 12.109375 0.296875 6 2 
L 6 15.28125 
Q 11.234375 12.75 16.71875 11.46875 
Q 22.21875 10.203125 27.875 10.203125 
Q 33.015625 10.203125 35.59375 11.609375 
Q 38.1875 13.03125 38.1875 15.828125 
Q 38.1875 18.171875 36.40625 19.3125 
Q 34.625 20.453125 29.296875 21.09375 
L 26.21875 21.484375 
Q 14.546875 22.953125 9.859375 26.90625 
Q 5.171875 30.859375 5.171875 38.921875 
Q 5.171875 47.609375 11.125 51.796875 
Q 17.09375 56 29.390625 56 
Q 34.234375 56 39.546875 55.265625 
Q 44.875 54.546875 51.125 52.984375 
z
" id="DejaVuSans-Bold-73"/>
     <path d="M 27.484375 70.21875 
L 27.484375 54.6875 
L 45.515625 54.6875 
L 45.515625 42.1875 
L 27.484375 42.1875 
L 27.484375 19 
Q 27.484375 15.1875 29 13.84375 
Q 30.515625 12.5 35.015625 12.5 
L 44 12.5 
L 44 0 
L 29 0 
Q 18.65625 0 14.328125 4.3125 
Q 10.015625 8.640625 10.015625 19 
L 10.015625 42.1875 
L 1.3125 42.1875 
L 1.3125 54.6875 
L 10.015625 54.6875 
L 10.015625 70.21875 
z
" id="DejaVuSans-Bold-74"/>
     <path d="M 32.90625 24.609375 
Q 27.4375 24.609375 24.671875 22.75 
Q 21.921875 20.90625 21.921875 17.28125 
Q 21.921875 13.96875 24.140625 12.078125 
Q 26.375 10.203125 30.328125 10.203125 
Q 35.25 10.203125 38.625 13.734375 
Q 42 17.28125 42 22.609375 
L 42 24.609375 
z
M 59.625 31.203125 
L 59.625 0 
L 42 0 
L 42 8.109375 
Q 38.484375 3.125 34.078125 0.84375 
Q 29.6875 -1.421875 23.390625 -1.421875 
Q 14.890625 -1.421875 9.59375 3.53125 
Q 4.296875 8.5 4.296875 16.40625 
Q 4.296875 26.03125 10.90625 30.515625 
Q 17.53125 35.015625 31.6875 35.015625 
L 42 35.015625 
L 42 36.375 
Q 42 40.53125 38.71875 42.453125 
Q 35.453125 44.390625 28.515625 44.390625 
Q 22.90625 44.390625 18.0625 43.265625 
Q 13.234375 42.140625 9.078125 39.890625 
L 9.078125 53.21875 
Q 14.703125 54.59375 20.359375 55.296875 
Q 26.03125 56 31.6875 56 
Q 46.484375 56 53.046875 50.171875 
Q 59.625 44.34375 59.625 31.203125 
z
" id="DejaVuSans-Bold-61"/>
     <path d="M 63.375 33.296875 
L 63.375 0 
L 45.796875 0 
L 45.796875 5.421875 
L 45.796875 25.484375 
Q 45.796875 32.5625 45.484375 35.25 
Q 45.171875 37.9375 44.390625 39.203125 
Q 43.359375 40.921875 41.59375 41.875 
Q 39.84375 42.828125 37.59375 42.828125 
Q 32.125 42.828125 29 38.59375 
Q 25.875 34.375 25.875 26.90625 
L 25.875 0 
L 8.40625 0 
L 8.40625 54.6875 
L 25.875 54.6875 
L 25.875 46.6875 
Q 29.828125 51.46875 34.265625 53.734375 
Q 38.71875 56 44.09375 56 
Q 53.5625 56 58.46875 50.1875 
Q 63.375 44.390625 63.375 33.296875 
z
" id="DejaVuSans-Bold-6e"/>
     <path d="M 52.59375 52.984375 
L 52.59375 38.71875 
Q 49.03125 41.15625 45.4375 42.328125 
Q 41.84375 43.5 37.984375 43.5 
Q 30.671875 43.5 26.59375 39.234375 
Q 22.515625 34.96875 22.515625 27.296875 
Q 22.515625 19.625 26.59375 15.34375 
Q 30.671875 11.078125 37.984375 11.078125 
Q 42.09375 11.078125 45.78125 12.296875 
Q 49.46875 13.53125 52.59375 15.921875 
L 52.59375 1.609375 
Q 48.484375 0.09375 44.265625 -0.65625 
Q 40.046875 -1.421875 35.796875 -1.421875 
Q 21 -1.421875 12.640625 6.171875 
Q 4.296875 13.765625 4.296875 27.296875 
Q 4.296875 40.828125 12.640625 48.40625 
Q 21 56 35.796875 56 
Q 40.09375 56 44.265625 55.25 
Q 48.4375 54.5 52.59375 52.984375 
z
" id="DejaVuSans-Bold-63"/>
     <path d="M 62.984375 27.484375 
L 62.984375 22.515625 
L 22.125 22.515625 
Q 22.75 16.359375 26.5625 13.28125 
Q 30.375 10.203125 37.203125 10.203125 
Q 42.71875 10.203125 48.5 11.84375 
Q 54.296875 13.484375 60.40625 16.796875 
L 60.40625 3.328125 
Q 54.203125 0.984375 48 -0.21875 
Q 41.796875 -1.421875 35.59375 -1.421875 
Q 20.75 -1.421875 12.515625 6.125 
Q 4.296875 13.671875 4.296875 27.296875 
Q 4.296875 40.671875 12.375 48.328125 
Q 20.453125 56 34.625 56 
Q 47.515625 56 55.25 48.234375 
Q 62.984375 40.484375 62.984375 27.484375 
z
M 45.015625 33.296875 
Q 45.015625 38.28125 42.109375 41.328125 
Q 39.203125 44.390625 34.515625 44.390625 
Q 29.4375 44.390625 26.265625 41.53125 
Q 23.09375 38.671875 22.3125 33.296875 
z
" id="DejaVuSans-Bold-65"/>
     <path id="DejaVuSans-Bold-20"/>
     <path d="M 37.5 11.28125 
Q 43.109375 11.28125 46.0625 15.375 
Q 49.03125 19.484375 49.03125 27.296875 
Q 49.03125 35.109375 46.0625 39.203125 
Q 43.109375 43.3125 37.5 43.3125 
Q 31.890625 43.3125 28.875 39.1875 
Q 25.875 35.0625 25.875 27.296875 
Q 25.875 19.53125 28.875 15.40625 
Q 31.890625 11.28125 37.5 11.28125 
z
M 25.875 46.6875 
Q 29.5 51.46875 33.890625 53.734375 
Q 38.28125 56 44 56 
Q 54.109375 56 60.59375 47.96875 
Q 67.09375 39.9375 67.09375 27.296875 
Q 67.09375 14.65625 60.59375 6.609375 
Q 54.109375 -1.421875 44 -1.421875 
Q 38.28125 -1.421875 33.890625 0.84375 
Q 29.5 3.125 25.875 7.90625 
L 25.875 0 
L 8.40625 0 
L 8.40625 75.984375 
L 25.875 75.984375 
z
" id="DejaVuSans-Bold-62"/>
     <path d="M 3.515625 54.6875 
L 20.515625 54.6875 
L 29.6875 17 
L 38.921875 54.6875 
L 53.515625 54.6875 
L 62.703125 17.390625 
L 71.921875 54.6875 
L 88.921875 54.6875 
L 74.515625 0 
L 55.421875 0 
L 46.1875 37.59375 
L 37.015625 0 
L 17.921875 0 
z
" id="DejaVuSans-Bold-77"/>
     <path d="M 49.03125 39.796875 
Q 46.734375 40.875 44.453125 41.375 
Q 42.1875 41.890625 39.890625 41.890625 
Q 33.15625 41.890625 29.515625 37.5625 
Q 25.875 33.25 25.875 25.203125 
L 25.875 0 
L 8.40625 0 
L 8.40625 54.6875 
L 25.875 54.6875 
L 25.875 45.703125 
Q 29.25 51.078125 33.609375 53.53125 
Q 37.984375 56 44.09375 56 
Q 44.96875 56 45.984375 55.921875 
Q 47.015625 55.859375 48.96875 55.609375 
z
" id="DejaVuSans-Bold-72"/>
     <path d="M 45.609375 9.28125 
Q 42 4.5 37.640625 2.25 
Q 33.296875 0 27.59375 0 
Q 17.578125 0 11.03125 7.875 
Q 4.5 15.765625 4.5 27.984375 
Q 4.5 40.234375 11.03125 48.0625 
Q 17.578125 55.90625 27.59375 55.90625 
Q 33.296875 55.90625 37.640625 53.65625 
Q 42 51.421875 45.609375 46.578125 
L 45.609375 54.6875 
L 63.1875 54.6875 
L 63.1875 5.515625 
Q 63.1875 -7.671875 54.859375 -14.625 
Q 46.53125 -21.578125 30.71875 -21.578125 
Q 25.59375 -21.578125 20.796875 -20.796875 
Q 16.015625 -20.015625 11.1875 -18.40625 
L 11.1875 -4.78125 
Q 15.765625 -7.421875 20.15625 -8.71875 
Q 24.5625 -10.015625 29 -10.015625 
Q 37.59375 -10.015625 41.59375 -6.25 
Q 45.609375 -2.484375 45.609375 5.515625 
z
M 34.078125 43.3125 
Q 28.65625 43.3125 25.625 39.296875 
Q 22.609375 35.296875 22.609375 27.984375 
Q 22.609375 20.453125 25.53125 16.578125 
Q 28.46875 12.703125 34.078125 12.703125 
Q 39.546875 12.703125 42.578125 16.703125 
Q 45.609375 20.703125 45.609375 27.984375 
Q 45.609375 35.296875 42.578125 39.296875 
Q 39.546875 43.3125 34.078125 43.3125 
z
" id="DejaVuSans-Bold-67"/>
     <path d="M 34.421875 43.5 
Q 28.609375 43.5 25.5625 39.328125 
Q 22.515625 35.15625 22.515625 27.296875 
Q 22.515625 19.4375 25.5625 15.25 
Q 28.609375 11.078125 34.421875 11.078125 
Q 40.140625 11.078125 43.15625 15.25 
Q 46.1875 19.4375 46.1875 27.296875 
Q 46.1875 35.15625 43.15625 39.328125 
Q 40.140625 43.5 34.421875 43.5 
z
M 34.421875 56 
Q 48.53125 56 56.46875 48.375 
Q 64.40625 40.765625 64.40625 27.296875 
Q 64.40625 13.8125 56.46875 6.1875 
Q 48.53125 -1.421875 34.421875 -1.421875 
Q 20.265625 -1.421875 12.28125 6.1875 
Q 4.296875 13.8125 4.296875 27.296875 
Q 4.296875 40.765625 12.28125 48.375 
Q 20.265625 56 34.421875 56 
z
" id="DejaVuSans-Bold-6f"/>
     <path d="M 45.609375 46.6875 
L 45.609375 75.984375 
L 63.1875 75.984375 
L 63.1875 0 
L 45.609375 0 
L 45.609375 7.90625 
Q 42 3.078125 37.640625 0.828125 
Q 33.296875 -1.421875 27.59375 -1.421875 
Q 17.484375 -1.421875 10.984375 6.609375 
Q 4.5 14.65625 4.5 27.296875 
Q 4.5 39.9375 10.984375 47.96875 
Q 17.484375 56 27.59375 56 
Q 33.25 56 37.625 53.734375 
Q 42 51.46875 45.609375 46.6875 
z
M 34.078125 11.28125 
Q 39.703125 11.28125 42.65625 15.375 
Q 45.609375 19.484375 45.609375 27.296875 
Q 45.609375 35.109375 42.65625 39.203125 
Q 39.703125 43.3125 34.078125 43.3125 
Q 28.515625 43.3125 25.5625 39.203125 
Q 22.609375 35.109375 22.609375 27.296875 
Q 22.609375 19.484375 25.5625 15.375 
Q 28.515625 11.28125 34.078125 11.28125 
z
" id="DejaVuSans-Bold-64"/>
     <path d="M 0.484375 72.90625 
L 67.671875 72.90625 
L 67.671875 58.6875 
L 43.5 58.6875 
L 43.5 0 
L 24.703125 0 
L 24.703125 58.6875 
L 0.484375 58.6875 
z
" id="DejaVuSans-Bold-54"/>
     <path d="M 9.1875 72.90625 
L 59.90625 72.90625 
L 59.90625 58.6875 
L 27.984375 58.6875 
L 27.984375 45.125 
L 58.015625 45.125 
L 58.015625 30.90625 
L 27.984375 30.90625 
L 27.984375 0 
L 9.1875 0 
z
" id="DejaVuSans-Bold-46"/>
     <path d="M 59.078125 45.609375 
Q 62.40625 50.6875 66.96875 53.34375 
Q 71.53125 56 77 56 
Q 86.421875 56 91.359375 50.1875 
Q 96.296875 44.390625 96.296875 33.296875 
L 96.296875 0 
L 78.71875 0 
L 78.71875 28.515625 
Q 78.765625 29.15625 78.78125 29.828125 
Q 78.8125 30.515625 78.8125 31.78125 
Q 78.8125 37.59375 77.09375 40.203125 
Q 75.390625 42.828125 71.578125 42.828125 
Q 66.609375 42.828125 63.890625 38.71875 
Q 61.1875 34.625 61.078125 26.859375 
L 61.078125 0 
L 43.5 0 
L 43.5 28.515625 
Q 43.5 37.59375 41.9375 40.203125 
Q 40.375 42.828125 36.375 42.828125 
Q 31.34375 42.828125 28.609375 38.703125 
Q 25.875 34.578125 25.875 26.90625 
L 25.875 0 
L 8.296875 0 
L 8.296875 54.6875 
L 25.875 54.6875 
L 25.875 46.6875 
Q 29.109375 51.3125 33.28125 53.65625 
Q 37.453125 56 42.484375 56 
Q 48.140625 56 52.484375 53.265625 
Q 56.84375 50.53125 59.078125 45.609375 
z
" id="DejaVuSans-Bold-6d"/>
     <path d="M 44.390625 75.984375 
L 44.390625 64.5 
L 34.71875 64.5 
Q 31 64.5 29.53125 63.15625 
Q 28.078125 61.8125 28.078125 58.5 
L 28.078125 54.6875 
L 43.015625 54.6875 
L 43.015625 42.1875 
L 28.078125 42.1875 
L 28.078125 0 
L 10.59375 0 
L 10.59375 42.1875 
L 1.90625 42.1875 
L 1.90625 54.6875 
L 10.59375 54.6875 
L 10.59375 58.5 
Q 10.59375 67.4375 15.578125 71.703125 
Q 20.5625 75.984375 31 75.984375 
z
" id="DejaVuSans-Bold-66"/>
    </defs>
    <g transform="translate(255.719844 22.553125)scale(0.2 -0.2)">
     <use xlink:href="#DejaVuSans-Bold-44"/>
     <use x="83.007812" xlink:href="#DejaVuSans-Bold-69"/>
     <use x="117.285156" xlink:href="#DejaVuSans-Bold-73"/>
     <use x="176.806641" xlink:href="#DejaVuSans-Bold-74"/>
     <use x="224.609375" xlink:href="#DejaVuSans-Bold-61"/>
     <use x="292.089844" xlink:href="#DejaVuSans-Bold-6e"/>
     <use x="363.28125" xlink:href="#DejaVuSans-Bold-63"/>
     <use x="422.558594" xlink:href="#DejaVuSans-Bold-65"/>
     <use x="490.380859" xlink:href="#DejaVuSans-Bold-73"/>
     <use x="549.902344" xlink:href="#DejaVuSans-Bold-20"/>
     <use x="584.716797" xlink:href="#DejaVuSans-Bold-62"/>
     <use x="656.298828" xlink:href="#DejaVuSans-Bold-65"/>
     <use x="724.121094" xlink:href="#DejaVuSans-Bold-74"/>
     <use x="771.923828" xlink:href="#DejaVuSans-Bold-77"/>
     <use x="864.306641" xlink:href="#DejaVuSans-Bold-65"/>
     <use x="932.128906" xlink:href="#DejaVuSans-Bold-65"/>
     <use x="999.951172" xlink:href="#DejaVuSans-Bold-6e"/>
     <use x="1071.142578" xlink:href="#DejaVuSans-Bold-20"/>
     <use x="1105.957031" xlink:href="#DejaVuSans-Bold-72"/>
     <use x="1155.273438" xlink:href="#DejaVuSans-Bold-65"/>
     <use x="1223.095703" xlink:href="#DejaVuSans-Bold-67"/>
     <use x="1294.677734" xlink:href="#DejaVuSans-Bold-69"/>
     <use x="1328.955078" xlink:href="#DejaVuSans-Bold-6f"/>
     <use x="1397.65625" xlink:href="#DejaVuSans-Bold-6e"/>
     <use x="1468.847656" xlink:href="#DejaVuSans-Bold-20"/>
     <use x="1503.662109" xlink:href="#DejaVuSans-Bold-63"/>
     <use x="1562.939453" xlink:href="#DejaVuSans-Bold-65"/>
     <use x="1630.761719" xlink:href="#DejaVuSans-Bold-6e"/>
     <use x="1701.953125" xlink:href="#DejaVuSans-Bold-74"/>
     <use x="1749.755859" xlink:href="#DejaVuSans-Bold-65"/>
     <use x="1817.578125" xlink:href="#DejaVuSans-Bold-72"/>
     <use x="1866.894531" xlink:href="#DejaVuSans-Bold-73"/>
     <use x="1926.416016" xlink:href="#DejaVuSans-Bold-20"/>
     <use x="1961.230469" xlink:href="#DejaVuSans-Bold-61"/>
     <use x="2028.710938" xlink:href="#DejaVuSans-Bold-6e"/>
     <use x="2099.902344" xlink:href="#DejaVuSans-Bold-64"/>
     <use x="2171.484375" xlink:href="#DejaVuSans-Bold-20"/>
     <use x="2206.298828" xlink:href="#DejaVuSans-Bold-54"/>
     <use x="2274.511719" xlink:href="#DejaVuSans-Bold-46"/>
     <use x="2342.822266" xlink:href="#DejaVuSans-Bold-20"/>
     <use x="2377.636719" xlink:href="#DejaVuSans-Bold-6d"/>
     <use x="2481.835938" xlink:href="#DejaVuSans-Bold-6f"/>
     <use x="2550.537109" xlink:href="#DejaVuSans-Bold-74"/>
     <use x="2598.339844" xlink:href="#DejaVuSans-Bold-69"/>
     <use x="2632.617188" xlink:href="#DejaVuSans-Bold-66"/>
     <use x="2676.123047" xlink:href="#DejaVuSans-Bold-73"/>
     <use x="2735.644531" xlink:href="#DejaVuSans-Bold-20"/>
    </g>
    <!--  REST ChIP-seq -->
    <defs>
     <path d="M 35.890625 40.578125 
Q 41.796875 40.578125 44.359375 42.765625 
Q 46.921875 44.96875 46.921875 50 
Q 46.921875 54.984375 44.359375 57.125 
Q 41.796875 59.28125 35.890625 59.28125 
L 27.984375 59.28125 
L 27.984375 40.578125 
z
M 27.984375 27.59375 
L 27.984375 0 
L 9.1875 0 
L 9.1875 72.90625 
L 37.890625 72.90625 
Q 52.296875 72.90625 59 68.0625 
Q 65.71875 63.234375 65.71875 52.78125 
Q 65.71875 45.5625 62.21875 40.921875 
Q 58.734375 36.28125 51.703125 34.078125 
Q 55.5625 33.203125 58.609375 30.09375 
Q 61.671875 27 64.796875 20.703125 
L 75 0 
L 54.984375 0 
L 46.09375 18.109375 
Q 43.40625 23.578125 40.640625 25.578125 
Q 37.890625 27.59375 33.296875 27.59375 
z
" id="DejaVuSans-Bold-52"/>
     <path d="M 9.1875 72.90625 
L 59.90625 72.90625 
L 59.90625 58.6875 
L 27.984375 58.6875 
L 27.984375 45.125 
L 58.015625 45.125 
L 58.015625 30.90625 
L 27.984375 30.90625 
L 27.984375 14.203125 
L 60.984375 14.203125 
L 60.984375 0 
L 9.1875 0 
z
" id="DejaVuSans-Bold-45"/>
     <path d="M 59.90625 70.609375 
L 59.90625 55.171875 
Q 53.90625 57.859375 48.1875 59.21875 
Q 42.484375 60.59375 37.40625 60.59375 
Q 30.671875 60.59375 27.4375 58.734375 
Q 24.21875 56.890625 24.21875 52.984375 
Q 24.21875 50.046875 26.390625 48.40625 
Q 28.5625 46.78125 34.28125 45.609375 
L 42.28125 44 
Q 54.4375 41.546875 59.5625 36.5625 
Q 64.703125 31.59375 64.703125 22.40625 
Q 64.703125 10.359375 57.546875 4.46875 
Q 50.390625 -1.421875 35.6875 -1.421875 
Q 28.765625 -1.421875 21.78125 -0.09375 
Q 14.796875 1.21875 7.8125 3.8125 
L 7.8125 19.671875 
Q 14.796875 15.96875 21.3125 14.078125 
Q 27.828125 12.203125 33.890625 12.203125 
Q 40.046875 12.203125 43.3125 14.25 
Q 46.578125 16.3125 46.578125 20.125 
Q 46.578125 23.53125 44.359375 25.390625 
Q 42.140625 27.25 35.5 28.71875 
L 28.21875 30.328125 
Q 17.28125 32.671875 12.21875 37.796875 
Q 7.171875 42.921875 7.171875 51.609375 
Q 7.171875 62.5 14.203125 68.359375 
Q 21.234375 74.21875 34.421875 74.21875 
Q 40.4375 74.21875 46.78125 73.3125 
Q 53.125 72.40625 59.90625 70.609375 
z
" id="DejaVuSans-Bold-53"/>
     <path d="M 67 4 
Q 61.8125 1.3125 56.203125 -0.046875 
Q 50.59375 -1.421875 44.484375 -1.421875 
Q 26.265625 -1.421875 15.625 8.765625 
Q 4.984375 18.953125 4.984375 36.375 
Q 4.984375 53.859375 15.625 64.03125 
Q 26.265625 74.21875 44.484375 74.21875 
Q 50.59375 74.21875 56.203125 72.84375 
Q 61.8125 71.484375 67 68.796875 
L 67 53.71875 
Q 61.765625 57.28125 56.6875 58.9375 
Q 51.609375 60.59375 46 60.59375 
Q 35.9375 60.59375 30.171875 54.140625 
Q 24.421875 47.703125 24.421875 36.375 
Q 24.421875 25.09375 30.171875 18.640625 
Q 35.9375 12.203125 46 12.203125 
Q 51.609375 12.203125 56.6875 13.859375 
Q 61.765625 15.53125 67 19.09375 
z
" id="DejaVuSans-Bold-43"/>
     <path d="M 63.375 33.296875 
L 63.375 0 
L 45.796875 0 
L 45.796875 5.421875 
L 45.796875 25.390625 
Q 45.796875 32.5625 45.484375 35.25 
Q 45.171875 37.9375 44.390625 39.203125 
Q 43.359375 40.921875 41.59375 41.875 
Q 39.84375 42.828125 37.59375 42.828125 
Q 32.125 42.828125 29 38.59375 
Q 25.875 34.375 25.875 26.90625 
L 25.875 0 
L 8.40625 0 
L 8.40625 75.984375 
L 25.875 75.984375 
L 25.875 46.6875 
Q 29.828125 51.46875 34.265625 53.734375 
Q 38.71875 56 44.09375 56 
Q 53.5625 56 58.46875 50.1875 
Q 63.375 44.390625 63.375 33.296875 
z
" id="DejaVuSans-Bold-68"/>
     <path d="M 9.1875 72.90625 
L 27.984375 72.90625 
L 27.984375 0 
L 9.1875 0 
z
" id="DejaVuSans-Bold-49"/>
     <path d="M 9.1875 72.90625 
L 40.375 72.90625 
Q 54.296875 72.90625 61.734375 66.71875 
Q 69.1875 60.546875 69.1875 49.125 
Q 69.1875 37.640625 61.734375 31.46875 
Q 54.296875 25.296875 40.375 25.296875 
L 27.984375 25.296875 
L 27.984375 0 
L 9.1875 0 
z
M 27.984375 59.28125 
L 27.984375 38.921875 
L 38.375 38.921875 
Q 43.84375 38.921875 46.828125 41.578125 
Q 49.8125 44.234375 49.8125 49.125 
Q 49.8125 54 46.828125 56.640625 
Q 43.84375 59.28125 38.375 59.28125 
z
" id="DejaVuSans-Bold-50"/>
     <path d="M 5.421875 35.890625 
L 36.078125 35.890625 
L 36.078125 21.6875 
L 5.421875 21.6875 
z
" id="DejaVuSans-Bold-2d"/>
     <path d="M 34.078125 43.3125 
Q 28.515625 43.3125 25.5625 39.203125 
Q 22.609375 35.109375 22.609375 27.296875 
Q 22.609375 19.484375 25.5625 15.375 
Q 28.515625 11.28125 34.078125 11.28125 
Q 39.703125 11.28125 42.65625 15.375 
Q 45.609375 19.484375 45.609375 27.296875 
Q 45.609375 35.109375 42.65625 39.203125 
Q 39.703125 43.3125 34.078125 43.3125 
z
M 45.609375 7.90625 
Q 42 3.078125 37.640625 0.828125 
Q 33.296875 -1.421875 27.59375 -1.421875 
Q 17.484375 -1.421875 10.984375 6.609375 
Q 4.5 14.65625 4.5 27.296875 
Q 4.5 39.9375 10.984375 47.921875 
Q 17.484375 55.90625 27.59375 55.90625 
Q 33.296875 55.90625 37.640625 53.65625 
Q 42 51.421875 45.609375 46.578125 
L 45.609375 54.6875 
L 63.1875 54.6875 
L 63.1875 -20.796875 
L 45.609375 -20.796875 
z
" id="DejaVuSans-Bold-71"/>
    </defs>
    <g transform="translate(447.699531 45.105)scale(0.2 -0.2)">
     <use xlink:href="#DejaVuSans-Bold-20"/>
     <use x="34.814453" xlink:href="#DejaVuSans-Bold-52"/>
     <use x="111.816406" xlink:href="#DejaVuSans-Bold-45"/>
     <use x="180.126953" xlink:href="#DejaVuSans-Bold-53"/>
     <use x="252.148438" xlink:href="#DejaVuSans-Bold-54"/>
     <use x="320.361328" xlink:href="#DejaVuSans-Bold-20"/>
     <use x="355.175781" xlink:href="#DejaVuSans-Bold-43"/>
     <use x="428.564453" xlink:href="#DejaVuSans-Bold-68"/>
     <use x="499.755859" xlink:href="#DejaVuSans-Bold-49"/>
     <use x="536.962891" xlink:href="#DejaVuSans-Bold-50"/>
     <use x="610.238281" xlink:href="#DejaVuSans-Bold-2d"/>
     <use x="651.742188" xlink:href="#DejaVuSans-Bold-73"/>
     <use x="711.263672" xlink:href="#DejaVuSans-Bold-65"/>
     <use x="779.085938" xlink:href="#DejaVuSans-Bold-71"/>
    </g>
   </g>
  </g>
 </g>
 <defs>
  <clipPath id="pd22336d0c1">
   <rect height="434.88" width="892.8" x="86.365156" y="50.94875"/>
  </clipPath>
 </defs>
</svg>
