<?xml version="1.0" encoding="utf-8" standalone="no"?>
<!DOCTYPE svg PUBLIC "-//W3C//DTD SVG 1.1//EN"
  "http://www.w3.org/Graphics/SVG/1.1/DTD/svg11.dtd">
<!-- Created with matplotlib (http://matplotlib.org/) -->
<svg height="505pt" version="1.1" viewBox="0 0 764 505" width="764pt" xmlns="http://www.w3.org/2000/svg" xmlns:xlink="http://www.w3.org/1999/xlink">
 <defs>
  <style type="text/css">
*{stroke-linecap:butt;stroke-linejoin:round;}
  </style>
 </defs>
 <g id="figure_1">
  <g id="patch_1">
   <path d="M 0 505.672187 
L 764.729531 505.672187 
L 764.729531 0 
L 0 0 
z
" style="fill:#ffffff;"/>
  </g>
  <g id="axes_1">
   <g id="patch_2">
    <path d="M 84.429531 463.276875 
L 754.029531 463.276875 
L 754.029531 28.396875 
L 84.429531 28.396875 
z
" style="fill:#ffffff;"/>
   </g>
   <g id="PolyCollection_1">
    <defs>
     <path d="M 196.040922 -79.633634 
L 196.01814 -79.633634 
L 195.945375 -83.444467 
L 196.018892 -87.2553 
L 196.029508 -91.066133 
L 196.029531 -94.876966 
L 196.029214 -98.687799 
L 195.994514 -102.498632 
L 195.962998 -106.309465 
L 195.992505 -110.120298 
L 195.94081 -113.931131 
L 195.90109 -117.741964 
L 195.963215 -121.552797 
L 195.943136 -125.363631 
L 195.942027 -129.174464 
L 195.910023 -132.985297 
L 195.811652 -136.79613 
L 195.695013 -140.606963 
L 195.302822 -144.417796 
L 194.565998 -148.228629 
L 194.443391 -152.039462 
L 191.943652 -155.850295 
L 185.601451 -159.661128 
L 161.469446 -163.471961 
L 106.749531 -167.282794 
L 119.301972 -171.093627 
L 170.713494 -174.90446 
L 187.578836 -178.715293 
L 192.013037 -182.526126 
L 193.915029 -186.336959 
L 195.162336 -190.147792 
L 195.550287 -193.958625 
L 195.932837 -197.769458 
L 195.898468 -201.580291 
L 195.779263 -205.391124 
L 196.001025 -209.201957 
L 196.029463 -213.01279 
L 196.029531 -216.823623 
L 196.029454 -220.634456 
L 196.010505 -224.445289 
L 195.948885 -228.256122 
L 196.023682 -232.066955 
L 196.029524 -235.877788 
L 196.029527 -239.688621 
L 196.025116 -243.499454 
L 195.952127 -247.310287 
L 195.98955 -251.12112 
L 195.947283 -254.931953 
L 196.022658 -258.742786 
L 196.029521 -262.553619 
L 196.029531 -266.364452 
L 196.029531 -270.175285 
L 196.029531 -273.986118 
L 196.029531 -277.796951 
L 196.029531 -281.607784 
L 196.029531 -285.418617 
L 196.029531 -289.22945 
L 196.029531 -293.040283 
L 196.029531 -296.851116 
L 196.029531 -300.661949 
L 196.029531 -304.472782 
L 196.029531 -308.283615 
L 196.029531 -312.094449 
L 196.029531 -315.905282 
L 196.029531 -319.716115 
L 196.029531 -323.526948 
L 196.029531 -327.337781 
L 196.029531 -331.148614 
L 196.029531 -334.959447 
L 196.029531 -338.77028 
L 196.029531 -342.581113 
L 196.029531 -346.391946 
L 196.029531 -350.202779 
L 196.029531 -354.013612 
L 196.029531 -357.824445 
L 196.029531 -361.635278 
L 196.029531 -365.446111 
L 196.029531 -369.256944 
L 196.029531 -373.067777 
L 196.029531 -376.87861 
L 196.029531 -380.689443 
L 196.029531 -384.500276 
L 196.029531 -388.311109 
L 196.029531 -392.121942 
L 196.029531 -395.932775 
L 196.029531 -399.743608 
L 196.029531 -403.554441 
L 196.029531 -407.365274 
L 196.029531 -411.176107 
L 196.029531 -414.98694 
L 196.029531 -418.797773 
L 196.029531 -422.608606 
L 196.029531 -426.419439 
L 196.029531 -430.230272 
L 196.029531 -434.041105 
L 196.029531 -437.851938 
L 196.029531 -441.662771 
L 196.029508 -445.473604 
L 196.018892 -449.284437 
L 195.945375 -453.09527 
L 196.01814 -456.906103 
L 196.040922 -456.906103 
L 196.040922 -456.906103 
L 196.113687 -453.09527 
L 196.040171 -449.284437 
L 196.029554 -445.473604 
L 196.029531 -441.662771 
L 196.029531 -437.851938 
L 196.029531 -434.041105 
L 196.029531 -430.230272 
L 196.029531 -426.419439 
L 196.029531 -422.608606 
L 196.029531 -418.797773 
L 196.029531 -414.98694 
L 196.029531 -411.176107 
L 196.029531 -407.365274 
L 196.029531 -403.554441 
L 196.029531 -399.743608 
L 196.029531 -395.932775 
L 196.029531 -392.121942 
L 196.029531 -388.311109 
L 196.029531 -384.500276 
L 196.029531 -380.689443 
L 196.029531 -376.87861 
L 196.029531 -373.067777 
L 196.029531 -369.256944 
L 196.029531 -365.446111 
L 196.029531 -361.635278 
L 196.029531 -357.824445 
L 196.029531 -354.013612 
L 196.029531 -350.202779 
L 196.029531 -346.391946 
L 196.029531 -342.581113 
L 196.029531 -338.77028 
L 196.029531 -334.959447 
L 196.029531 -331.148614 
L 196.029531 -327.337781 
L 196.029531 -323.526948 
L 196.029531 -319.716115 
L 196.029531 -315.905282 
L 196.029531 -312.094449 
L 196.029531 -308.283615 
L 196.029531 -304.472782 
L 196.029531 -300.661949 
L 196.029531 -296.851116 
L 196.029531 -293.040283 
L 196.029531 -289.22945 
L 196.029531 -285.418617 
L 196.029531 -281.607784 
L 196.029531 -277.796951 
L 196.029531 -273.986118 
L 196.029531 -270.175285 
L 196.029531 -266.364452 
L 196.029541 -262.553619 
L 196.036405 -258.742786 
L 196.111779 -254.931953 
L 196.069513 -251.12112 
L 196.106935 -247.310287 
L 196.033946 -243.499454 
L 196.029536 -239.688621 
L 196.029539 -235.877788 
L 196.035381 -232.066955 
L 196.110177 -228.256122 
L 196.048558 -224.445289 
L 196.029608 -220.634456 
L 196.029531 -216.823623 
L 196.029599 -213.01279 
L 196.058037 -209.201957 
L 196.279799 -205.391124 
L 196.160594 -201.580291 
L 196.126225 -197.769458 
L 196.508776 -193.958625 
L 196.896727 -190.147792 
L 198.144034 -186.336959 
L 200.046026 -182.526126 
L 204.480227 -178.715293 
L 221.345569 -174.90446 
L 272.75709 -171.093627 
L 285.309531 -167.282794 
L 230.589616 -163.471961 
L 206.457612 -159.661128 
L 200.11541 -155.850295 
L 197.615672 -152.039462 
L 197.493064 -148.228629 
L 196.75624 -144.417796 
L 196.36405 -140.606963 
L 196.24741 -136.79613 
L 196.14904 -132.985297 
L 196.117036 -129.174464 
L 196.115927 -125.363631 
L 196.095848 -121.552797 
L 196.157973 -117.741964 
L 196.118252 -113.931131 
L 196.066557 -110.120298 
L 196.096065 -106.309465 
L 196.064548 -102.498632 
L 196.029848 -98.687799 
L 196.029531 -94.876966 
L 196.029554 -91.066133 
L 196.040171 -87.2553 
L 196.113687 -83.444467 
L 196.040922 -79.633634 
z
" id="m60d9354e4f" style="stroke:#4c4c4c;stroke-width:1.5;"/>
    </defs>
    <g clip-path="url(#p7352e301e0)">
     <use style="fill:#2080df;stroke:#4c4c4c;stroke-width:1.5;" x="0" xlink:href="#m60d9354e4f" y="505.672187"/>
    </g>
   </g>
   <g id="PolyCollection_2">
    <defs>
     <path d="M 419.239361 -62.162585 
L 419.219702 -62.162585 
L 419.157921 -66.155974 
L 419.196212 -70.149362 
L 419.156758 -74.142751 
L 419.216517 -78.136139 
L 419.229447 -82.129527 
L 419.229531 -86.122916 
L 419.229529 -90.116304 
L 419.227759 -94.109693 
L 419.178734 -98.103081 
L 419.127348 -102.09647 
L 419.128985 -106.089858 
L 419.023491 -110.083246 
L 419.133507 -114.076635 
L 419.097474 -118.070023 
L 419.118555 -122.063412 
L 418.87735 -126.0568 
L 419.003627 -130.050189 
L 418.971484 -134.043577 
L 418.994023 -138.036965 
L 418.66055 -142.030354 
L 417.538706 -146.023742 
L 417.190182 -150.017131 
L 414.967543 -154.010519 
L 410.726988 -158.003908 
L 395.758348 -161.997296 
L 353.963454 -165.990684 
L 339.40953 -169.984073 
L 381.566411 -173.977461 
L 406.909784 -177.97085 
L 413.503701 -181.964238 
L 416.108102 -185.957627 
L 417.896967 -189.951015 
L 418.43081 -193.944403 
L 418.819701 -197.937792 
L 419.073577 -201.93118 
L 418.976534 -205.924569 
L 419.033391 -209.917957 
L 419.146561 -213.911346 
L 419.108597 -217.904734 
L 419.060604 -221.898122 
L 419.198071 -225.891511 
L 419.229278 -229.884899 
L 419.229531 -233.878288 
L 419.229531 -237.871676 
L 419.229531 -241.865065 
L 419.229502 -245.858453 
L 419.221803 -249.851841 
L 419.141103 -253.84523 
L 419.135233 -257.838618 
L 419.219657 -261.832007 
L 419.229485 -265.825395 
L 419.229531 -269.818784 
L 419.229531 -273.812172 
L 419.229531 -277.80556 
L 419.229531 -281.798949 
L 419.229531 -285.792337 
L 419.229531 -289.785726 
L 419.229531 -293.779114 
L 419.229531 -297.772503 
L 419.229531 -301.765891 
L 419.229531 -305.759279 
L 419.229531 -309.752668 
L 419.229531 -313.746056 
L 419.229531 -317.739445 
L 419.229531 -321.732833 
L 419.229531 -325.726222 
L 419.229531 -329.71961 
L 419.229531 -333.712998 
L 419.229531 -337.706387 
L 419.229531 -341.699775 
L 419.229531 -345.693164 
L 419.229531 -349.686552 
L 419.229531 -353.679941 
L 419.229531 -357.673329 
L 419.229531 -361.666717 
L 419.229531 -365.660106 
L 419.229531 -369.653494 
L 419.229531 -373.646883 
L 419.229531 -377.640271 
L 419.229531 -381.63366 
L 419.229531 -385.627048 
L 419.229531 -389.620436 
L 419.229531 -393.613825 
L 419.229531 -397.607213 
L 419.229531 -401.600602 
L 419.229531 -405.59399 
L 419.229531 -409.587379 
L 419.229531 -413.580767 
L 419.229531 -417.574155 
L 419.229531 -421.567544 
L 419.229531 -425.560932 
L 419.229531 -429.554321 
L 419.229531 -433.547709 
L 419.229531 -437.541098 
L 419.229531 -441.534486 
L 419.229354 -445.527874 
L 419.210797 -449.521263 
L 419.158026 -453.514651 
L 419.219702 -457.50804 
L 419.239361 -457.50804 
L 419.239361 -457.50804 
L 419.301036 -453.514651 
L 419.248265 -449.521263 
L 419.229708 -445.527874 
L 419.229531 -441.534486 
L 419.229531 -437.541098 
L 419.229531 -433.547709 
L 419.229531 -429.554321 
L 419.229531 -425.560932 
L 419.229531 -421.567544 
L 419.229531 -417.574155 
L 419.229531 -413.580767 
L 419.229531 -409.587379 
L 419.229531 -405.59399 
L 419.229531 -401.600602 
L 419.229531 -397.607213 
L 419.229531 -393.613825 
L 419.229531 -389.620436 
L 419.229531 -385.627048 
L 419.229531 -381.63366 
L 419.229531 -377.640271 
L 419.229531 -373.646883 
L 419.229531 -369.653494 
L 419.229531 -365.660106 
L 419.229531 -361.666717 
L 419.229531 -357.673329 
L 419.229531 -353.679941 
L 419.229531 -349.686552 
L 419.229531 -345.693164 
L 419.229531 -341.699775 
L 419.229531 -337.706387 
L 419.229531 -333.712998 
L 419.229531 -329.71961 
L 419.229531 -325.726222 
L 419.229531 -321.732833 
L 419.229531 -317.739445 
L 419.229531 -313.746056 
L 419.229531 -309.752668 
L 419.229531 -305.759279 
L 419.229531 -301.765891 
L 419.229531 -297.772503 
L 419.229531 -293.779114 
L 419.229531 -289.785726 
L 419.229531 -285.792337 
L 419.229531 -281.798949 
L 419.229531 -277.80556 
L 419.229531 -273.812172 
L 419.229531 -269.818784 
L 419.229578 -265.825395 
L 419.239405 -261.832007 
L 419.32383 -257.838618 
L 419.317959 -253.84523 
L 419.237259 -249.851841 
L 419.229561 -245.858453 
L 419.229531 -241.865065 
L 419.229531 -237.871676 
L 419.229531 -233.878288 
L 419.229784 -229.884899 
L 419.260992 -225.891511 
L 419.398459 -221.898122 
L 419.350466 -217.904734 
L 419.312502 -213.911346 
L 419.425671 -209.917957 
L 419.482528 -205.924569 
L 419.385485 -201.93118 
L 419.639361 -197.937792 
L 420.028253 -193.944403 
L 420.562095 -189.951015 
L 422.350961 -185.957627 
L 424.955362 -181.964238 
L 431.549279 -177.97085 
L 456.892652 -173.977461 
L 499.049533 -169.984073 
L 484.495608 -165.990684 
L 442.700715 -161.997296 
L 427.732074 -158.003908 
L 423.49152 -154.010519 
L 421.268881 -150.017131 
L 420.920357 -146.023742 
L 419.798512 -142.030354 
L 419.46504 -138.036965 
L 419.487579 -134.043577 
L 419.455435 -130.050189 
L 419.581712 -126.0568 
L 419.340507 -122.063412 
L 419.361589 -118.070023 
L 419.325556 -114.076635 
L 419.435572 -110.083246 
L 419.330077 -106.089858 
L 419.331715 -102.09647 
L 419.280328 -98.103081 
L 419.231303 -94.109693 
L 419.229534 -90.116304 
L 419.229531 -86.122916 
L 419.229615 -82.129527 
L 419.242545 -78.136139 
L 419.302305 -74.142751 
L 419.262851 -70.149362 
L 419.301142 -66.155974 
L 419.239361 -62.162585 
z
" id="m93c39df0be" style="stroke:#4c4c4c;stroke-width:1.5;"/>
    </defs>
    <g clip-path="url(#p7352e301e0)">
     <use style="fill:#2080df;stroke:#4c4c4c;stroke-width:1.5;" x="0" xlink:href="#m93c39df0be" y="505.672187"/>
    </g>
   </g>
   <g id="PolyCollection_3">
    <defs>
     <path d="M 642.446485 -89.786823 
L 642.412577 -89.786823 
L 642.354819 -91.342729 
L 642.304326 -92.898635 
L 642.349736 -94.45454 
L 642.410192 -96.010446 
L 642.427749 -97.566352 
L 642.429469 -99.122258 
L 642.42953 -100.678164 
L 642.429484 -102.23407 
L 642.428081 -103.789976 
L 642.412678 -105.345882 
L 642.355041 -106.901788 
L 642.304139 -108.457694 
L 642.345316 -110.013599 
L 642.376341 -111.569505 
L 642.321482 -113.125411 
L 642.277823 -114.681317 
L 642.274722 -116.237223 
L 642.291447 -117.793129 
L 642.316886 -119.349035 
L 642.298778 -120.904941 
L 642.334703 -122.460847 
L 642.40182 -124.016753 
L 642.426377 -125.572659 
L 642.427517 -127.128564 
L 642.405857 -128.68447 
L 642.308529 -130.240376 
L 642.155445 -131.796282 
L 642.079716 -133.352188 
L 642.097153 -134.908094 
L 642.153123 -136.464 
L 642.12266 -138.019906 
L 642.067007 -139.575812 
L 642.042231 -141.131718 
L 641.99084 -142.687624 
L 641.851415 -144.243529 
L 641.582264 -145.799435 
L 641.242768 -147.355341 
L 641.091171 -148.911247 
L 640.936992 -150.467153 
L 640.40222 -152.023059 
L 639.65944 -153.578965 
L 639.112972 -155.134871 
L 637.555181 -156.690777 
L 633.712393 -158.246683 
L 628.237964 -159.802588 
L 620.85576 -161.358494 
L 609.557491 -162.9144 
L 592.512335 -164.470306 
L 572.254542 -166.026212 
L 557.991259 -167.582118 
L 553.836947 -169.138024 
L 563.700614 -170.69393 
L 586.066728 -172.249836 
L 605.977014 -173.805742 
L 619.150511 -175.361648 
L 627.37955 -176.917553 
L 631.990953 -178.473459 
L 635.293804 -180.029365 
L 637.491469 -181.585271 
L 638.53735 -183.141177 
L 639.391922 -184.697083 
L 640.256767 -186.252989 
L 640.71339 -187.808895 
L 641.019726 -189.364801 
L 641.471902 -190.920707 
L 641.706399 -192.476612 
L 641.807139 -194.032518 
L 642.085121 -195.588424 
L 642.246461 -197.14433 
L 642.27994 -198.700236 
L 642.259412 -200.256142 
L 642.217939 -201.812048 
L 642.262553 -203.367954 
L 642.359209 -204.92386 
L 642.387054 -206.479766 
L 642.329991 -208.035672 
L 642.309506 -209.591577 
L 642.374064 -211.147483 
L 642.419782 -212.703389 
L 642.42888 -214.259295 
L 642.429515 -215.815201 
L 642.429531 -217.371107 
L 642.429531 -218.927013 
L 642.429531 -220.482919 
L 642.429531 -222.038825 
L 642.429531 -223.594731 
L 642.429518 -225.150636 
L 642.428982 -226.706542 
L 642.420879 -228.262448 
L 642.377714 -229.818354 
L 642.311513 -231.37426 
L 642.32731 -232.930166 
L 642.395798 -234.486072 
L 642.423531 -236.041978 
L 642.409991 -237.597884 
L 642.349733 -239.15379 
L 642.304326 -240.709696 
L 642.354819 -242.265601 
L 642.412577 -243.821507 
L 642.446485 -243.821507 
L 642.446485 -243.821507 
L 642.504244 -242.265601 
L 642.554737 -240.709696 
L 642.50933 -239.15379 
L 642.449072 -237.597884 
L 642.435531 -236.041978 
L 642.463264 -234.486072 
L 642.531753 -232.930166 
L 642.547549 -231.37426 
L 642.481349 -229.818354 
L 642.438183 -228.262448 
L 642.430081 -226.706542 
L 642.429545 -225.150636 
L 642.429531 -223.594731 
L 642.429531 -222.038825 
L 642.429531 -220.482919 
L 642.429531 -218.927013 
L 642.429531 -217.371107 
L 642.429548 -215.815201 
L 642.430183 -214.259295 
L 642.439281 -212.703389 
L 642.484998 -211.147483 
L 642.549557 -209.591577 
L 642.529071 -208.035672 
L 642.472009 -206.479766 
L 642.499853 -204.92386 
L 642.596509 -203.367954 
L 642.641123 -201.812048 
L 642.59965 -200.256142 
L 642.579122 -198.700236 
L 642.612602 -197.14433 
L 642.773941 -195.588424 
L 643.051923 -194.032518 
L 643.152663 -192.476612 
L 643.387161 -190.920707 
L 643.839336 -189.364801 
L 644.145673 -187.808895 
L 644.602295 -186.252989 
L 645.467141 -184.697083 
L 646.321713 -183.141177 
L 647.367594 -181.585271 
L 649.565259 -180.029365 
L 652.86811 -178.473459 
L 657.479513 -176.917553 
L 665.708551 -175.361648 
L 678.882049 -173.805742 
L 698.792335 -172.249836 
L 721.158448 -170.69393 
L 731.022115 -169.138024 
L 726.867804 -167.582118 
L 712.604521 -166.026212 
L 692.346728 -164.470306 
L 675.301571 -162.9144 
L 664.003302 -161.358494 
L 656.621099 -159.802588 
L 651.146669 -158.246683 
L 647.303882 -156.690777 
L 645.746091 -155.134871 
L 645.199622 -153.578965 
L 644.456842 -152.023059 
L 643.922071 -150.467153 
L 643.767892 -148.911247 
L 643.616294 -147.355341 
L 643.276798 -145.799435 
L 643.007647 -144.243529 
L 642.868223 -142.687624 
L 642.816831 -141.131718 
L 642.792055 -139.575812 
L 642.736403 -138.019906 
L 642.705939 -136.464 
L 642.761909 -134.908094 
L 642.779347 -133.352188 
L 642.703617 -131.796282 
L 642.550534 -130.240376 
L 642.453205 -128.68447 
L 642.431545 -127.128564 
L 642.432685 -125.572659 
L 642.457243 -124.016753 
L 642.52436 -122.460847 
L 642.560285 -120.904941 
L 642.542177 -119.349035 
L 642.567615 -117.793129 
L 642.584341 -116.237223 
L 642.581239 -114.681317 
L 642.53758 -113.125411 
L 642.482721 -111.569505 
L 642.513747 -110.013599 
L 642.554923 -108.457694 
L 642.504021 -106.901788 
L 642.446385 -105.345882 
L 642.430981 -103.789976 
L 642.429579 -102.23407 
L 642.429533 -100.678164 
L 642.429594 -99.122258 
L 642.431314 -97.566352 
L 642.448871 -96.010446 
L 642.509326 -94.45454 
L 642.554737 -92.898635 
L 642.504244 -91.342729 
L 642.446485 -89.786823 
z
" id="mf317509534" style="stroke:#4c4c4c;stroke-width:1.5;"/>
    </defs>
    <g clip-path="url(#p7352e301e0)">
     <use style="fill:#2080df;stroke:#4c4c4c;stroke-width:1.5;" x="0" xlink:href="#mf317509534" y="505.672187"/>
    </g>
   </g>
   <g id="matplotlib.axis_1">
    <g id="xtick_1">
     <g id="line2d_1">
      <defs>
       <path d="M 0 0 
L 0 3.5 
" id="m0f79ba1ada" style="stroke:#000000;stroke-width:0.8;"/>
      </defs>
      <g>
       <use style="stroke:#000000;stroke-width:0.8;" x="196.029531" xlink:href="#m0f79ba1ada" y="463.276875"/>
      </g>
     </g>
     <g id="text_1">
      <!-- $\mu$Merge -->
      <defs>
       <path d="M -1.3125 -20.796875 
L 13.375 54.6875 
L 22.40625 54.6875 
L 15.765625 20.65625 
Q 15.578125 19.625 15.421875 18.359375 
Q 15.28125 17.09375 15.28125 15.828125 
Q 15.28125 11.28125 18.140625 8.828125 
Q 21 6.390625 26.3125 6.390625 
Q 33.546875 6.390625 37.984375 10.484375 
Q 42.4375 14.59375 44 22.796875 
L 50.203125 54.6875 
L 59.1875 54.6875 
L 51.03125 12.640625 
Q 50.828125 11.71875 50.75 11.03125 
Q 50.6875 10.359375 50.6875 9.8125 
Q 50.6875 8.296875 51.296875 7.59375 
Q 51.90625 6.890625 53.21875 6.890625 
Q 53.71875 6.890625 54.5625 7.125 
Q 55.421875 7.375 56.984375 8.015625 
L 55.609375 0.78125 
Q 53.46875 -0.296875 51.515625 -0.859375 
Q 49.5625 -1.421875 47.703125 -1.421875 
Q 44.484375 -1.421875 42.65625 0.625 
Q 40.828125 2.6875 40.828125 6.296875 
Q 38.09375 2.390625 34.296875 0.484375 
Q 30.515625 -1.421875 25.390625 -1.421875 
Q 20.84375 -1.421875 17.453125 0.671875 
Q 14.0625 2.78125 12.984375 6.203125 
L 7.71875 -20.796875 
z
" id="DejaVuSans-Oblique-3bc"/>
       <path d="M 9.8125 72.90625 
L 24.515625 72.90625 
L 43.109375 23.296875 
L 61.8125 72.90625 
L 76.515625 72.90625 
L 76.515625 0 
L 66.890625 0 
L 66.890625 64.015625 
L 48.09375 14.015625 
L 38.1875 14.015625 
L 19.390625 64.015625 
L 19.390625 0 
L 9.8125 0 
z
" id="DejaVuSans-4d"/>
       <path d="M 56.203125 29.59375 
L 56.203125 25.203125 
L 14.890625 25.203125 
Q 15.484375 15.921875 20.484375 11.0625 
Q 25.484375 6.203125 34.421875 6.203125 
Q 39.59375 6.203125 44.453125 7.46875 
Q 49.3125 8.734375 54.109375 11.28125 
L 54.109375 2.78125 
Q 49.265625 0.734375 44.1875 -0.34375 
Q 39.109375 -1.421875 33.890625 -1.421875 
Q 20.796875 -1.421875 13.15625 6.1875 
Q 5.515625 13.8125 5.515625 26.8125 
Q 5.515625 40.234375 12.765625 48.109375 
Q 20.015625 56 32.328125 56 
Q 43.359375 56 49.78125 48.890625 
Q 56.203125 41.796875 56.203125 29.59375 
z
M 47.21875 32.234375 
Q 47.125 39.59375 43.09375 43.984375 
Q 39.0625 48.390625 32.421875 48.390625 
Q 24.90625 48.390625 20.390625 44.140625 
Q 15.875 39.890625 15.1875 32.171875 
z
" id="DejaVuSans-65"/>
       <path d="M 41.109375 46.296875 
Q 39.59375 47.171875 37.8125 47.578125 
Q 36.03125 48 33.890625 48 
Q 26.265625 48 22.1875 43.046875 
Q 18.109375 38.09375 18.109375 28.8125 
L 18.109375 0 
L 9.078125 0 
L 9.078125 54.6875 
L 18.109375 54.6875 
L 18.109375 46.1875 
Q 20.953125 51.171875 25.484375 53.578125 
Q 30.03125 56 36.53125 56 
Q 37.453125 56 38.578125 55.875 
Q 39.703125 55.765625 41.0625 55.515625 
z
" id="DejaVuSans-72"/>
       <path d="M 45.40625 27.984375 
Q 45.40625 37.75 41.375 43.109375 
Q 37.359375 48.484375 30.078125 48.484375 
Q 22.859375 48.484375 18.828125 43.109375 
Q 14.796875 37.75 14.796875 27.984375 
Q 14.796875 18.265625 18.828125 12.890625 
Q 22.859375 7.515625 30.078125 7.515625 
Q 37.359375 7.515625 41.375 12.890625 
Q 45.40625 18.265625 45.40625 27.984375 
z
M 54.390625 6.78125 
Q 54.390625 -7.171875 48.1875 -13.984375 
Q 42 -20.796875 29.203125 -20.796875 
Q 24.46875 -20.796875 20.265625 -20.09375 
Q 16.0625 -19.390625 12.109375 -17.921875 
L 12.109375 -9.1875 
Q 16.0625 -11.328125 19.921875 -12.34375 
Q 23.78125 -13.375 27.78125 -13.375 
Q 36.625 -13.375 41.015625 -8.765625 
Q 45.40625 -4.15625 45.40625 5.171875 
L 45.40625 9.625 
Q 42.625 4.78125 38.28125 2.390625 
Q 33.9375 0 27.875 0 
Q 17.828125 0 11.671875 7.65625 
Q 5.515625 15.328125 5.515625 27.984375 
Q 5.515625 40.671875 11.671875 48.328125 
Q 17.828125 56 27.875 56 
Q 33.9375 56 38.28125 53.609375 
Q 42.625 51.21875 45.40625 46.390625 
L 45.40625 54.6875 
L 54.390625 54.6875 
z
" id="DejaVuSans-67"/>
      </defs>
      <g transform="translate(167.679531 481.644062)scale(0.15 -0.15)">
       <use transform="translate(0 0.09375)" xlink:href="#DejaVuSans-Oblique-3bc"/>
       <use transform="translate(63.623047 0.09375)" xlink:href="#DejaVuSans-4d"/>
       <use transform="translate(149.902344 0.09375)" xlink:href="#DejaVuSans-65"/>
       <use transform="translate(211.425781 0.09375)" xlink:href="#DejaVuSans-72"/>
       <use transform="translate(252.539062 0.09375)" xlink:href="#DejaVuSans-67"/>
       <use transform="translate(316.015625 0.09375)" xlink:href="#DejaVuSans-65"/>
      </g>
     </g>
    </g>
    <g id="xtick_2">
     <g id="line2d_2">
      <g>
       <use style="stroke:#000000;stroke-width:0.8;" x="419.229531" xlink:href="#m0f79ba1ada" y="463.276875"/>
      </g>
     </g>
     <g id="text_2">
      <!-- Bedtools Merge -->
      <defs>
       <path d="M 19.671875 34.8125 
L 19.671875 8.109375 
L 35.5 8.109375 
Q 43.453125 8.109375 47.28125 11.40625 
Q 51.125 14.703125 51.125 21.484375 
Q 51.125 28.328125 47.28125 31.5625 
Q 43.453125 34.8125 35.5 34.8125 
z
M 19.671875 64.796875 
L 19.671875 42.828125 
L 34.28125 42.828125 
Q 41.5 42.828125 45.03125 45.53125 
Q 48.578125 48.25 48.578125 53.8125 
Q 48.578125 59.328125 45.03125 62.0625 
Q 41.5 64.796875 34.28125 64.796875 
z
M 9.8125 72.90625 
L 35.015625 72.90625 
Q 46.296875 72.90625 52.390625 68.21875 
Q 58.5 63.53125 58.5 54.890625 
Q 58.5 48.1875 55.375 44.234375 
Q 52.25 40.28125 46.1875 39.3125 
Q 53.46875 37.75 57.5 32.78125 
Q 61.53125 27.828125 61.53125 20.40625 
Q 61.53125 10.640625 54.890625 5.3125 
Q 48.25 0 35.984375 0 
L 9.8125 0 
z
" id="DejaVuSans-42"/>
       <path d="M 45.40625 46.390625 
L 45.40625 75.984375 
L 54.390625 75.984375 
L 54.390625 0 
L 45.40625 0 
L 45.40625 8.203125 
Q 42.578125 3.328125 38.25 0.953125 
Q 33.9375 -1.421875 27.875 -1.421875 
Q 17.96875 -1.421875 11.734375 6.484375 
Q 5.515625 14.40625 5.515625 27.296875 
Q 5.515625 40.1875 11.734375 48.09375 
Q 17.96875 56 27.875 56 
Q 33.9375 56 38.25 53.625 
Q 42.578125 51.265625 45.40625 46.390625 
z
M 14.796875 27.296875 
Q 14.796875 17.390625 18.875 11.75 
Q 22.953125 6.109375 30.078125 6.109375 
Q 37.203125 6.109375 41.296875 11.75 
Q 45.40625 17.390625 45.40625 27.296875 
Q 45.40625 37.203125 41.296875 42.84375 
Q 37.203125 48.484375 30.078125 48.484375 
Q 22.953125 48.484375 18.875 42.84375 
Q 14.796875 37.203125 14.796875 27.296875 
z
" id="DejaVuSans-64"/>
       <path d="M 18.3125 70.21875 
L 18.3125 54.6875 
L 36.8125 54.6875 
L 36.8125 47.703125 
L 18.3125 47.703125 
L 18.3125 18.015625 
Q 18.3125 11.328125 20.140625 9.421875 
Q 21.96875 7.515625 27.59375 7.515625 
L 36.8125 7.515625 
L 36.8125 0 
L 27.59375 0 
Q 17.1875 0 13.234375 3.875 
Q 9.28125 7.765625 9.28125 18.015625 
L 9.28125 47.703125 
L 2.6875 47.703125 
L 2.6875 54.6875 
L 9.28125 54.6875 
L 9.28125 70.21875 
z
" id="DejaVuSans-74"/>
       <path d="M 30.609375 48.390625 
Q 23.390625 48.390625 19.1875 42.75 
Q 14.984375 37.109375 14.984375 27.296875 
Q 14.984375 17.484375 19.15625 11.84375 
Q 23.34375 6.203125 30.609375 6.203125 
Q 37.796875 6.203125 41.984375 11.859375 
Q 46.1875 17.53125 46.1875 27.296875 
Q 46.1875 37.015625 41.984375 42.703125 
Q 37.796875 48.390625 30.609375 48.390625 
z
M 30.609375 56 
Q 42.328125 56 49.015625 48.375 
Q 55.71875 40.765625 55.71875 27.296875 
Q 55.71875 13.875 49.015625 6.21875 
Q 42.328125 -1.421875 30.609375 -1.421875 
Q 18.84375 -1.421875 12.171875 6.21875 
Q 5.515625 13.875 5.515625 27.296875 
Q 5.515625 40.765625 12.171875 48.375 
Q 18.84375 56 30.609375 56 
z
" id="DejaVuSans-6f"/>
       <path d="M 9.421875 75.984375 
L 18.40625 75.984375 
L 18.40625 0 
L 9.421875 0 
z
" id="DejaVuSans-6c"/>
       <path d="M 44.28125 53.078125 
L 44.28125 44.578125 
Q 40.484375 46.53125 36.375 47.5 
Q 32.28125 48.484375 27.875 48.484375 
Q 21.1875 48.484375 17.84375 46.4375 
Q 14.5 44.390625 14.5 40.28125 
Q 14.5 37.15625 16.890625 35.375 
Q 19.28125 33.59375 26.515625 31.984375 
L 29.59375 31.296875 
Q 39.15625 29.25 43.1875 25.515625 
Q 47.21875 21.78125 47.21875 15.09375 
Q 47.21875 7.46875 41.1875 3.015625 
Q 35.15625 -1.421875 24.609375 -1.421875 
Q 20.21875 -1.421875 15.453125 -0.5625 
Q 10.6875 0.296875 5.421875 2 
L 5.421875 11.28125 
Q 10.40625 8.6875 15.234375 7.390625 
Q 20.0625 6.109375 24.8125 6.109375 
Q 31.15625 6.109375 34.5625 8.28125 
Q 37.984375 10.453125 37.984375 14.40625 
Q 37.984375 18.0625 35.515625 20.015625 
Q 33.0625 21.96875 24.703125 23.78125 
L 21.578125 24.515625 
Q 13.234375 26.265625 9.515625 29.90625 
Q 5.8125 33.546875 5.8125 39.890625 
Q 5.8125 47.609375 11.28125 51.796875 
Q 16.75 56 26.8125 56 
Q 31.78125 56 36.171875 55.265625 
Q 40.578125 54.546875 44.28125 53.078125 
z
" id="DejaVuSans-73"/>
       <path id="DejaVuSans-20"/>
      </defs>
      <g transform="translate(360.670937 481.674531)scale(0.15 -0.15)">
       <use xlink:href="#DejaVuSans-42"/>
       <use x="68.603516" xlink:href="#DejaVuSans-65"/>
       <use x="130.126953" xlink:href="#DejaVuSans-64"/>
       <use x="193.603516" xlink:href="#DejaVuSans-74"/>
       <use x="232.8125" xlink:href="#DejaVuSans-6f"/>
       <use x="293.994141" xlink:href="#DejaVuSans-6f"/>
       <use x="355.175781" xlink:href="#DejaVuSans-6c"/>
       <use x="382.958984" xlink:href="#DejaVuSans-73"/>
       <use x="435.058594" xlink:href="#DejaVuSans-20"/>
       <use x="466.845703" xlink:href="#DejaVuSans-4d"/>
       <use x="553.125" xlink:href="#DejaVuSans-65"/>
       <use x="614.648438" xlink:href="#DejaVuSans-72"/>
       <use x="655.746094" xlink:href="#DejaVuSans-67"/>
       <use x="719.222656" xlink:href="#DejaVuSans-65"/>
      </g>
     </g>
    </g>
    <g id="xtick_3">
     <g id="line2d_3">
      <g>
       <use style="stroke:#000000;stroke-width:0.8;" x="642.429531" xlink:href="#m0f79ba1ada" y="463.276875"/>
      </g>
     </g>
     <g id="text_3">
      <!-- Bedtools Intersect -->
      <defs>
       <path d="M 9.8125 72.90625 
L 19.671875 72.90625 
L 19.671875 0 
L 9.8125 0 
z
" id="DejaVuSans-49"/>
       <path d="M 54.890625 33.015625 
L 54.890625 0 
L 45.90625 0 
L 45.90625 32.71875 
Q 45.90625 40.484375 42.875 44.328125 
Q 39.84375 48.1875 33.796875 48.1875 
Q 26.515625 48.1875 22.3125 43.546875 
Q 18.109375 38.921875 18.109375 30.90625 
L 18.109375 0 
L 9.078125 0 
L 9.078125 54.6875 
L 18.109375 54.6875 
L 18.109375 46.1875 
Q 21.34375 51.125 25.703125 53.5625 
Q 30.078125 56 35.796875 56 
Q 45.21875 56 50.046875 50.171875 
Q 54.890625 44.34375 54.890625 33.015625 
z
" id="DejaVuSans-6e"/>
       <path d="M 48.78125 52.59375 
L 48.78125 44.1875 
Q 44.96875 46.296875 41.140625 47.34375 
Q 37.3125 48.390625 33.40625 48.390625 
Q 24.65625 48.390625 19.8125 42.84375 
Q 14.984375 37.3125 14.984375 27.296875 
Q 14.984375 17.28125 19.8125 11.734375 
Q 24.65625 6.203125 33.40625 6.203125 
Q 37.3125 6.203125 41.140625 7.25 
Q 44.96875 8.296875 48.78125 10.40625 
L 48.78125 2.09375 
Q 45.015625 0.34375 40.984375 -0.53125 
Q 36.96875 -1.421875 32.421875 -1.421875 
Q 20.0625 -1.421875 12.78125 6.34375 
Q 5.515625 14.109375 5.515625 27.296875 
Q 5.515625 40.671875 12.859375 48.328125 
Q 20.21875 56 33.015625 56 
Q 37.15625 56 41.109375 55.140625 
Q 45.0625 54.296875 48.78125 52.59375 
z
" id="DejaVuSans-63"/>
      </defs>
      <g transform="translate(574.225234 481.674531)scale(0.15 -0.15)">
       <use xlink:href="#DejaVuSans-42"/>
       <use x="68.603516" xlink:href="#DejaVuSans-65"/>
       <use x="130.126953" xlink:href="#DejaVuSans-64"/>
       <use x="193.603516" xlink:href="#DejaVuSans-74"/>
       <use x="232.8125" xlink:href="#DejaVuSans-6f"/>
       <use x="293.994141" xlink:href="#DejaVuSans-6f"/>
       <use x="355.175781" xlink:href="#DejaVuSans-6c"/>
       <use x="382.958984" xlink:href="#DejaVuSans-73"/>
       <use x="435.058594" xlink:href="#DejaVuSans-20"/>
       <use x="466.845703" xlink:href="#DejaVuSans-49"/>
       <use x="496.337891" xlink:href="#DejaVuSans-6e"/>
       <use x="559.716797" xlink:href="#DejaVuSans-74"/>
       <use x="598.925781" xlink:href="#DejaVuSans-65"/>
       <use x="660.449219" xlink:href="#DejaVuSans-72"/>
       <use x="701.5625" xlink:href="#DejaVuSans-73"/>
       <use x="753.662109" xlink:href="#DejaVuSans-65"/>
       <use x="815.185547" xlink:href="#DejaVuSans-63"/>
       <use x="870.166016" xlink:href="#DejaVuSans-74"/>
      </g>
     </g>
    </g>
    <g id="text_4">
     <!--   -->
     <g transform="translate(417.640469 496.3925)scale(0.1 -0.1)">
      <use xlink:href="#DejaVuSans-20"/>
     </g>
    </g>
   </g>
   <g id="matplotlib.axis_2">
    <g id="ytick_1">
     <g id="line2d_4">
      <defs>
       <path d="M 0 0 
L -3.5 0 
" id="m39fda9972e" style="stroke:#000000;stroke-width:0.8;"/>
      </defs>
      <g>
       <use style="stroke:#000000;stroke-width:0.8;" x="84.429531" xlink:href="#m39fda9972e" y="437.120562"/>
      </g>
     </g>
     <g id="text_5">
      <!-- −1000 -->
      <defs>
       <path d="M 10.59375 35.5 
L 73.1875 35.5 
L 73.1875 27.203125 
L 10.59375 27.203125 
z
" id="DejaVuSans-2212"/>
       <path d="M 12.40625 8.296875 
L 28.515625 8.296875 
L 28.515625 63.921875 
L 10.984375 60.40625 
L 10.984375 69.390625 
L 28.421875 72.90625 
L 38.28125 72.90625 
L 38.28125 8.296875 
L 54.390625 8.296875 
L 54.390625 0 
L 12.40625 0 
z
" id="DejaVuSans-31"/>
       <path d="M 31.78125 66.40625 
Q 24.171875 66.40625 20.328125 58.90625 
Q 16.5 51.421875 16.5 36.375 
Q 16.5 21.390625 20.328125 13.890625 
Q 24.171875 6.390625 31.78125 6.390625 
Q 39.453125 6.390625 43.28125 13.890625 
Q 47.125 21.390625 47.125 36.375 
Q 47.125 51.421875 43.28125 58.90625 
Q 39.453125 66.40625 31.78125 66.40625 
z
M 31.78125 74.21875 
Q 44.046875 74.21875 50.515625 64.515625 
Q 56.984375 54.828125 56.984375 36.375 
Q 56.984375 17.96875 50.515625 8.265625 
Q 44.046875 -1.421875 31.78125 -1.421875 
Q 19.53125 -1.421875 13.0625 8.265625 
Q 6.59375 17.96875 6.59375 36.375 
Q 6.59375 54.828125 13.0625 64.515625 
Q 19.53125 74.21875 31.78125 74.21875 
z
" id="DejaVuSans-30"/>
      </defs>
      <g transform="translate(26.685 442.81939)scale(0.15 -0.15)">
       <use xlink:href="#DejaVuSans-2212"/>
       <use x="83.789062" xlink:href="#DejaVuSans-31"/>
       <use x="147.412109" xlink:href="#DejaVuSans-30"/>
       <use x="211.035156" xlink:href="#DejaVuSans-30"/>
       <use x="274.658203" xlink:href="#DejaVuSans-30"/>
      </g>
     </g>
    </g>
    <g id="ytick_2">
     <g id="line2d_5">
      <g>
       <use style="stroke:#000000;stroke-width:0.8;" x="84.429531" xlink:href="#m39fda9972e" y="386.91487"/>
      </g>
     </g>
     <g id="text_6">
      <!-- −500 -->
      <defs>
       <path d="M 10.796875 72.90625 
L 49.515625 72.90625 
L 49.515625 64.59375 
L 19.828125 64.59375 
L 19.828125 46.734375 
Q 21.96875 47.46875 24.109375 47.828125 
Q 26.265625 48.1875 28.421875 48.1875 
Q 40.625 48.1875 47.75 41.5 
Q 54.890625 34.8125 54.890625 23.390625 
Q 54.890625 11.625 47.5625 5.09375 
Q 40.234375 -1.421875 26.90625 -1.421875 
Q 22.3125 -1.421875 17.546875 -0.640625 
Q 12.796875 0.140625 7.71875 1.703125 
L 7.71875 11.625 
Q 12.109375 9.234375 16.796875 8.0625 
Q 21.484375 6.890625 26.703125 6.890625 
Q 35.15625 6.890625 40.078125 11.328125 
Q 45.015625 15.765625 45.015625 23.390625 
Q 45.015625 31 40.078125 35.4375 
Q 35.15625 39.890625 26.703125 39.890625 
Q 22.75 39.890625 18.8125 39.015625 
Q 14.890625 38.140625 10.796875 36.28125 
z
" id="DejaVuSans-35"/>
      </defs>
      <g transform="translate(36.22875 392.613698)scale(0.15 -0.15)">
       <use xlink:href="#DejaVuSans-2212"/>
       <use x="83.789062" xlink:href="#DejaVuSans-35"/>
       <use x="147.412109" xlink:href="#DejaVuSans-30"/>
       <use x="211.035156" xlink:href="#DejaVuSans-30"/>
      </g>
     </g>
    </g>
    <g id="ytick_3">
     <g id="line2d_6">
      <g>
       <use style="stroke:#000000;stroke-width:0.8;" x="84.429531" xlink:href="#m39fda9972e" y="336.709178"/>
      </g>
     </g>
     <g id="text_7">
      <!-- 0 -->
      <g transform="translate(67.885781 342.408006)scale(0.15 -0.15)">
       <use xlink:href="#DejaVuSans-30"/>
      </g>
     </g>
    </g>
    <g id="ytick_4">
     <g id="line2d_7">
      <g>
       <use style="stroke:#000000;stroke-width:0.8;" x="84.429531" xlink:href="#m39fda9972e" y="286.503486"/>
      </g>
     </g>
     <g id="text_8">
      <!-- 500 -->
      <g transform="translate(48.798281 292.202314)scale(0.15 -0.15)">
       <use xlink:href="#DejaVuSans-35"/>
       <use x="63.623047" xlink:href="#DejaVuSans-30"/>
       <use x="127.246094" xlink:href="#DejaVuSans-30"/>
      </g>
     </g>
    </g>
    <g id="ytick_5">
     <g id="line2d_8">
      <g>
       <use style="stroke:#000000;stroke-width:0.8;" x="84.429531" xlink:href="#m39fda9972e" y="236.297794"/>
      </g>
     </g>
     <g id="text_9">
      <!-- 1000 -->
      <g transform="translate(39.254531 241.996622)scale(0.15 -0.15)">
       <use xlink:href="#DejaVuSans-31"/>
       <use x="63.623047" xlink:href="#DejaVuSans-30"/>
       <use x="127.246094" xlink:href="#DejaVuSans-30"/>
       <use x="190.869141" xlink:href="#DejaVuSans-30"/>
      </g>
     </g>
    </g>
    <g id="ytick_6">
     <g id="line2d_9">
      <g>
       <use style="stroke:#000000;stroke-width:0.8;" x="84.429531" xlink:href="#m39fda9972e" y="186.092101"/>
      </g>
     </g>
     <g id="text_10">
      <!-- 1500 -->
      <g transform="translate(39.254531 191.79093)scale(0.15 -0.15)">
       <use xlink:href="#DejaVuSans-31"/>
       <use x="63.623047" xlink:href="#DejaVuSans-35"/>
       <use x="127.246094" xlink:href="#DejaVuSans-30"/>
       <use x="190.869141" xlink:href="#DejaVuSans-30"/>
      </g>
     </g>
    </g>
    <g id="ytick_7">
     <g id="line2d_10">
      <g>
       <use style="stroke:#000000;stroke-width:0.8;" x="84.429531" xlink:href="#m39fda9972e" y="135.886409"/>
      </g>
     </g>
     <g id="text_11">
      <!-- 2000 -->
      <defs>
       <path d="M 19.1875 8.296875 
L 53.609375 8.296875 
L 53.609375 0 
L 7.328125 0 
L 7.328125 8.296875 
Q 12.9375 14.109375 22.625 23.890625 
Q 32.328125 33.6875 34.8125 36.53125 
Q 39.546875 41.84375 41.421875 45.53125 
Q 43.3125 49.21875 43.3125 52.78125 
Q 43.3125 58.59375 39.234375 62.25 
Q 35.15625 65.921875 28.609375 65.921875 
Q 23.96875 65.921875 18.8125 64.3125 
Q 13.671875 62.703125 7.8125 59.421875 
L 7.8125 69.390625 
Q 13.765625 71.78125 18.9375 73 
Q 24.125 74.21875 28.421875 74.21875 
Q 39.75 74.21875 46.484375 68.546875 
Q 53.21875 62.890625 53.21875 53.421875 
Q 53.21875 48.921875 51.53125 44.890625 
Q 49.859375 40.875 45.40625 35.40625 
Q 44.1875 33.984375 37.640625 27.21875 
Q 31.109375 20.453125 19.1875 8.296875 
z
" id="DejaVuSans-32"/>
      </defs>
      <g transform="translate(39.254531 141.585237)scale(0.15 -0.15)">
       <use xlink:href="#DejaVuSans-32"/>
       <use x="63.623047" xlink:href="#DejaVuSans-30"/>
       <use x="127.246094" xlink:href="#DejaVuSans-30"/>
       <use x="190.869141" xlink:href="#DejaVuSans-30"/>
      </g>
     </g>
    </g>
    <g id="ytick_8">
     <g id="line2d_11">
      <g>
       <use style="stroke:#000000;stroke-width:0.8;" x="84.429531" xlink:href="#m39fda9972e" y="85.680717"/>
      </g>
     </g>
     <g id="text_12">
      <!-- 2500 -->
      <g transform="translate(39.254531 91.379545)scale(0.15 -0.15)">
       <use xlink:href="#DejaVuSans-32"/>
       <use x="63.623047" xlink:href="#DejaVuSans-35"/>
       <use x="127.246094" xlink:href="#DejaVuSans-30"/>
       <use x="190.869141" xlink:href="#DejaVuSans-30"/>
      </g>
     </g>
    </g>
    <g id="ytick_9">
     <g id="line2d_12">
      <g>
       <use style="stroke:#000000;stroke-width:0.8;" x="84.429531" xlink:href="#m39fda9972e" y="35.475025"/>
      </g>
     </g>
     <g id="text_13">
      <!-- 3000 -->
      <defs>
       <path d="M 40.578125 39.3125 
Q 47.65625 37.796875 51.625 33 
Q 55.609375 28.21875 55.609375 21.1875 
Q 55.609375 10.40625 48.1875 4.484375 
Q 40.765625 -1.421875 27.09375 -1.421875 
Q 22.515625 -1.421875 17.65625 -0.515625 
Q 12.796875 0.390625 7.625 2.203125 
L 7.625 11.71875 
Q 11.71875 9.328125 16.59375 8.109375 
Q 21.484375 6.890625 26.8125 6.890625 
Q 36.078125 6.890625 40.9375 10.546875 
Q 45.796875 14.203125 45.796875 21.1875 
Q 45.796875 27.640625 41.28125 31.265625 
Q 36.765625 34.90625 28.71875 34.90625 
L 20.21875 34.90625 
L 20.21875 43.015625 
L 29.109375 43.015625 
Q 36.375 43.015625 40.234375 45.921875 
Q 44.09375 48.828125 44.09375 54.296875 
Q 44.09375 59.90625 40.109375 62.90625 
Q 36.140625 65.921875 28.71875 65.921875 
Q 24.65625 65.921875 20.015625 65.03125 
Q 15.375 64.15625 9.8125 62.3125 
L 9.8125 71.09375 
Q 15.4375 72.65625 20.34375 73.4375 
Q 25.25 74.21875 29.59375 74.21875 
Q 40.828125 74.21875 47.359375 69.109375 
Q 53.90625 64.015625 53.90625 55.328125 
Q 53.90625 49.265625 50.4375 45.09375 
Q 46.96875 40.921875 40.578125 39.3125 
z
" id="DejaVuSans-33"/>
      </defs>
      <g transform="translate(39.254531 41.173853)scale(0.15 -0.15)">
       <use xlink:href="#DejaVuSans-33"/>
       <use x="63.623047" xlink:href="#DejaVuSans-30"/>
       <use x="127.246094" xlink:href="#DejaVuSans-30"/>
       <use x="190.869141" xlink:href="#DejaVuSans-30"/>
      </g>
     </g>
    </g>
    <g id="text_14">
     <!-- TF Motif to Region Center Distance (bp) -->
     <defs>
      <path d="M -0.296875 72.90625 
L 61.375 72.90625 
L 61.375 64.59375 
L 35.5 64.59375 
L 35.5 0 
L 25.59375 0 
L 25.59375 64.59375 
L -0.296875 64.59375 
z
" id="DejaVuSans-54"/>
      <path d="M 9.8125 72.90625 
L 51.703125 72.90625 
L 51.703125 64.59375 
L 19.671875 64.59375 
L 19.671875 43.109375 
L 48.578125 43.109375 
L 48.578125 34.8125 
L 19.671875 34.8125 
L 19.671875 0 
L 9.8125 0 
z
" id="DejaVuSans-46"/>
      <path d="M 9.421875 54.6875 
L 18.40625 54.6875 
L 18.40625 0 
L 9.421875 0 
z
M 9.421875 75.984375 
L 18.40625 75.984375 
L 18.40625 64.59375 
L 9.421875 64.59375 
z
" id="DejaVuSans-69"/>
      <path d="M 37.109375 75.984375 
L 37.109375 68.5 
L 28.515625 68.5 
Q 23.6875 68.5 21.796875 66.546875 
Q 19.921875 64.59375 19.921875 59.515625 
L 19.921875 54.6875 
L 34.71875 54.6875 
L 34.71875 47.703125 
L 19.921875 47.703125 
L 19.921875 0 
L 10.890625 0 
L 10.890625 47.703125 
L 2.296875 47.703125 
L 2.296875 54.6875 
L 10.890625 54.6875 
L 10.890625 58.5 
Q 10.890625 67.625 15.140625 71.796875 
Q 19.390625 75.984375 28.609375 75.984375 
z
" id="DejaVuSans-66"/>
      <path d="M 44.390625 34.1875 
Q 47.5625 33.109375 50.5625 29.59375 
Q 53.5625 26.078125 56.59375 19.921875 
L 66.609375 0 
L 56 0 
L 46.6875 18.703125 
Q 43.0625 26.03125 39.671875 28.421875 
Q 36.28125 30.8125 30.421875 30.8125 
L 19.671875 30.8125 
L 19.671875 0 
L 9.8125 0 
L 9.8125 72.90625 
L 32.078125 72.90625 
Q 44.578125 72.90625 50.734375 67.671875 
Q 56.890625 62.453125 56.890625 51.90625 
Q 56.890625 45.015625 53.6875 40.46875 
Q 50.484375 35.9375 44.390625 34.1875 
z
M 19.671875 64.796875 
L 19.671875 38.921875 
L 32.078125 38.921875 
Q 39.203125 38.921875 42.84375 42.21875 
Q 46.484375 45.515625 46.484375 51.90625 
Q 46.484375 58.296875 42.84375 61.546875 
Q 39.203125 64.796875 32.078125 64.796875 
z
" id="DejaVuSans-52"/>
      <path d="M 64.40625 67.28125 
L 64.40625 56.890625 
Q 59.421875 61.53125 53.78125 63.8125 
Q 48.140625 66.109375 41.796875 66.109375 
Q 29.296875 66.109375 22.65625 58.46875 
Q 16.015625 50.828125 16.015625 36.375 
Q 16.015625 21.96875 22.65625 14.328125 
Q 29.296875 6.6875 41.796875 6.6875 
Q 48.140625 6.6875 53.78125 8.984375 
Q 59.421875 11.28125 64.40625 15.921875 
L 64.40625 5.609375 
Q 59.234375 2.09375 53.4375 0.328125 
Q 47.65625 -1.421875 41.21875 -1.421875 
Q 24.65625 -1.421875 15.125 8.703125 
Q 5.609375 18.84375 5.609375 36.375 
Q 5.609375 53.953125 15.125 64.078125 
Q 24.65625 74.21875 41.21875 74.21875 
Q 47.75 74.21875 53.53125 72.484375 
Q 59.328125 70.75 64.40625 67.28125 
z
" id="DejaVuSans-43"/>
      <path d="M 19.671875 64.796875 
L 19.671875 8.109375 
L 31.59375 8.109375 
Q 46.6875 8.109375 53.6875 14.9375 
Q 60.6875 21.78125 60.6875 36.53125 
Q 60.6875 51.171875 53.6875 57.984375 
Q 46.6875 64.796875 31.59375 64.796875 
z
M 9.8125 72.90625 
L 30.078125 72.90625 
Q 51.265625 72.90625 61.171875 64.09375 
Q 71.09375 55.28125 71.09375 36.53125 
Q 71.09375 17.671875 61.125 8.828125 
Q 51.171875 0 30.078125 0 
L 9.8125 0 
z
" id="DejaVuSans-44"/>
      <path d="M 34.28125 27.484375 
Q 23.390625 27.484375 19.1875 25 
Q 14.984375 22.515625 14.984375 16.5 
Q 14.984375 11.71875 18.140625 8.90625 
Q 21.296875 6.109375 26.703125 6.109375 
Q 34.1875 6.109375 38.703125 11.40625 
Q 43.21875 16.703125 43.21875 25.484375 
L 43.21875 27.484375 
z
M 52.203125 31.203125 
L 52.203125 0 
L 43.21875 0 
L 43.21875 8.296875 
Q 40.140625 3.328125 35.546875 0.953125 
Q 30.953125 -1.421875 24.3125 -1.421875 
Q 15.921875 -1.421875 10.953125 3.296875 
Q 6 8.015625 6 15.921875 
Q 6 25.140625 12.171875 29.828125 
Q 18.359375 34.515625 30.609375 34.515625 
L 43.21875 34.515625 
L 43.21875 35.40625 
Q 43.21875 41.609375 39.140625 45 
Q 35.0625 48.390625 27.6875 48.390625 
Q 23 48.390625 18.546875 47.265625 
Q 14.109375 46.140625 10.015625 43.890625 
L 10.015625 52.203125 
Q 14.9375 54.109375 19.578125 55.046875 
Q 24.21875 56 28.609375 56 
Q 40.484375 56 46.34375 49.84375 
Q 52.203125 43.703125 52.203125 31.203125 
z
" id="DejaVuSans-61"/>
      <path d="M 31 75.875 
Q 24.46875 64.65625 21.28125 53.65625 
Q 18.109375 42.671875 18.109375 31.390625 
Q 18.109375 20.125 21.3125 9.0625 
Q 24.515625 -2 31 -13.1875 
L 23.1875 -13.1875 
Q 15.875 -1.703125 12.234375 9.375 
Q 8.59375 20.453125 8.59375 31.390625 
Q 8.59375 42.28125 12.203125 53.3125 
Q 15.828125 64.359375 23.1875 75.875 
z
" id="DejaVuSans-28"/>
      <path d="M 48.6875 27.296875 
Q 48.6875 37.203125 44.609375 42.84375 
Q 40.53125 48.484375 33.40625 48.484375 
Q 26.265625 48.484375 22.1875 42.84375 
Q 18.109375 37.203125 18.109375 27.296875 
Q 18.109375 17.390625 22.1875 11.75 
Q 26.265625 6.109375 33.40625 6.109375 
Q 40.53125 6.109375 44.609375 11.75 
Q 48.6875 17.390625 48.6875 27.296875 
z
M 18.109375 46.390625 
Q 20.953125 51.265625 25.265625 53.625 
Q 29.59375 56 35.59375 56 
Q 45.5625 56 51.78125 48.09375 
Q 58.015625 40.1875 58.015625 27.296875 
Q 58.015625 14.40625 51.78125 6.484375 
Q 45.5625 -1.421875 35.59375 -1.421875 
Q 29.59375 -1.421875 25.265625 0.953125 
Q 20.953125 3.328125 18.109375 8.203125 
L 18.109375 0 
L 9.078125 0 
L 9.078125 75.984375 
L 18.109375 75.984375 
z
" id="DejaVuSans-62"/>
      <path d="M 18.109375 8.203125 
L 18.109375 -20.796875 
L 9.078125 -20.796875 
L 9.078125 54.6875 
L 18.109375 54.6875 
L 18.109375 46.390625 
Q 20.953125 51.265625 25.265625 53.625 
Q 29.59375 56 35.59375 56 
Q 45.5625 56 51.78125 48.09375 
Q 58.015625 40.1875 58.015625 27.296875 
Q 58.015625 14.40625 51.78125 6.484375 
Q 45.5625 -1.421875 35.59375 -1.421875 
Q 29.59375 -1.421875 25.265625 0.953125 
Q 20.953125 3.328125 18.109375 8.203125 
z
M 48.6875 27.296875 
Q 48.6875 37.203125 44.609375 42.84375 
Q 40.53125 48.484375 33.40625 48.484375 
Q 26.265625 48.484375 22.1875 42.84375 
Q 18.109375 37.203125 18.109375 27.296875 
Q 18.109375 17.390625 22.1875 11.75 
Q 26.265625 6.109375 33.40625 6.109375 
Q 40.53125 6.109375 44.609375 11.75 
Q 48.6875 17.390625 48.6875 27.296875 
z
" id="DejaVuSans-70"/>
      <path d="M 8.015625 75.875 
L 15.828125 75.875 
Q 23.140625 64.359375 26.78125 53.3125 
Q 30.421875 42.28125 30.421875 31.390625 
Q 30.421875 20.453125 26.78125 9.375 
Q 23.140625 -1.703125 15.828125 -13.1875 
L 8.015625 -13.1875 
Q 14.5 -2 17.703125 9.0625 
Q 20.90625 20.125 20.90625 31.390625 
Q 20.90625 42.671875 17.703125 53.65625 
Q 14.5 64.65625 8.015625 75.875 
z
" id="DejaVuSans-29"/>
     </defs>
     <g transform="translate(19.3575 404.631875)rotate(-90)scale(0.16 -0.16)">
      <use xlink:href="#DejaVuSans-54"/>
      <use x="61.083984" xlink:href="#DejaVuSans-46"/>
      <use x="118.603516" xlink:href="#DejaVuSans-20"/>
      <use x="150.390625" xlink:href="#DejaVuSans-4d"/>
      <use x="236.669922" xlink:href="#DejaVuSans-6f"/>
      <use x="297.851562" xlink:href="#DejaVuSans-74"/>
      <use x="337.060547" xlink:href="#DejaVuSans-69"/>
      <use x="364.84375" xlink:href="#DejaVuSans-66"/>
      <use x="400.048828" xlink:href="#DejaVuSans-20"/>
      <use x="431.835938" xlink:href="#DejaVuSans-74"/>
      <use x="471.044922" xlink:href="#DejaVuSans-6f"/>
      <use x="532.226562" xlink:href="#DejaVuSans-20"/>
      <use x="564.013672" xlink:href="#DejaVuSans-52"/>
      <use x="633.433594" xlink:href="#DejaVuSans-65"/>
      <use x="694.957031" xlink:href="#DejaVuSans-67"/>
      <use x="758.433594" xlink:href="#DejaVuSans-69"/>
      <use x="786.216797" xlink:href="#DejaVuSans-6f"/>
      <use x="847.398438" xlink:href="#DejaVuSans-6e"/>
      <use x="910.777344" xlink:href="#DejaVuSans-20"/>
      <use x="942.564453" xlink:href="#DejaVuSans-43"/>
      <use x="1012.388672" xlink:href="#DejaVuSans-65"/>
      <use x="1073.912109" xlink:href="#DejaVuSans-6e"/>
      <use x="1137.291016" xlink:href="#DejaVuSans-74"/>
      <use x="1176.5" xlink:href="#DejaVuSans-65"/>
      <use x="1238.023438" xlink:href="#DejaVuSans-72"/>
      <use x="1279.136719" xlink:href="#DejaVuSans-20"/>
      <use x="1310.923828" xlink:href="#DejaVuSans-44"/>
      <use x="1387.925781" xlink:href="#DejaVuSans-69"/>
      <use x="1415.708984" xlink:href="#DejaVuSans-73"/>
      <use x="1467.808594" xlink:href="#DejaVuSans-74"/>
      <use x="1507.017578" xlink:href="#DejaVuSans-61"/>
      <use x="1568.296875" xlink:href="#DejaVuSans-6e"/>
      <use x="1631.675781" xlink:href="#DejaVuSans-63"/>
      <use x="1686.65625" xlink:href="#DejaVuSans-65"/>
      <use x="1748.179688" xlink:href="#DejaVuSans-20"/>
      <use x="1779.966797" xlink:href="#DejaVuSans-28"/>
      <use x="1818.980469" xlink:href="#DejaVuSans-62"/>
      <use x="1882.457031" xlink:href="#DejaVuSans-70"/>
      <use x="1945.933594" xlink:href="#DejaVuSans-29"/>
     </g>
    </g>
   </g>
   <g id="line2d_13">
    <path clip-path="url(#p7352e301e0)" d="M 196.029531 346.449082 
L 196.029531 327.270508 
" style="fill:none;stroke:#4c4c4c;stroke-linecap:square;stroke-width:1.5;"/>
   </g>
   <g id="line2d_14">
    <path clip-path="url(#p7352e301e0)" d="M 196.029531 339.319874 
L 196.029531 334.500127 
" style="fill:none;stroke:#4c4c4c;stroke-linecap:square;stroke-width:4.5;"/>
   </g>
   <g id="line2d_15">
    <path clip-path="url(#p7352e301e0)" d="M 419.229531 347.75443 
L 419.229531 326.065571 
" style="fill:none;stroke:#4c4c4c;stroke-linecap:square;stroke-width:1.5;"/>
   </g>
   <g id="line2d_16">
    <path clip-path="url(#p7352e301e0)" d="M 419.229531 339.621108 
L 419.229531 334.198893 
" style="fill:none;stroke:#4c4c4c;stroke-linecap:square;stroke-width:4.5;"/>
   </g>
   <g id="line2d_17">
    <path clip-path="url(#p7352e301e0)" d="M 642.429531 347.955253 
L 642.429531 326.065571 
" style="fill:none;stroke:#4c4c4c;stroke-linecap:square;stroke-width:1.5;"/>
   </g>
   <g id="line2d_18">
    <path clip-path="url(#p7352e301e0)" d="M 642.429531 339.821931 
L 642.429531 334.299304 
" style="fill:none;stroke:#4c4c4c;stroke-linecap:square;stroke-width:4.5;"/>
   </g>
   <g id="line2d_19">
    <path clip-path="url(#p7352e301e0)" d="M 84.429531 336.709178 
L 754.029531 336.709178 
" style="fill:none;opacity:0.5;stroke:#ff0000;stroke-dasharray:5.55,2.4;stroke-dashoffset:0;stroke-width:1.5;"/>
   </g>
   <g id="patch_3">
    <path d="M 84.429531 463.276875 
L 84.429531 28.396875 
" style="fill:none;stroke:#000000;stroke-linecap:square;stroke-linejoin:miter;stroke-width:0.8;"/>
   </g>
   <g id="patch_4">
    <path d="M 84.429531 463.276875 
L 754.029531 463.276875 
" style="fill:none;stroke:#000000;stroke-linecap:square;stroke-linejoin:miter;stroke-width:0.8;"/>
   </g>
   <g id="PathCollection_1">
    <defs>
     <path d="M 0 1.5 
C 0.397805 1.5 0.77937 1.341951 1.06066 1.06066 
C 1.341951 0.77937 1.5 0.397805 1.5 0 
C 1.5 -0.397805 1.341951 -0.77937 1.06066 -1.06066 
C 0.77937 -1.341951 0.397805 -1.5 0 -1.5 
C -0.397805 -1.5 -0.77937 -1.341951 -1.06066 -1.06066 
C -1.341951 -0.77937 -1.5 -0.397805 -1.5 0 
C -1.5 0.397805 -1.341951 0.77937 -1.06066 1.06066 
C -0.77937 1.341951 -0.397805 1.5 0 1.5 
z
" id="m4e3675a838" style="stroke:#4c4c4c;"/>
    </defs>
    <g clip-path="url(#p7352e301e0)">
     <use style="fill:#ffffff;stroke:#4c4c4c;" x="196.029531" xlink:href="#m4e3675a838" y="336.960206"/>
    </g>
   </g>
   <g id="PathCollection_2">
    <g clip-path="url(#p7352e301e0)">
     <use style="fill:#ffffff;stroke:#4c4c4c;" x="419.229531" xlink:href="#m4e3675a838" y="336.91"/>
    </g>
   </g>
   <g id="PathCollection_3">
    <g clip-path="url(#p7352e301e0)">
     <use style="fill:#ffffff;stroke:#4c4c4c;" x="642.429531" xlink:href="#m4e3675a838" y="337.010412"/>
    </g>
   </g>
   <g id="text_15">
    <!-- N = 2508 -->
    <defs>
     <path d="M 9.8125 72.90625 
L 23.09375 72.90625 
L 55.421875 11.921875 
L 55.421875 72.90625 
L 64.984375 72.90625 
L 64.984375 0 
L 51.703125 0 
L 19.390625 60.984375 
L 19.390625 0 
L 9.8125 0 
z
" id="DejaVuSans-4e"/>
     <path d="M 10.59375 45.40625 
L 73.1875 45.40625 
L 73.1875 37.203125 
L 10.59375 37.203125 
z
M 10.59375 25.484375 
L 73.1875 25.484375 
L 73.1875 17.1875 
L 10.59375 17.1875 
z
" id="DejaVuSans-3d"/>
     <path d="M 31.78125 34.625 
Q 24.75 34.625 20.71875 30.859375 
Q 16.703125 27.09375 16.703125 20.515625 
Q 16.703125 13.921875 20.71875 10.15625 
Q 24.75 6.390625 31.78125 6.390625 
Q 38.8125 6.390625 42.859375 10.171875 
Q 46.921875 13.96875 46.921875 20.515625 
Q 46.921875 27.09375 42.890625 30.859375 
Q 38.875 34.625 31.78125 34.625 
z
M 21.921875 38.8125 
Q 15.578125 40.375 12.03125 44.71875 
Q 8.5 49.078125 8.5 55.328125 
Q 8.5 64.0625 14.71875 69.140625 
Q 20.953125 74.21875 31.78125 74.21875 
Q 42.671875 74.21875 48.875 69.140625 
Q 55.078125 64.0625 55.078125 55.328125 
Q 55.078125 49.078125 51.53125 44.71875 
Q 48 40.375 41.703125 38.8125 
Q 48.828125 37.15625 52.796875 32.3125 
Q 56.78125 27.484375 56.78125 20.515625 
Q 56.78125 9.90625 50.3125 4.234375 
Q 43.84375 -1.421875 31.78125 -1.421875 
Q 19.734375 -1.421875 13.25 4.234375 
Q 6.78125 9.90625 6.78125 20.515625 
Q 6.78125 27.484375 10.78125 32.3125 
Q 14.796875 37.15625 21.921875 38.8125 
z
M 18.3125 54.390625 
Q 18.3125 48.734375 21.84375 45.5625 
Q 25.390625 42.390625 31.78125 42.390625 
Q 38.140625 42.390625 41.71875 45.5625 
Q 45.3125 48.734375 45.3125 54.390625 
Q 45.3125 60.0625 41.71875 63.234375 
Q 38.140625 66.40625 31.78125 66.40625 
Q 25.390625 66.40625 21.84375 63.234375 
Q 18.3125 60.0625 18.3125 54.390625 
z
" id="DejaVuSans-38"/>
    </defs>
    <g style="fill:#373333;" transform="translate(207.189531 99.584981)scale(0.14 -0.14)">
     <use xlink:href="#DejaVuSans-4e"/>
     <use x="74.804688" xlink:href="#DejaVuSans-20"/>
     <use x="106.591797" xlink:href="#DejaVuSans-3d"/>
     <use x="190.380859" xlink:href="#DejaVuSans-20"/>
     <use x="222.167969" xlink:href="#DejaVuSans-32"/>
     <use x="285.791016" xlink:href="#DejaVuSans-35"/>
     <use x="349.414062" xlink:href="#DejaVuSans-30"/>
     <use x="413.037109" xlink:href="#DejaVuSans-38"/>
    </g>
   </g>
   <g id="text_16">
    <!-- std = 90.02 -->
    <defs>
     <path d="M 10.984375 1.515625 
L 10.984375 10.5 
Q 14.703125 8.734375 18.5 7.8125 
Q 22.3125 6.890625 25.984375 6.890625 
Q 35.75 6.890625 40.890625 13.453125 
Q 46.046875 20.015625 46.78125 33.40625 
Q 43.953125 29.203125 39.59375 26.953125 
Q 35.25 24.703125 29.984375 24.703125 
Q 19.046875 24.703125 12.671875 31.3125 
Q 6.296875 37.9375 6.296875 49.421875 
Q 6.296875 60.640625 12.9375 67.421875 
Q 19.578125 74.21875 30.609375 74.21875 
Q 43.265625 74.21875 49.921875 64.515625 
Q 56.59375 54.828125 56.59375 36.375 
Q 56.59375 19.140625 48.40625 8.859375 
Q 40.234375 -1.421875 26.421875 -1.421875 
Q 22.703125 -1.421875 18.890625 -0.6875 
Q 15.09375 0.046875 10.984375 1.515625 
z
M 30.609375 32.421875 
Q 37.25 32.421875 41.125 36.953125 
Q 45.015625 41.5 45.015625 49.421875 
Q 45.015625 57.28125 41.125 61.84375 
Q 37.25 66.40625 30.609375 66.40625 
Q 23.96875 66.40625 20.09375 61.84375 
Q 16.21875 57.28125 16.21875 49.421875 
Q 16.21875 41.5 20.09375 36.953125 
Q 23.96875 32.421875 30.609375 32.421875 
z
" id="DejaVuSans-39"/>
     <path d="M 10.6875 12.40625 
L 21 12.40625 
L 21 0 
L 10.6875 0 
z
" id="DejaVuSans-2e"/>
    </defs>
    <g style="fill:#373333;" transform="translate(207.189531 119.667257)scale(0.14 -0.14)">
     <use xlink:href="#DejaVuSans-73"/>
     <use x="52.099609" xlink:href="#DejaVuSans-74"/>
     <use x="91.308594" xlink:href="#DejaVuSans-64"/>
     <use x="154.785156" xlink:href="#DejaVuSans-20"/>
     <use x="186.572266" xlink:href="#DejaVuSans-3d"/>
     <use x="270.361328" xlink:href="#DejaVuSans-20"/>
     <use x="302.148438" xlink:href="#DejaVuSans-39"/>
     <use x="365.771484" xlink:href="#DejaVuSans-30"/>
     <use x="429.394531" xlink:href="#DejaVuSans-2e"/>
     <use x="461.181641" xlink:href="#DejaVuSans-30"/>
     <use x="524.804688" xlink:href="#DejaVuSans-32"/>
    </g>
   </g>
   <g id="text_17">
    <!-- mean = -1.44 -->
    <defs>
     <path d="M 52 44.1875 
Q 55.375 50.25 60.0625 53.125 
Q 64.75 56 71.09375 56 
Q 79.640625 56 84.28125 50.015625 
Q 88.921875 44.046875 88.921875 33.015625 
L 88.921875 0 
L 79.890625 0 
L 79.890625 32.71875 
Q 79.890625 40.578125 77.09375 44.375 
Q 74.3125 48.1875 68.609375 48.1875 
Q 61.625 48.1875 57.5625 43.546875 
Q 53.515625 38.921875 53.515625 30.90625 
L 53.515625 0 
L 44.484375 0 
L 44.484375 32.71875 
Q 44.484375 40.625 41.703125 44.40625 
Q 38.921875 48.1875 33.109375 48.1875 
Q 26.21875 48.1875 22.15625 43.53125 
Q 18.109375 38.875 18.109375 30.90625 
L 18.109375 0 
L 9.078125 0 
L 9.078125 54.6875 
L 18.109375 54.6875 
L 18.109375 46.1875 
Q 21.1875 51.21875 25.484375 53.609375 
Q 29.78125 56 35.6875 56 
Q 41.65625 56 45.828125 52.96875 
Q 50 49.953125 52 44.1875 
z
" id="DejaVuSans-6d"/>
     <path d="M 4.890625 31.390625 
L 31.203125 31.390625 
L 31.203125 23.390625 
L 4.890625 23.390625 
z
" id="DejaVuSans-2d"/>
     <path d="M 37.796875 64.3125 
L 12.890625 25.390625 
L 37.796875 25.390625 
z
M 35.203125 72.90625 
L 47.609375 72.90625 
L 47.609375 25.390625 
L 58.015625 25.390625 
L 58.015625 17.1875 
L 47.609375 17.1875 
L 47.609375 0 
L 37.796875 0 
L 37.796875 17.1875 
L 4.890625 17.1875 
L 4.890625 26.703125 
z
" id="DejaVuSans-34"/>
    </defs>
    <g style="fill:#373333;" transform="translate(207.189531 139.749534)scale(0.14 -0.14)">
     <use xlink:href="#DejaVuSans-6d"/>
     <use x="97.412109" xlink:href="#DejaVuSans-65"/>
     <use x="158.935547" xlink:href="#DejaVuSans-61"/>
     <use x="220.214844" xlink:href="#DejaVuSans-6e"/>
     <use x="283.59375" xlink:href="#DejaVuSans-20"/>
     <use x="315.380859" xlink:href="#DejaVuSans-3d"/>
     <use x="399.169922" xlink:href="#DejaVuSans-20"/>
     <use x="430.957031" xlink:href="#DejaVuSans-2d"/>
     <use x="467.041016" xlink:href="#DejaVuSans-31"/>
     <use x="530.664062" xlink:href="#DejaVuSans-2e"/>
     <use x="562.451172" xlink:href="#DejaVuSans-34"/>
     <use x="626.074219" xlink:href="#DejaVuSans-34"/>
    </g>
   </g>
   <g id="text_18">
    <!-- median = -2.5 -->
    <g style="fill:#373333;" transform="translate(207.189531 159.831811)scale(0.14 -0.14)">
     <use xlink:href="#DejaVuSans-6d"/>
     <use x="97.412109" xlink:href="#DejaVuSans-65"/>
     <use x="158.935547" xlink:href="#DejaVuSans-64"/>
     <use x="222.412109" xlink:href="#DejaVuSans-69"/>
     <use x="250.195312" xlink:href="#DejaVuSans-61"/>
     <use x="311.474609" xlink:href="#DejaVuSans-6e"/>
     <use x="374.853516" xlink:href="#DejaVuSans-20"/>
     <use x="406.640625" xlink:href="#DejaVuSans-3d"/>
     <use x="490.429688" xlink:href="#DejaVuSans-20"/>
     <use x="522.216797" xlink:href="#DejaVuSans-2d"/>
     <use x="558.300781" xlink:href="#DejaVuSans-32"/>
     <use x="621.923828" xlink:href="#DejaVuSans-2e"/>
     <use x="653.710938" xlink:href="#DejaVuSans-35"/>
    </g>
   </g>
   <g id="text_19">
    <!-- N = 2507 -->
    <defs>
     <path d="M 8.203125 72.90625 
L 55.078125 72.90625 
L 55.078125 68.703125 
L 28.609375 0 
L 18.3125 0 
L 43.21875 64.59375 
L 8.203125 64.59375 
z
" id="DejaVuSans-37"/>
    </defs>
    <g style="fill:#373333;" transform="translate(430.389531 99.584981)scale(0.14 -0.14)">
     <use xlink:href="#DejaVuSans-4e"/>
     <use x="74.804688" xlink:href="#DejaVuSans-20"/>
     <use x="106.591797" xlink:href="#DejaVuSans-3d"/>
     <use x="190.380859" xlink:href="#DejaVuSans-20"/>
     <use x="222.167969" xlink:href="#DejaVuSans-32"/>
     <use x="285.791016" xlink:href="#DejaVuSans-35"/>
     <use x="349.414062" xlink:href="#DejaVuSans-30"/>
     <use x="413.037109" xlink:href="#DejaVuSans-37"/>
    </g>
   </g>
   <g id="text_20">
    <!-- std = 104.35 -->
    <g style="fill:#373333;" transform="translate(430.389531 119.667257)scale(0.14 -0.14)">
     <use xlink:href="#DejaVuSans-73"/>
     <use x="52.099609" xlink:href="#DejaVuSans-74"/>
     <use x="91.308594" xlink:href="#DejaVuSans-64"/>
     <use x="154.785156" xlink:href="#DejaVuSans-20"/>
     <use x="186.572266" xlink:href="#DejaVuSans-3d"/>
     <use x="270.361328" xlink:href="#DejaVuSans-20"/>
     <use x="302.148438" xlink:href="#DejaVuSans-31"/>
     <use x="365.771484" xlink:href="#DejaVuSans-30"/>
     <use x="429.394531" xlink:href="#DejaVuSans-34"/>
     <use x="493.017578" xlink:href="#DejaVuSans-2e"/>
     <use x="524.804688" xlink:href="#DejaVuSans-33"/>
     <use x="588.427734" xlink:href="#DejaVuSans-35"/>
    </g>
   </g>
   <g id="text_21">
    <!-- mean = -2.24 -->
    <g style="fill:#373333;" transform="translate(430.389531 139.749534)scale(0.14 -0.14)">
     <use xlink:href="#DejaVuSans-6d"/>
     <use x="97.412109" xlink:href="#DejaVuSans-65"/>
     <use x="158.935547" xlink:href="#DejaVuSans-61"/>
     <use x="220.214844" xlink:href="#DejaVuSans-6e"/>
     <use x="283.59375" xlink:href="#DejaVuSans-20"/>
     <use x="315.380859" xlink:href="#DejaVuSans-3d"/>
     <use x="399.169922" xlink:href="#DejaVuSans-20"/>
     <use x="430.957031" xlink:href="#DejaVuSans-2d"/>
     <use x="467.041016" xlink:href="#DejaVuSans-32"/>
     <use x="530.664062" xlink:href="#DejaVuSans-2e"/>
     <use x="562.451172" xlink:href="#DejaVuSans-32"/>
     <use x="626.074219" xlink:href="#DejaVuSans-34"/>
    </g>
   </g>
   <g id="text_22">
    <!-- median = -2.0 -->
    <g style="fill:#373333;" transform="translate(430.389531 159.831811)scale(0.14 -0.14)">
     <use xlink:href="#DejaVuSans-6d"/>
     <use x="97.412109" xlink:href="#DejaVuSans-65"/>
     <use x="158.935547" xlink:href="#DejaVuSans-64"/>
     <use x="222.412109" xlink:href="#DejaVuSans-69"/>
     <use x="250.195312" xlink:href="#DejaVuSans-61"/>
     <use x="311.474609" xlink:href="#DejaVuSans-6e"/>
     <use x="374.853516" xlink:href="#DejaVuSans-20"/>
     <use x="406.640625" xlink:href="#DejaVuSans-3d"/>
     <use x="490.429688" xlink:href="#DejaVuSans-20"/>
     <use x="522.216797" xlink:href="#DejaVuSans-2d"/>
     <use x="558.300781" xlink:href="#DejaVuSans-32"/>
     <use x="621.923828" xlink:href="#DejaVuSans-2e"/>
     <use x="653.710938" xlink:href="#DejaVuSans-30"/>
    </g>
   </g>
   <g id="text_23">
    <!-- N = 2012 -->
    <g style="fill:#373333;" transform="translate(653.589531 99.584981)scale(0.14 -0.14)">
     <use xlink:href="#DejaVuSans-4e"/>
     <use x="74.804688" xlink:href="#DejaVuSans-20"/>
     <use x="106.591797" xlink:href="#DejaVuSans-3d"/>
     <use x="190.380859" xlink:href="#DejaVuSans-20"/>
     <use x="222.167969" xlink:href="#DejaVuSans-32"/>
     <use x="285.791016" xlink:href="#DejaVuSans-30"/>
     <use x="349.414062" xlink:href="#DejaVuSans-31"/>
     <use x="413.037109" xlink:href="#DejaVuSans-32"/>
    </g>
   </g>
   <g id="text_24">
    <!-- std = 72.14 -->
    <g style="fill:#373333;" transform="translate(653.589531 119.667257)scale(0.14 -0.14)">
     <use xlink:href="#DejaVuSans-73"/>
     <use x="52.099609" xlink:href="#DejaVuSans-74"/>
     <use x="91.308594" xlink:href="#DejaVuSans-64"/>
     <use x="154.785156" xlink:href="#DejaVuSans-20"/>
     <use x="186.572266" xlink:href="#DejaVuSans-3d"/>
     <use x="270.361328" xlink:href="#DejaVuSans-20"/>
     <use x="302.148438" xlink:href="#DejaVuSans-37"/>
     <use x="365.771484" xlink:href="#DejaVuSans-32"/>
     <use x="429.394531" xlink:href="#DejaVuSans-2e"/>
     <use x="461.181641" xlink:href="#DejaVuSans-31"/>
     <use x="524.804688" xlink:href="#DejaVuSans-34"/>
    </g>
   </g>
   <g id="text_25">
    <!-- mean = -3.72 -->
    <g style="fill:#373333;" transform="translate(653.589531 139.749534)scale(0.14 -0.14)">
     <use xlink:href="#DejaVuSans-6d"/>
     <use x="97.412109" xlink:href="#DejaVuSans-65"/>
     <use x="158.935547" xlink:href="#DejaVuSans-61"/>
     <use x="220.214844" xlink:href="#DejaVuSans-6e"/>
     <use x="283.59375" xlink:href="#DejaVuSans-20"/>
     <use x="315.380859" xlink:href="#DejaVuSans-3d"/>
     <use x="399.169922" xlink:href="#DejaVuSans-20"/>
     <use x="430.957031" xlink:href="#DejaVuSans-2d"/>
     <use x="467.041016" xlink:href="#DejaVuSans-33"/>
     <use x="530.664062" xlink:href="#DejaVuSans-2e"/>
     <use x="562.451172" xlink:href="#DejaVuSans-37"/>
     <use x="626.074219" xlink:href="#DejaVuSans-32"/>
    </g>
   </g>
   <g id="text_26">
    <!-- median = -3.0 -->
    <g style="fill:#373333;" transform="translate(653.589531 159.831811)scale(0.14 -0.14)">
     <use xlink:href="#DejaVuSans-6d"/>
     <use x="97.412109" xlink:href="#DejaVuSans-65"/>
     <use x="158.935547" xlink:href="#DejaVuSans-64"/>
     <use x="222.412109" xlink:href="#DejaVuSans-69"/>
     <use x="250.195312" xlink:href="#DejaVuSans-61"/>
     <use x="311.474609" xlink:href="#DejaVuSans-6e"/>
     <use x="374.853516" xlink:href="#DejaVuSans-20"/>
     <use x="406.640625" xlink:href="#DejaVuSans-3d"/>
     <use x="490.429688" xlink:href="#DejaVuSans-20"/>
     <use x="522.216797" xlink:href="#DejaVuSans-2d"/>
     <use x="558.300781" xlink:href="#DejaVuSans-33"/>
     <use x="621.923828" xlink:href="#DejaVuSans-2e"/>
     <use x="653.710938" xlink:href="#DejaVuSans-30"/>
    </g>
   </g>
   <g id="text_27">
    <!-- REST ChIP-seq -->
    <defs>
     <path d="M 35.890625 40.578125 
Q 41.796875 40.578125 44.359375 42.765625 
Q 46.921875 44.96875 46.921875 50 
Q 46.921875 54.984375 44.359375 57.125 
Q 41.796875 59.28125 35.890625 59.28125 
L 27.984375 59.28125 
L 27.984375 40.578125 
z
M 27.984375 27.59375 
L 27.984375 0 
L 9.1875 0 
L 9.1875 72.90625 
L 37.890625 72.90625 
Q 52.296875 72.90625 59 68.0625 
Q 65.71875 63.234375 65.71875 52.78125 
Q 65.71875 45.5625 62.21875 40.921875 
Q 58.734375 36.28125 51.703125 34.078125 
Q 55.5625 33.203125 58.609375 30.09375 
Q 61.671875 27 64.796875 20.703125 
L 75 0 
L 54.984375 0 
L 46.09375 18.109375 
Q 43.40625 23.578125 40.640625 25.578125 
Q 37.890625 27.59375 33.296875 27.59375 
z
" id="DejaVuSans-Bold-52"/>
     <path d="M 9.1875 72.90625 
L 59.90625 72.90625 
L 59.90625 58.6875 
L 27.984375 58.6875 
L 27.984375 45.125 
L 58.015625 45.125 
L 58.015625 30.90625 
L 27.984375 30.90625 
L 27.984375 14.203125 
L 60.984375 14.203125 
L 60.984375 0 
L 9.1875 0 
z
" id="DejaVuSans-Bold-45"/>
     <path d="M 59.90625 70.609375 
L 59.90625 55.171875 
Q 53.90625 57.859375 48.1875 59.21875 
Q 42.484375 60.59375 37.40625 60.59375 
Q 30.671875 60.59375 27.4375 58.734375 
Q 24.21875 56.890625 24.21875 52.984375 
Q 24.21875 50.046875 26.390625 48.40625 
Q 28.5625 46.78125 34.28125 45.609375 
L 42.28125 44 
Q 54.4375 41.546875 59.5625 36.5625 
Q 64.703125 31.59375 64.703125 22.40625 
Q 64.703125 10.359375 57.546875 4.46875 
Q 50.390625 -1.421875 35.6875 -1.421875 
Q 28.765625 -1.421875 21.78125 -0.09375 
Q 14.796875 1.21875 7.8125 3.8125 
L 7.8125 19.671875 
Q 14.796875 15.96875 21.3125 14.078125 
Q 27.828125 12.203125 33.890625 12.203125 
Q 40.046875 12.203125 43.3125 14.25 
Q 46.578125 16.3125 46.578125 20.125 
Q 46.578125 23.53125 44.359375 25.390625 
Q 42.140625 27.25 35.5 28.71875 
L 28.21875 30.328125 
Q 17.28125 32.671875 12.21875 37.796875 
Q 7.171875 42.921875 7.171875 51.609375 
Q 7.171875 62.5 14.203125 68.359375 
Q 21.234375 74.21875 34.421875 74.21875 
Q 40.4375 74.21875 46.78125 73.3125 
Q 53.125 72.40625 59.90625 70.609375 
z
" id="DejaVuSans-Bold-53"/>
     <path d="M 0.484375 72.90625 
L 67.671875 72.90625 
L 67.671875 58.6875 
L 43.5 58.6875 
L 43.5 0 
L 24.703125 0 
L 24.703125 58.6875 
L 0.484375 58.6875 
z
" id="DejaVuSans-Bold-54"/>
     <path id="DejaVuSans-Bold-20"/>
     <path d="M 67 4 
Q 61.8125 1.3125 56.203125 -0.046875 
Q 50.59375 -1.421875 44.484375 -1.421875 
Q 26.265625 -1.421875 15.625 8.765625 
Q 4.984375 18.953125 4.984375 36.375 
Q 4.984375 53.859375 15.625 64.03125 
Q 26.265625 74.21875 44.484375 74.21875 
Q 50.59375 74.21875 56.203125 72.84375 
Q 61.8125 71.484375 67 68.796875 
L 67 53.71875 
Q 61.765625 57.28125 56.6875 58.9375 
Q 51.609375 60.59375 46 60.59375 
Q 35.9375 60.59375 30.171875 54.140625 
Q 24.421875 47.703125 24.421875 36.375 
Q 24.421875 25.09375 30.171875 18.640625 
Q 35.9375 12.203125 46 12.203125 
Q 51.609375 12.203125 56.6875 13.859375 
Q 61.765625 15.53125 67 19.09375 
z
" id="DejaVuSans-Bold-43"/>
     <path d="M 63.375 33.296875 
L 63.375 0 
L 45.796875 0 
L 45.796875 5.421875 
L 45.796875 25.390625 
Q 45.796875 32.5625 45.484375 35.25 
Q 45.171875 37.9375 44.390625 39.203125 
Q 43.359375 40.921875 41.59375 41.875 
Q 39.84375 42.828125 37.59375 42.828125 
Q 32.125 42.828125 29 38.59375 
Q 25.875 34.375 25.875 26.90625 
L 25.875 0 
L 8.40625 0 
L 8.40625 75.984375 
L 25.875 75.984375 
L 25.875 46.6875 
Q 29.828125 51.46875 34.265625 53.734375 
Q 38.71875 56 44.09375 56 
Q 53.5625 56 58.46875 50.1875 
Q 63.375 44.390625 63.375 33.296875 
z
" id="DejaVuSans-Bold-68"/>
     <path d="M 9.1875 72.90625 
L 27.984375 72.90625 
L 27.984375 0 
L 9.1875 0 
z
" id="DejaVuSans-Bold-49"/>
     <path d="M 9.1875 72.90625 
L 40.375 72.90625 
Q 54.296875 72.90625 61.734375 66.71875 
Q 69.1875 60.546875 69.1875 49.125 
Q 69.1875 37.640625 61.734375 31.46875 
Q 54.296875 25.296875 40.375 25.296875 
L 27.984375 25.296875 
L 27.984375 0 
L 9.1875 0 
z
M 27.984375 59.28125 
L 27.984375 38.921875 
L 38.375 38.921875 
Q 43.84375 38.921875 46.828125 41.578125 
Q 49.8125 44.234375 49.8125 49.125 
Q 49.8125 54 46.828125 56.640625 
Q 43.84375 59.28125 38.375 59.28125 
z
" id="DejaVuSans-Bold-50"/>
     <path d="M 5.421875 35.890625 
L 36.078125 35.890625 
L 36.078125 21.6875 
L 5.421875 21.6875 
z
" id="DejaVuSans-Bold-2d"/>
     <path d="M 51.125 52.984375 
L 51.125 39.703125 
Q 45.515625 42.046875 40.28125 43.21875 
Q 35.0625 44.390625 30.421875 44.390625 
Q 25.4375 44.390625 23.015625 43.140625 
Q 20.609375 41.890625 20.609375 39.3125 
Q 20.609375 37.203125 22.4375 36.078125 
Q 24.265625 34.96875 29 34.421875 
L 32.078125 33.984375 
Q 45.515625 32.28125 50.140625 28.375 
Q 54.78125 24.46875 54.78125 16.109375 
Q 54.78125 7.375 48.328125 2.96875 
Q 41.890625 -1.421875 29.109375 -1.421875 
Q 23.6875 -1.421875 17.890625 -0.5625 
Q 12.109375 0.296875 6 2 
L 6 15.28125 
Q 11.234375 12.75 16.71875 11.46875 
Q 22.21875 10.203125 27.875 10.203125 
Q 33.015625 10.203125 35.59375 11.609375 
Q 38.1875 13.03125 38.1875 15.828125 
Q 38.1875 18.171875 36.40625 19.3125 
Q 34.625 20.453125 29.296875 21.09375 
L 26.21875 21.484375 
Q 14.546875 22.953125 9.859375 26.90625 
Q 5.171875 30.859375 5.171875 38.921875 
Q 5.171875 47.609375 11.125 51.796875 
Q 17.09375 56 29.390625 56 
Q 34.234375 56 39.546875 55.265625 
Q 44.875 54.546875 51.125 52.984375 
z
" id="DejaVuSans-Bold-73"/>
     <path d="M 62.984375 27.484375 
L 62.984375 22.515625 
L 22.125 22.515625 
Q 22.75 16.359375 26.5625 13.28125 
Q 30.375 10.203125 37.203125 10.203125 
Q 42.71875 10.203125 48.5 11.84375 
Q 54.296875 13.484375 60.40625 16.796875 
L 60.40625 3.328125 
Q 54.203125 0.984375 48 -0.21875 
Q 41.796875 -1.421875 35.59375 -1.421875 
Q 20.75 -1.421875 12.515625 6.125 
Q 4.296875 13.671875 4.296875 27.296875 
Q 4.296875 40.671875 12.375 48.328125 
Q 20.453125 56 34.625 56 
Q 47.515625 56 55.25 48.234375 
Q 62.984375 40.484375 62.984375 27.484375 
z
M 45.015625 33.296875 
Q 45.015625 38.28125 42.109375 41.328125 
Q 39.203125 44.390625 34.515625 44.390625 
Q 29.4375 44.390625 26.265625 41.53125 
Q 23.09375 38.671875 22.3125 33.296875 
z
" id="DejaVuSans-Bold-65"/>
     <path d="M 34.078125 43.3125 
Q 28.515625 43.3125 25.5625 39.203125 
Q 22.609375 35.109375 22.609375 27.296875 
Q 22.609375 19.484375 25.5625 15.375 
Q 28.515625 11.28125 34.078125 11.28125 
Q 39.703125 11.28125 42.65625 15.375 
Q 45.609375 19.484375 45.609375 27.296875 
Q 45.609375 35.109375 42.65625 39.203125 
Q 39.703125 43.3125 34.078125 43.3125 
z
M 45.609375 7.90625 
Q 42 3.078125 37.640625 0.828125 
Q 33.296875 -1.421875 27.59375 -1.421875 
Q 17.484375 -1.421875 10.984375 6.609375 
Q 4.5 14.65625 4.5 27.296875 
Q 4.5 39.9375 10.984375 47.921875 
Q 17.484375 55.90625 27.59375 55.90625 
Q 33.296875 55.90625 37.640625 53.65625 
Q 42 51.421875 45.609375 46.578125 
L 45.609375 54.6875 
L 63.1875 54.6875 
L 63.1875 -20.796875 
L 45.609375 -20.796875 
z
" id="DejaVuSans-Bold-71"/>
    </defs>
    <g transform="translate(337.645156 22.396875)scale(0.2 -0.2)">
     <use xlink:href="#DejaVuSans-Bold-52"/>
     <use x="77.001953" xlink:href="#DejaVuSans-Bold-45"/>
     <use x="145.3125" xlink:href="#DejaVuSans-Bold-53"/>
     <use x="217.333984" xlink:href="#DejaVuSans-Bold-54"/>
     <use x="285.546875" xlink:href="#DejaVuSans-Bold-20"/>
     <use x="320.361328" xlink:href="#DejaVuSans-Bold-43"/>
     <use x="393.75" xlink:href="#DejaVuSans-Bold-68"/>
     <use x="464.941406" xlink:href="#DejaVuSans-Bold-49"/>
     <use x="502.148438" xlink:href="#DejaVuSans-Bold-50"/>
     <use x="575.423828" xlink:href="#DejaVuSans-Bold-2d"/>
     <use x="616.927734" xlink:href="#DejaVuSans-Bold-73"/>
     <use x="676.449219" xlink:href="#DejaVuSans-Bold-65"/>
     <use x="744.271484" xlink:href="#DejaVuSans-Bold-71"/>
    </g>
   </g>
  </g>
 </g>
 <defs>
  <clipPath id="p7352e301e0">
   <rect height="434.88" width="669.6" x="84.429531" y="28.396875"/>
  </clipPath>
 </defs>
</svg>
